<?xml version="1.0" standalone="no"?>
<!DOCTYPE svg PUBLIC "-//W3C//DTD SVG 1.1//EN" "http://www.w3.org/Graphics/SVG/1.1/DTD/svg11.dtd">
<svg xmlns="http://www.w3.org/2000/svg"><metadata>This SVG WebFont was generated by YouWorkForThem.
Copyright Â© 2019 by Connary Fagen. All rights reserved.</metadata><defs><font horiz-adv-x="1148" id="ywftsvg"><font-face ascent="1638" bbox="-287 -487 2222 2247" cap-height="1434" descent="-410" font-family="" font-stretch="normal" font-weight="300" panose-1="0 0 0 0 0 0 0 0 0 0" underline-position="0" underline-thickness="0" unicode-range="U+0020-FEFF" units-per-em="2048" x-height="1004"/><missing-glyph d="M831 1638v-2027h-643v2027h643zM338 -250h338v68h-207l141 96h66v66h-338v-66h143l-143 -96v-68zM338 27h338v229h-338v-229zM338 377h338v229h-203v-112h68v45h67v-95h-202v162h-68v-229zM338 651h338v203h-68v-133h-270v-70zM338 766h203v143h135v66h-338v-66h135v-75 h-135v-68zM338 1030h338v70h-135v141h-203v-211zM338 1294h338v66h-135v76h135v67h-336v-67h133v-76h-135v-66zM406 94v94h202v-94h-202zM406 1100v71h67v-71h-67z" horiz-adv-x="1013"/><glyph d="M831 1638v-2027h-643v2027h643zM338 -250h338v68h-207l141 96h66v66h-338v-66h143l-143 -96v-68zM338 27h338v229h-338v-229zM338 377h338v229h-203v-112h68v45h67v-95h-202v162h-68v-229zM338 651h338v203h-68v-133h-270v-70zM338 766h203v143h135v66h-338v-66h135v-75 h-135v-68zM338 1030h338v70h-135v141h-203v-211zM338 1294h338v66h-135v76h135v67h-336v-67h133v-76h-135v-66zM406 94v94h202v-94h-202zM406 1100v71h67v-71h-67z" glyph-name=".notdef" horiz-adv-x="1013"/><glyph glyph-name="glyph1" horiz-adv-x="0"/><glyph glyph-name="glyph2" horiz-adv-x="681"/><glyph glyph-name="space" horiz-adv-x="411" unicode=" "/><glyph d="M197 375q-27 0 -27 28l-14 1002q0 29 24 29h82q25 0 25 -29l-15 -1002q0 -29 -26 -28h-49zM125 67.5q0 38.5 27.5 66.5t66.5 28t66.5 -28t27.5 -66.5t-27.5 -66.5t-66.5 -28t-66.5 28t-27.5 66.5z" glyph-name="exclam" horiz-adv-x="440" unicode="!"/><glyph d="M332 985q-27 0 -27 27l-10 393q4 29 29 29h61q29 0 29 -29l-11 -393q0 -27 -24 -27h-47zM94 1405q4 29 29 29h61q29 0 29 -29l-10 -393q0 -27 -25 -27h-47q-27 0 -27 27z" glyph-name="quotedbl" horiz-adv-x="507" unicode="&quot;"/><glyph d="M240 0q-29 0 -19 35l107 401h-178q-27 0 -21 27l8 33q6 27 31 26h180l105 391h-177q-29 0 -22 25l8 35q6 25 31 24h182l109 412q6 25 30 25h37q29 0 19 -35l-107 -402h395l109 412q6 25 33 25h35q31 0 20 -35l-106 -402h176q29 0 22 -24l-8 -35q-6 -25 -31 -25h-182 l-104 -391h178q29 0 22 -26l-8 -33q-6 -27 -31 -27h-182l-108 -411q-6 -25 -33 -25h-35q-31 0 -20 35l106 401h-395l-109 -411q-6 -25 -31 -25h-36zM438 522h396l104 391h-395z" glyph-name="numbersign" horiz-adv-x="1376" unicode="#"/><glyph d="M403 1409q0 25 27 25h45q27 0 27 -25v-166q143 -18 233 -131q18 -20 -2 -45l-22 -27q-23 -27 -49 0q-92 100 -209 101q-78 0 -131.5 -39t-53.5 -113q0 -72 43 -109.5t142 -76.5l92 -39q113 -45 175 -110.5t62 -174.5q0 -119 -79.5 -192.5t-200.5 -87.5v-172 q0 -27 -27 -27h-45q-27 0 -27 27v170q-166 14 -274 145q-18 25 -4 51l25 31q18 27 45 -2q106 -117 249 -117q98 0 158 44t60 128q0 72 -42 114t-126 77l-117 49q-106 45 -166.5 106.5t-60.5 161.5q0 106 71.5 176t181.5 84v164z" glyph-name="dollar" horiz-adv-x="899" unicode="$"/><glyph d="M383 889q-115 0 -198 81t-83 195q0 117 83 198t198 81q117 0 199 -81t82 -197.5t-82 -196.5t-199 -80zM199 1165q0 -80 52 -132t132 -52t133 52t53 132q0 82 -53 135.5t-133 53.5t-132 -53.5t-52 -135.5zM252 70l907 1347q16 27 37 10l37 -26q20 -14 6 -37l-907 -1348 q-16 -27 -37 -10l-37 27q-20 14 -6 37zM827 266q0 117 83 198t198 81q117 0 199 -81t82 -197.5t-82 -196.5t-199 -80q-115 0 -198 80.5t-83 195.5zM924 266q0 -80 52 -132t132 -52t133 52t53 132q0 82 -53 134.5t-133 52.5t-132 -52.5t-52 -134.5z" glyph-name="percent" horiz-adv-x="1490" unicode="%"/><glyph d="M526 -27q-180 0 -297.5 105.5t-117.5 288.5q0 152 80.5 252t254.5 215q-174 184 -174 331q0 117 82 197t215 80q135 0 217 -80t82 -197q0 -104 -65.5 -187t-190.5 -169l363 -406l145 236q10 16 27 16h84q8 0 12 -6t-2 -18l-190 -316l219 -243q18 -23 -2 -43l-35 -35 q-23 -23 -43 2l-201 227q-195 -250 -463 -250zM240 379q0 -139 87 -215t214 -76q205 0 372 219l-393 441q-152 -102 -216 -177t-64 -192zM389 1161q0 -111 150 -270q111 72 161 130t50 136q0 80 -50.5 129t-130.5 49t-130 -48t-50 -126z" glyph-name="ampersand" horiz-adv-x="1378" unicode="&amp;"/><glyph d="M131 985q-27 0 -27 27l-10 393q4 29 29 29h61q29 0 29 -29l-10 -393q0 -27 -25 -27h-47z" glyph-name="quotesingle" horiz-adv-x="307" unicode="'"/><glyph d="M362 -266q-25 0 -36 20q-100 176 -150.5 417t-50.5 484q0 223 52 450.5t149 399.5q12 20 36 21h56q39 0 22 -37q-193 -367 -192 -834q0 -496 192 -884q16 -37 -22 -37h-56z" glyph-name="parenleft" horiz-adv-x="569" unicode="("/><glyph d="M152 -266q-39 0 -23 37q193 389 193 884q0 467 -193 834q-16 37 23 37h55q25 0 37 -21q96 -172 148 -399t52 -451q0 -244 -50 -484.5t-150 -416.5q-12 -20 -37 -20h-55z" glyph-name="parenright" horiz-adv-x="569" unicode=")"/><glyph d="M408 1196l-11 238h90l-8 -238h-71zM143 1176l23 88l233 -74l-24 -76zM229 905l148 197l59 -47l-133 -199zM451 1055l61 47l147 -197l-73 -49zM489 1190l234 74l22 -88l-231 -62z" glyph-name="asterisk" horiz-adv-x="888" unicode="*"/><glyph d="M403 283q-27 0 -26 28v213h-215q-29 0 -29 29v57q0 27 29 27h215v213q0 29 26 29h58q29 0 28 -29v-213h211q29 0 29 -27v-57q0 -29 -29 -29h-211v-213q0 -29 -28 -28h-58z" glyph-name="plus" horiz-adv-x="862" unicode="+"/><glyph d="M94 -201q88 2 125 82q27 59 0 82q-6 4 -16 4q-47 -2 -76 24.5t-29 69.5t30 72t73 29q55 0 91 -46t36 -118q0 -98 -63.5 -175t-170.5 -77v53z" glyph-name="comma" horiz-adv-x="421" unicode=","/><glyph d="M141 526q-27 0 -26 27v57q0 27 26 27h613q25 0 24 -27v-57q0 -27 -24 -27h-613z" glyph-name="hyphen" horiz-adv-x="892" unicode="-"/><glyph d="M188.5 -27q-38.5 0 -66.5 28t-28 66.5t28 66.5t66.5 28t66.5 -28t28 -66.5t-28 -66.5t-66.5 -28z" glyph-name="period" horiz-adv-x="378" unicode="."/><glyph d="M68 -266q-35 0 -23 35l660 1732q8 25 34 25h68q35 0 22 -35l-659 -1733q-10 -25 -33 -24h-69z" glyph-name="slash" horiz-adv-x="874" unicode="/"/><glyph d="M627 -27q-244 0 -383.5 197t-139.5 541q0 346 139.5 542.5t383.5 196.5q246 0 384 -196.5t138 -542.5q0 -344 -138 -541t-384 -197zM227 711q0 -295 106.5 -457t293.5 -162q188 0 294.5 162t106.5 457q0 297 -106.5 459.5t-294.5 162.5q-186 0 -293 -162.5t-107 -459.5z " glyph-name="zero" horiz-adv-x="1255" unicode="0"/><glyph d="M350 0q-25 0 -24 29v1294h-217q-25 0 -25 29v53q0 29 25 29h313q27 0 27 -29v-1376q0 -29 -27 -29h-72z" glyph-name="one" horiz-adv-x="583" unicode="1"/><glyph d="M119 0q-29 0 -29 29v59q0 25 14 39l449 547q63 78 95 120t67 118.5t35 148.5q0 121 -78 197.5t-205 76.5q-76 0 -136.5 -30.5t-87 -60.5t-57.5 -77q-16 -27 -39 -4l-43 39q-18 18 -2 45q129 203 369 203q182 0 290.5 -109.5t108.5 -271.5q0 -82 -34.5 -167t-69.5 -133 t-98 -126l-432 -532h604q29 0 28 -29v-53q0 -29 -28 -29h-721z" glyph-name="two" horiz-adv-x="1011" unicode="2"/><glyph d="M475 -27q-248 0 -385 195q-14 20 6 37l47 43q16 16 33 -4q111 -154 297 -154q141 0 230.5 86t89.5 223q0 147 -99.5 231.5t-238.5 84.5h-33q-29 0 -29 22v60q0 27 29 26h33q125 0 202.5 76t77.5 191q0 106 -69.5 175.5t-184.5 69.5q-164 0 -258 -151q-16 -20 -39 -4 l-45 43q-12 12 0 34q53 84 144.5 138.5t205.5 54.5q160 0 262.5 -98.5t102.5 -245.5q0 -223 -219 -332q127 -41 205 -142.5t78 -242.5q0 -178 -124 -297t-319 -119z" glyph-name="three" horiz-adv-x="1028" unicode="3"/><glyph d="M731 0q-25 0 -24 29v323h-582q-31 0 -31 31v66q0 18 8 28l592 936q14 20 35 21h72q29 0 28 -31v-940h156q23 0 23 -29v-53q0 -29 -23 -29h-156v-323q0 -29 -26 -29h-72zM221 463h486v770z" glyph-name="four" horiz-adv-x="1101" unicode="4"/><glyph d="M514 -27q-129 0 -231.5 53.5t-155.5 129.5q-16 25 2 39l51 41q18 16 39 -11q113 -135 295 -135q150 0 254 102.5t104 266.5q0 160 -99 258t-247 98q-182 0 -284 -135q-14 -20 -52 -4l-36 16q-27 10 -21 37l143 678q6 27 33 27h563q23 0 23 -29v-53q0 -29 -23 -29h-499 l-105 -485q106 90 277 90q186 0 315 -130t129 -339q0 -219 -136 -352.5t-339 -133.5z" glyph-name="five" horiz-adv-x="1099" unicode="5"/><glyph d="M565 -27q-199 0 -326.5 134.5t-127.5 332.5q0 180 131 351l497 667q18 25 39 8l56 -47q16 -14 0 -35l-402 -520q57 37 160 37q180 0 306 -128t126 -328.5t-129 -336t-330 -135.5zM229 442.5q0 -155.5 96.5 -254t242 -98.5t241.5 98.5t96 254t-96 253t-241.5 97.5 t-242 -97.5t-96.5 -253z" glyph-name="six" horiz-adv-x="1134" unicode="6"/><glyph d="M279 0q-31 0 -21 35l545 1288h-694q-25 0 -25 29v53q0 29 25 29h821q14 0 20 -11.5t0 -25.5l-569 -1366q-14 -31 -35 -31h-67z" glyph-name="seven" horiz-adv-x="1013" unicode="7"/><glyph d="M548.5 -27q-190.5 0 -317.5 119t-127 301q0 150 82 254.5t203 143.5q-96 43 -149.5 126.5t-53.5 186.5q0 143 101.5 244.5t261.5 101.5q162 0 262 -101.5t100 -244.5q0 -102 -53 -186t-149 -127q121 -39 202.5 -143.5t81.5 -254.5q0 -182 -127 -301t-317.5 -119zM223 401 q0 -137 91.5 -227t234.5 -90t234 89t91 228q0 141 -94 229.5t-231 88.5t-231.5 -89.5t-94.5 -228.5zM297 1100q0 -111 70.5 -183.5t181 -72.5t181.5 72.5t71 183.5q0 109 -69.5 177.5t-182.5 68.5t-182.5 -68.5t-69.5 -177.5z" glyph-name="eight" horiz-adv-x="1097" unicode="8"/><glyph d="M301 4q-14 14 0 35l404 520q-59 -37 -160 -37q-180 0 -307 129t-127 328q0 201 130 336t328.5 135t326.5 -134t128 -331q0 -180 -129 -352l-500 -668q-18 -25 -39 -8zM229 981q0 -156 96.5 -253t242 -97t241.5 97t96 253t-96 255t-241.5 99t-242 -99t-96.5 -255z" glyph-name="nine" horiz-adv-x="1134" unicode="9"/><glyph d="M188.5 -27q-38.5 0 -66.5 28t-28 66.5t28 66.5t66.5 28t66.5 -28t28 -66.5t-28 -66.5t-66.5 -28zM94 934q0 39 28 66.5t66.5 27.5t66.5 -27.5t28 -66.5t-28 -66.5t-66.5 -27.5t-66.5 27.5t-28 66.5z" glyph-name="colon" horiz-adv-x="378" unicode=":"/><glyph d="M190.5 840q-38.5 0 -66.5 27.5t-28 66.5t28 66.5t66.5 27.5t66.5 -27.5t28 -66.5t-28 -66.5t-66.5 -27.5zM94 -254v53q88 2 125 82q27 59 0 82q-6 4 -16 4q-47 -2 -76 24.5t-29 69.5t30 72t73 29q55 0 91 -46t36 -118q0 -98 -64 -175t-170 -77z" glyph-name="semicolon" horiz-adv-x="421" unicode=";"/><glyph d="M145 446q-23 10 -22 39v54q0 25 22 36l754 410q14 10 25.5 4t11.5 -22v-60q0 -23 -23 -33l-682 -362l682 -360q23 -12 23 -33v-60q0 -16 -11.5 -22t-25.5 4z" glyph-name="less" horiz-adv-x="1058" unicode="&lt;"/><glyph d="M162 651q-29 0 -29 27v57q0 29 29 29h579q29 0 29 -29v-57q0 -27 -29 -27h-579zM133 430v57q0 27 29 27h579q29 0 29 -27v-57q0 -29 -29 -29h-579q-29 0 -29 29z" glyph-name="equal" horiz-adv-x="903" unicode="="/><glyph d="M160 41q-16 -10 -26.5 -4t-10.5 22v60q0 20 22 33l682 360l-682 362q-23 10 -22 33v60q0 16 10 22t27 -4l753 -410q23 -12 23 -36v-54q0 -29 -23 -39z" glyph-name="greater" horiz-adv-x="1058" unicode=">"/><glyph d="M397 358q-27 0 -26 31v76q0 96 32.5 173t79.5 128t93.5 98t79 107.5t32.5 132.5q0 111 -67.5 169t-171.5 58q-188 0 -273 -192q-10 -23 -47 0l-31 18q-27 18 -16 43q35 98 130 174t243 76q156 0 256 -88t100 -242q0 -86 -33 -156.5t-80 -121.5t-95 -103.5t-82 -123 t-36 -154.5l-2 -72q4 -31 -24 -31h-62zM334 67.5q0 38.5 27.5 66.5t66.5 28t66.5 -28t27.5 -66.5t-27.5 -66.5t-66.5 -28t-66.5 28t-27.5 66.5z" glyph-name="question" horiz-adv-x="919" unicode="?"/><glyph d="M881 -27q-195 0 -362 90.5t-272.5 262.5t-105.5 389q0 221 108.5 392t276.5 257t361 86q301 0 513 -203t212 -534q0 -213 -86 -302t-199 -89q-154 0 -188 137q-109 -137 -295 -137q-162 0 -265.5 108.5t-103.5 269.5q0 164 106.5 274.5t270.5 110.5q197 0 297 -155 l35 119h80l-47 -467q-14 -162 114 -162q170 0 170 282q0 158 -52 284t-140 202t-195.5 114.5t-224.5 38.5q-162 0 -303.5 -66.5t-237.5 -213t-96 -346.5q0 -199 98.5 -347.5t239.5 -217t299 -68.5q190 0 332 104l67 -75q-161 -138 -407 -138zM582 705q0 -125 73.5 -204 t198.5 -79t200.5 80t75.5 202.5t-75.5 201.5t-200.5 79t-198.5 -78.5t-73.5 -201.5z" glyph-name="at" horiz-adv-x="1751" unicode="@"/><glyph d="M137 0q-37 0 -22 35l499 1374q8 25 37 25h88q27 0 37 -25l500 -1374q14 -35 -23 -35h-77q-23 0 -31 25l-113 313h-676l-110 -313q-8 -25 -35 -25h-74zM397 453h594l-297 831z" glyph-name="A" horiz-adv-x="1390" unicode="A"/><glyph d="M211 0q-29 0 -29 29v1376q0 29 29 29h401q203 0 295 -99.5t92 -242.5q0 -106 -52 -191.5t-159 -120.5q141 -33 219 -137t78 -246q0 -180 -122.5 -288.5t-354.5 -108.5h-397zM309 117h291q354 0 354 297q0 143 -90 223t-264 80h-291v-600zM309 823h297q125 0 198 69 t73 189q0 236 -271 236h-297v-494z" glyph-name="B" horiz-adv-x="1193" unicode="B"/><glyph d="M866 -27q-315 0 -520 212t-205 525.5t205 526.5t520 213q274 0 482 -180q27 -27 6 -49l-41 -47q-20 -20 -45 0q-178 152 -398 151q-258 0 -429 -174t-171 -440q0 -264 171 -438.5t429 -174.5q219 0 398 152q25 20 43 2l43 -49q23 -18 -6 -47q-206 -183 -482 -183z" glyph-name="C" horiz-adv-x="1495" unicode="C"/><glyph d="M211 0q-29 0 -29 29v1376q0 29 29 29h293q362 0 544.5 -197t182.5 -520.5t-182.5 -520t-544.5 -196.5h-293zM309 117h193q305 0 452.5 156.5t147.5 443.5t-147.5 444.5t-452.5 157.5h-193v-1202z" glyph-name="D" horiz-adv-x="1361" unicode="D"/><glyph d="M211 0q-29 0 -29 29v1376q0 29 29 29h678q29 0 29 -29v-59q0 -27 -29 -27h-580v-518h551q27 0 27 -29v-59q0 -29 -27 -29h-551v-567h582q29 0 29 -29v-59q0 -29 -29 -29h-680z" glyph-name="E" horiz-adv-x="1081" unicode="E"/><glyph d="M211 0q-29 0 -29 29v1376q0 29 29 29h657q29 0 29 -29v-59q0 -27 -29 -27h-559v-506h533q29 0 28 -29v-59q0 -27 -28 -27h-533v-669q0 -29 -26 -29h-72z" glyph-name="F" horiz-adv-x="1046" unicode="F"/><glyph d="M874 -27q-317 0 -525 213t-208 524.5t208 525.5t523 214q281 0 484 -190q20 -16 4 -33l-51 -60q-14 -16 -31 0q-184 158 -406 158q-258 0 -430 -175t-172 -439q0 -262 173 -437.5t431 -175.5q238 0 388.5 145.5t146.5 370.5h-512q-29 0 -29 27v64q0 27 29 26h608 q31 0 31 -31v-51q0 -293 -181.5 -484.5t-480.5 -191.5z" glyph-name="G" horiz-adv-x="1656" unicode="G"/><glyph d="M211 0q-29 0 -29 29v1376q0 29 29 29h72q27 0 26 -29v-635h705v635q0 29 28 29h72q29 0 29 -29v-1376q0 -29 -29 -29h-72q-29 0 -28 29v626h-705v-626q0 -29 -26 -29h-72z" glyph-name="H" horiz-adv-x="1323" unicode="H"/><glyph d="M211 0q-29 0 -29 29v1376q0 29 29 29h72q27 0 26 -29v-1376q0 -29 -26 -29h-72z" glyph-name="I" horiz-adv-x="491" unicode="I"/><glyph d="M434 -27q-182 0 -309 136q-16 23 2 41l39 51q16 20 35 2q39 -35 64.5 -53.5t70.5 -35t98 -16.5q268 0 268 355v952q0 29 27 29h72q29 0 28 -29v-959q0 -229 -106.5 -351t-288.5 -122z" glyph-name="J" horiz-adv-x="1011" unicode="J"/><glyph d="M211 0q-29 0 -29 29v1376q0 29 29 29h72q27 0 26 -29v-807l619 819q14 16 37 17h90q20 0 24 -10.5t-8 -26.5l-496 -635l553 -725q10 -16 5 -26.5t-23 -10.5h-84q-25 0 -37 18l-489 646l-191 -242v-393q0 -29 -26 -29h-72z" glyph-name="K" horiz-adv-x="1234" unicode="K"/><glyph d="M211 0q-29 0 -29 29v1376q0 29 29 29h72q27 0 26 -29v-1288h537q31 0 31 -31v-55q0 -31 -31 -31h-635z" glyph-name="L" horiz-adv-x="995" unicode="L"/><glyph d="M211 0q-29 0 -29 29v1376q0 29 29 29h108q23 0 31 -21l543 -1276l543 1276q8 20 32 21h109q27 0 27 -29v-1376q0 -29 -27 -29h-72q-29 0 -28 29v1206l-33 -96l-475 -1116q-8 -23 -35 -23h-82q-27 0 -35 23l-475 1116l-33 96v-1206q0 -29 -26 -29h-72z" glyph-name="M" horiz-adv-x="1785" unicode="M"/><glyph d="M1044 0q-25 0 -36 20l-699 1240v-1231q0 -29 -26 -29h-72q-29 0 -29 29v1376q0 29 29 29h104q25 0 37 -21l699 -1239v1231q0 29 28 29h72q27 0 27 -29v-1376q0 -29 -27 -29h-107z" glyph-name="N" horiz-adv-x="1359" unicode="N"/><glyph d="M872.5 -27q-309.5 0 -520.5 213t-211 524.5t211 525.5t520.5 214t521.5 -214t212 -525.5t-212 -524.5t-521.5 -213zM270 711q0 -262 173 -437.5t429 -175.5q258 0 431.5 175.5t173.5 437.5q0 264 -173.5 439t-431.5 175t-430 -175t-172 -439z" glyph-name="O" horiz-adv-x="1746" unicode="O"/><glyph d="M211 0q-29 0 -29 29v1376q0 29 29 29h383q223 0 345 -122t122 -320.5t-122 -319.5t-345 -121h-285v-522q0 -29 -26 -29h-72zM309 666h273q160 0 256 78.5t96 246.5q0 170 -96.5 249t-255.5 79h-273v-653z" glyph-name="P" horiz-adv-x="1179" unicode="P"/><glyph d="M1550 -23q-18 -18 -43 5l-159 161q-203 -170 -476 -170q-309 0 -520 213t-211 524.5t211 525.5t520.5 214t521.5 -214t212 -525q0 -279 -174 -482l163 -163q23 -20 2 -41zM270 711q0 -262 173 -437.5t429 -175.5q223 0 385 133l-194 197q-23 23 -4 39l47 47q20 20 43 -2 l194 -195q133 166 134 394q0 264 -173.5 439t-431.5 175t-430 -175t-172 -439z" glyph-name="Q" horiz-adv-x="1746" unicode="Q"/><glyph d="M954 0q-25 0 -36 20l-355 531h-254v-522q0 -29 -26 -29h-72q-29 0 -29 29v1376q0 29 29 29h383q223 0 345 -122t122 -321q0 -172 -94.5 -288.5t-270.5 -143.5l355 -522q23 -37 -21 -37h-76zM309 666h273q160 0 256 78.5t96 246.5q0 170 -96.5 249t-255.5 79h-273v-653z " glyph-name="R" horiz-adv-x="1177" unicode="R"/><glyph d="M545 -25q-276 0 -418 211q-14 23 4 45l35 39q23 25 47 -4q123 -172 334 -172q145 0 227 73t82 193q0 113 -68.5 178.5t-207.5 133.5l-174 86q-246 117 -246 342q0 158 111.5 254t277.5 96q231 0 375 -180q20 -25 0 -49l-31 -35q-25 -27 -51 2q-121 143 -289 143 q-117 0 -192.5 -59.5t-75.5 -167.5q0 -82 46 -140.5t146 -107.5l172 -84q158 -78 245 -168t87 -242q0 -176 -119.5 -281.5t-316.5 -105.5z" glyph-name="S" horiz-adv-x="1099" unicode="S"/><glyph d="M508 0q-27 0 -27 29v1290h-311q-29 0 -29 27v59q0 29 29 29h750q29 0 28 -29v-59q0 -27 -28 -27h-312v-1290q0 -29 -28 -29h-72z" glyph-name="T" horiz-adv-x="1089" unicode="T"/><glyph d="M639 -27q-211 0 -339 128t-128 358v946q0 29 29 29h71q27 0 27 -29v-928q0 -188 92 -283.5t248 -95.5q154 0 246 95.5t92 283.5v928q0 29 29 29h71q29 0 29 -29v-946q0 -229 -127 -357.5t-340 -128.5z" glyph-name="U" horiz-adv-x="1277" unicode="U"/><glyph d="M651 0q-29 0 -37 25l-499 1374q-14 35 22 35h74q27 0 35 -25l448 -1262l451 1262q8 25 31 25h77q37 0 23 -35l-500 -1374q-10 -25 -37 -25h-88z" glyph-name="V" horiz-adv-x="1390" unicode="V"/><glyph d="M573 0q-25 0 -32 25l-428 1374q-10 35 24 35h70q27 0 35 -25l379 -1239l411 1239q8 25 33 25h86q23 0 31 -25l411 -1239l379 1239q10 25 35 25h70q35 0 24 -35l-426 -1374q-10 -25 -35 -25h-88q-27 0 -34 25l-410 1251l-412 -1251q-8 -25 -32 -25h-91z" glyph-name="W" horiz-adv-x="2213" unicode="W"/><glyph d="M152 0q-37 0 -15 37l432 698l-411 662q-23 37 14 37h84q18 0 35 -21l350 -565l350 565q12 20 33 21h84q37 0 14 -37l-411 -662l432 -698q23 -37 -15 -37h-79q-23 0 -35 20l-373 603l-375 -603q-12 -20 -35 -20h-79z" glyph-name="X" horiz-adv-x="1280" unicode="X"/><glyph d="M569 0q-29 0 -28 29v663l-424 705q-10 16 -5 26.5t23 10.5h82q20 0 33 -21l356 -598l355 598q12 20 34 21h82q39 0 17 -37l-424 -705v-663q0 -29 -29 -29h-72z" glyph-name="Y" horiz-adv-x="1210" unicode="Y"/><glyph d="M160 0q-29 0 -29 29v69q0 18 12 37l723 1184h-686q-29 0 -28 27v59q0 29 28 29h793q29 0 28 -29v-70q0 -18 -12 -37l-723 -1181h727q29 0 29 -29v-59q0 -29 -29 -29h-833z" glyph-name="Z" horiz-adv-x="1163" unicode="Z"/><glyph d="M152 -266q-27 0 -27 24v1743q0 25 27 25h266q25 0 24 -25v-57q0 -25 -24 -25h-164v-1579h164q25 0 24 -24v-58q0 -25 -24 -24h-266z" glyph-name="bracketleft" horiz-adv-x="569" unicode="["/><glyph d="M737 -266q-25 0 -32 24l-660 1733q-12 35 23 35h67q25 0 35 -25l659 -1732q12 -35 -22 -35h-70z" glyph-name="backslash" horiz-adv-x="874" unicode="\"/><glyph d="M152 -266q-25 0 -25 24v58q0 25 25 24h163v1579h-163q-25 0 -25 25v57q0 25 25 25h266q27 0 26 -25v-1743q0 -25 -26 -24h-266z" glyph-name="bracketright" horiz-adv-x="569" unicode="]"/><glyph d="M537 1411q10 23 38 23h54q25 0 37 -23l409 -754q10 -14 4 -25t-22 -11h-60q-23 0 -32 22l-363 682l-360 -682q-12 -23 -33 -22h-59q-16 0 -22.5 11t3.5 25z" glyph-name="asciicircum" horiz-adv-x="1204" unicode="^"/><glyph d="M150 -111q-27 0 -27 27v57q0 27 27 27h972q25 0 25 -27v-57q0 -27 -25 -27h-972z" glyph-name="underscore" horiz-adv-x="1269" unicode="_"/><glyph d="M188 1141q-18 0 -32 24l-121 236q-18 33 18 33h60q23 0 32 -25l119 -235q18 -33 -18 -33h-58z" glyph-name="grave" horiz-adv-x="299" unicode="`"/><glyph d="M608 -25q-219 0 -358 149.5t-139 377t139 377t358 149.5q135 0 236.5 -61.5t159.5 -169.5l4 178q0 29 26 29h66q27 0 26 -29v-946q0 -29 -26 -29h-66q-27 0 -26 29l-4 174q-120 -228 -396 -228zM229 501.5q0 -182.5 110 -296t284 -113.5q170 0 276.5 111.5t106.5 294.5 q0 184 -106.5 298.5t-276.5 114.5q-172 0 -283 -113.5t-111 -296z" glyph-name="a" horiz-adv-x="1286" unicode="a"/><glyph d="M680 -25q-274 0 -397 228l-4 -174q0 -29 -25 -29h-68q-25 0 -24 29v1407q0 29 24 28h72q27 0 27 -28v-635q57 106 158.5 166.5t236.5 60.5q219 0 358.5 -149.5t139.5 -377t-139.5 -377t-358.5 -149.5zM283 498q0 -182 106.5 -294t276.5 -112q172 0 281.5 113.5t109.5 296 t-109.5 296t-281.5 113.5q-170 0 -276.5 -114.5t-106.5 -298.5z" glyph-name="b" horiz-adv-x="1286" unicode="b"/><glyph d="M631 -25q-221 0 -370.5 150.5t-149.5 376t149.5 376t372.5 150.5q236 0 373 -164q18 -27 4 -41l-39 -37q-23 -25 -45 2q-117 125 -289 125q-174 0 -290 -114.5t-116 -296.5q0 -180 116 -295t292 -115q174 0 285 121q27 29 49 6l39 -39q14 -14 -4 -39q-137 -166 -377 -166 z" glyph-name="c" horiz-adv-x="1128" unicode="c"/><glyph d="M608 -25q-219 0 -358 149.5t-139 377t139 377t358 149.5q133 0 235.5 -60.5t160.5 -166.5v635q0 29 24 28h72q27 0 26 -28v-1407q0 -29 -26 -29h-66q-27 0 -26 29l-4 174q-120 -228 -396 -228zM229 501.5q0 -182.5 110 -296t284 -113.5q170 0 276.5 111.5t106.5 294.5 q0 184 -106.5 298.5t-276.5 114.5q-172 0 -283 -113.5t-111 -296z" glyph-name="d" horiz-adv-x="1286" unicode="d"/><glyph d="M639 -25q-240 0 -384 153t-144 378q0 223 140 372.5t361 149.5q213 0 340 -140t127 -333q0 -55 -13 -75.5t-54 -20.5h-783q14 -166 124 -271.5t296 -105.5q164 0 299 102q16 16 29 0l29 -37q14 -20 -9 -43q-135 -129 -358 -129zM231 559h740q-4 160 -102.5 259.5 t-258 99.5t-262.5 -97.5t-117 -261.5z" glyph-name="e" horiz-adv-x="1189" unicode="e"/><glyph d="M274 0q-25 0 -24 29v870h-121q-29 0 -29 29v47q0 29 29 29h121v239q0 254 248 254q55 0 88 -12q18 -8 18 -27v-67q0 -18 -24 -15q-37 6 -68 6q-82 0 -110.5 -44t-28.5 -126v-208h202q29 0 29 -29v-47q0 -29 -29 -29h-202v-870q0 -29 -27 -29h-72z" glyph-name="f" horiz-adv-x="702" unicode="f"/><glyph d="M604 -420q-209 0 -342 92q-25 16 -16 39l26 47q12 18 35 9q121 -80 293 -80q170 0 281.5 86t111.5 272v180q-123 -215 -391 -215q-217 0 -354 142.5t-137 367.5q0 223 137 365.5t350 142.5q274 0 397 -221l2 168q0 29 25 29h68q25 0 24 -29v-940q0 -225 -147.5 -340 t-362.5 -115zM229 520q0 -180 110 -287.5t277.5 -107.5t272 105.5t104.5 283.5q0 180 -104.5 289.5t-272 109.5t-277.5 -108.5t-110 -284.5z" glyph-name="g" horiz-adv-x="1275" unicode="g"/><glyph d="M186 0q-25 0 -24 29v1407q0 29 24 28h72q27 0 27 -28v-594q104 186 338 186q168 0 267 -105.5t99 -301.5v-592q0 -29 -26 -29h-72q-25 0 -25 29v585q0 139 -72.5 219t-201.5 80q-133 0 -220 -81.5t-87 -217.5v-585q0 -29 -27 -29h-72z" glyph-name="h" unicode="h"/><glyph d="M223 1278q-35 0 -58.5 24.5t-23.5 57.5t23.5 57.5t58.5 24.5q33 0 56.5 -23.5t23.5 -58.5t-23.5 -58.5t-56.5 -23.5zM162 29v946q0 29 24 29h72q25 0 25 -29v-946q0 -29 -25 -29h-72q-24 0 -24 29z" glyph-name="i" horiz-adv-x="444" unicode="i"/><glyph d="M246 1278q-33 0 -57.5 24.5t-24.5 57.5t24.5 57.5t57.5 24.5t55.5 -23.5t22.5 -58.5t-22.5 -58.5t-55.5 -23.5zM-49 -371v68q0 18 24 14q37 -6 66 -6q82 0 111.5 44t29.5 126v1100q0 29 27 29h70q27 0 26 -29v-1131q0 -254 -248 -254q-55 0 -88 13q-18 8 -18 26z" glyph-name="j" horiz-adv-x="464" unicode="j"/><glyph d="M186 0q-25 0 -24 29v1407q0 29 24 28h72q27 0 27 -28v-987l495 538q14 16 35 17h94q16 0 18.5 -10.5t-7.5 -18.5l-377 -400l432 -542q10 -12 5 -22.5t-24 -10.5h-75q-25 0 -37 18l-377 474l-182 -195v-268q0 -29 -27 -29h-72z" glyph-name="k" horiz-adv-x="1071" unicode="k"/><glyph d="M186 0q-25 0 -24 29v1407q0 29 24 28h72q27 0 27 -28v-1407q0 -29 -27 -29h-72z" glyph-name="l" horiz-adv-x="444" unicode="l"/><glyph d="M186 0q-25 0 -24 29v946q0 29 24 29h64q29 0 29 -31l4 -117q86 172 284 172q223 0 297 -201q92 201 318 201q156 0 241.5 -100.5t85.5 -296.5v-602q0 -29 -24 -29h-72q-27 0 -27 29v594q0 291 -227 290q-119 0 -190.5 -78.5t-71.5 -211.5v-594q0 -29 -25 -29h-73 q-25 0 -25 29v594q0 139 -62.5 214.5t-174.5 75.5q-119 0 -185.5 -77.5t-66.5 -212.5v-594q0 -29 -27 -29h-72z" glyph-name="m" horiz-adv-x="1671" unicode="m"/><glyph d="M186 0q-25 0 -24 29v946q0 29 24 29h64q29 0 29 -31l6 -131q104 186 338 186q168 0 267 -105.5t99 -301.5v-592q0 -29 -26 -29h-72q-25 0 -25 29v585q0 139 -72.5 219t-201.5 80q-133 0 -220 -81.5t-87 -217.5v-585q0 -29 -27 -29h-72z" glyph-name="n" unicode="n"/><glyph d="M623 -25q-219 0 -365.5 152t-146.5 375t146 374.5t366 151.5q217 0 363.5 -150.5t146.5 -376t-146.5 -376t-363.5 -150.5zM231 502q0 -178 111 -294t281 -116q168 0 279.5 116t111.5 294t-111.5 294.5t-279.5 116.5q-170 0 -281 -115.5t-111 -295.5z" glyph-name="o" horiz-adv-x="1243" unicode="o"/><glyph d="M186 -389q-25 0 -24 29v1335q0 29 24 29h68q25 0 25 -29l4 -178q59 109 160.5 170t236.5 61q219 0 358.5 -149.5t139.5 -377t-139.5 -377t-358.5 -149.5q-274 0 -395 224v-559q0 -29 -27 -29h-72zM283 498q0 -182 106.5 -294t276.5 -112q172 0 281.5 113.5t109.5 296 t-109.5 296t-281.5 113.5q-170 0 -276.5 -114.5t-106.5 -298.5z" glyph-name="p" horiz-adv-x="1286" unicode="p"/><glyph d="M1028 -389q-25 0 -24 29v559q-123 -223 -396 -224q-219 0 -358 149.5t-139 377t139 377t358 149.5q135 0 236.5 -61.5t159.5 -169.5l4 178q0 29 26 29h66q27 0 26 -29v-1335q0 -29 -26 -29h-72zM229 501.5q0 -182.5 110 -296t284 -113.5q170 0 276.5 111.5t106.5 294.5 q0 184 -106.5 298.5t-276.5 114.5q-172 0 -283 -113.5t-111 -296z" glyph-name="q" horiz-adv-x="1286" unicode="q"/><glyph d="M186 0q-25 0 -24 29v946q0 29 24 29h64q29 0 29 -31l4 -111q70 166 233 166q66 0 92 -18q16 -10 17 -35v-53q0 -29 -35 -19q-37 10 -72 10q-88 0 -143.5 -50t-72.5 -107.5t-17 -120.5v-606q0 -29 -27 -29h-72z" glyph-name="r" horiz-adv-x="712" unicode="r"/><glyph d="M449 -25q-199 0 -318 148q-18 25 -4 51l25 31q18 27 45 -2q106 -117 249 -117q98 0 158 44t60 128q0 72 -42 114t-126 77l-117 49q-106 45 -166.5 106.5t-60.5 161.5q0 119 87 190.5t212 71.5q180 0 286 -135q18 -20 -2 -45l-22 -27q-23 -27 -49 0q-92 100 -209 101 q-78 0 -131.5 -39t-53.5 -113q0 -72 43 -109.5t142 -76.5l92 -39q113 -45 175 -110.5t62 -174.5q0 -133 -97 -209t-238 -76z" glyph-name="s" horiz-adv-x="905" unicode="s"/><glyph d="M457 -12q-197 0 -197 205v706h-131q-29 0 -29 29v47q0 29 29 29h131v237q0 29 27 29h69q27 0 27 -29v-237h172q29 0 29 -29v-47q0 -29 -29 -29h-172v-688q0 -61 21.5 -87t70.5 -26q14 0 64 6q41 6 41 -26v-49q0 -41 -123 -41z" glyph-name="t" horiz-adv-x="684" unicode="t"/><glyph d="M526 -25q-168 0 -266 106.5t-98 303.5v590q0 29 24 29h72q27 0 27 -29v-586q0 -139 71.5 -218t200.5 -79q133 0 221 81t88 216v586q0 29 25 29h72q27 0 26 -29v-946q0 -29 -26 -29h-64q-27 0 -29 31l-4 131q-104 -187 -340 -187z" glyph-name="u" unicode="u"/><glyph d="M516 0q-29 0 -37 25l-375 944q-12 35 23 35h70q25 0 32 -25l324 -844l324 844q8 25 32 25h70q35 0 22 -35l-374 -944q-8 -25 -37 -25h-74z" glyph-name="v" horiz-adv-x="1105" unicode="v"/><glyph d="M473 0q-27 0 -37 25l-332 944q-12 35 23 35h70q25 0 32 -25l287 -846l295 846q8 25 37 25h82q29 0 37 -25l295 -846l286 846q8 25 31 25h72q35 0 22 -35l-332 -944q-10 -25 -36 -25h-82q-27 0 -37 25l-297 845l-297 -845q-10 -25 -37 -25h-82z" glyph-name="w" horiz-adv-x="1777" unicode="w"/><glyph d="M121 0q-16 0 -20.5 10t5.5 25l316 477l-301 457q-20 35 16 35h78q23 0 35 -21l246 -385l245 385q12 20 35 21h80q35 0 14 -35l-301 -457l316 -477q25 -35 -15 -35h-79q-23 0 -35 20l-260 408l-260 -408q-12 -20 -35 -20h-80z" glyph-name="x" horiz-adv-x="991" unicode="x"/><glyph d="M369 -389q-31 0 -21 29l141 356l-385 973q-12 35 23 35h70q25 0 32 -25l324 -844l324 844q8 25 30 25h72q35 0 22 -35l-528 -1334q-10 -25 -35 -24h-69z" glyph-name="y" horiz-adv-x="1105" unicode="y"/><glyph d="M150 0q-29 0 -29 29v59q0 18 14 37l592 772h-571q-29 0 -29 27v51q0 29 29 29h680q31 0 30 -29v-60q0 -16 -14 -34l-594 -772h582q29 0 28 -29v-51q0 -29 -28 -29h-690z" glyph-name="z" horiz-adv-x="989" unicode="z"/><glyph d="M348 -266q-63 0 -100 41t-37 100v586q0 23 -10 39l-68 106q-12 23 -2 41l70 111q10 18 10 39v587q0 59 37 100.5t100 41.5h107q27 0 26 -25v-57q0 -25 -26 -25h-45q-72 0 -72 -73v-560q0 -25 -10 -38l-62 -101q-12 -20 0 -41l62 -96q10 -18 10 -39v-557q0 -74 72 -74h45 q27 0 26 -24v-58q0 -25 -26 -24h-107z" glyph-name="braceleft" horiz-adv-x="606" unicode="{"/><glyph d="M211 -389q-29 0 -29 29v1970q0 29 29 28h72q27 0 26 -28v-1970q0 -29 -26 -29h-72z" glyph-name="bar" horiz-adv-x="491" unicode="|"/><glyph d="M152 -266q-27 0 -27 24v58q0 25 27 24h45q72 0 71 74v557q0 20 11 39l61 96q12 20 0 41l-61 101q-10 14 -11 38v560q0 74 -71 73h-45q-27 0 -27 25v57q0 25 27 25h106q63 0 100 -41t37 -101v-587q0 -20 11 -39l69 -111q10 -18 -2 -41l-67 -106q-10 -16 -11 -39v-586 q0 -59 -36.5 -100t-100.5 -41h-106z" glyph-name="braceright" horiz-adv-x="606" unicode="}"/><glyph d="M539 469q-72 0 -141.5 63.5t-114.5 63.5q-31 0 -50.5 -16.5t-21.5 -40.5q-2 -18 -23 -19h-55q-18 0 -18 23q2 68 48 105.5t111 37.5q72 0 142.5 -63.5t115.5 -63.5q29 0 48.5 17.5t23.5 41.5q2 18 23 19h51q20 0 20 -21q-2 -70 -47.5 -108.5t-111.5 -38.5z" glyph-name="asciitilde" horiz-adv-x="813" unicode="~"/><glyph glyph-name="uni00A0" horiz-adv-x="411" unicode=" "/><glyph d="M246 690q27 0 26 -28l15 -1002q0 -29 -25 -29h-82q-25 0 -24 29l14 1002q0 29 27 28h49zM125 997q0 39 27.5 67t66.5 28t66.5 -28t27.5 -67t-27.5 -66.5t-66.5 -27.5t-66.5 27.5t-27.5 66.5z" glyph-name="exclamdown" horiz-adv-x="440" unicode="¡"/><glyph d="M559 0q-25 0 -24 27v223q-184 18 -303 148t-119 318.5t118.5 318.5t303.5 149v225q0 25 24 25h23q27 0 26 -25v-223q203 -10 318 -146q16 -25 4 -36l-37 -33q-18 -20 -41 2q-102 106 -244 110v-731q147 6 244 109q25 23 43 4l37 -35q10 -10 -4 -35q-115 -137 -320 -147 v-221q0 -27 -26 -27h-23zM221 716.5q0 -145.5 87 -243.5t227 -117v723q-137 -16 -225.5 -116.5t-88.5 -246z" glyph-name="cent" horiz-adv-x="1048" unicode="¢"/><glyph d="M145 0q-27 0 -26 29v82q39 25 63.5 44t67.5 65t65.5 113.5t22.5 151.5q0 55 -10 107h-181q-25 0 -24 24v48q0 25 24 24h154q-6 12 -37 73.5t-40 83t-27.5 70t-24.5 86t-6 78.5q0 158 107.5 264.5t287.5 106.5q238 0 367 -203q16 -27 -2 -45l-43 -39q-8 -10 -19.5 -9 t-17.5 13q-33 47 -59.5 77t-87 60.5t-134.5 30.5q-125 0 -201.5 -75.5t-76.5 -192.5q0 -63 21.5 -121.5t63.5 -137.5t58 -120h275q27 0 26 -24v-48q0 -25 -26 -24h-256q10 -66 10 -100q0 -135 -52.5 -233.5t-125.5 -147.5h614q27 0 27 -29v-53q0 -29 -27 -29h-750z" glyph-name="sterling" horiz-adv-x="1054" unicode="£"/><glyph d="M199 516l-64 62l103 102q-104 131 -104.5 295t104.5 295l-103 102l64 62l104 -103q125 102 289 103q160 0 289 -103l102 103l64 -62l-101 -100q104 -135 104.5 -297t-104.5 -297l101 -100l-64 -62l-102 102q-129 -102 -289 -102q-164 0 -289 105zM217 975 q0 -162 111.5 -269.5t263 -107.5t263.5 107.5t112 269.5q0 160 -112 268.5t-263.5 108.5t-263 -108.5t-111.5 -268.5z" glyph-name="currency" horiz-adv-x="1181" unicode="¤"/><glyph d="M358 592q-29 0 -28 29v41q0 29 28 28h183v2l-424 705q-10 16 -5 26.5t23 10.5h82q20 0 33 -21l356 -598l355 598q12 20 34 21h82q39 0 17 -37l-424 -705v-2h186q29 0 29 -28v-41q0 -29 -29 -29h-186v-88h186q29 0 29 -29v-41q0 -29 -29 -28h-186v-377q0 -29 -29 -29h-72 q-29 0 -28 29v377h-183q-29 0 -28 28v41q0 29 28 29h183v88h-183z" glyph-name="yen" horiz-adv-x="1210" unicode="¥"/><glyph d="M211 1004q-29 0 -29 28v578q0 29 29 28h72q27 0 26 -28v-578q0 -29 -26 -28h-72zM182 -360v577q0 29 29 29h72q27 0 26 -29v-577q0 -29 -26 -29h-72q-29 0 -29 29z" glyph-name="brokenbar" horiz-adv-x="491" unicode="¦"/><glyph d="M459 -78q-199 0 -328 141q-23 27 -2 56l16 24q20 29 56 0q113 -113 258 -112q98 0 155.5 45t57.5 123q0 123 -172 188l-127 53q-229 90 -230 269q0 172 176 241q-172 88 -172 244q0 121 89.5 190.5t220.5 69.5q180 0 295 -133q18 -20 -2 -45l-23 -27q-23 -27 -49 0 q-92 98 -219 99q-80 0 -135.5 -38t-55.5 -112q0 -72 42 -109.5t128 -72.5l115 -47q117 -49 180.5 -111.5t63.5 -167.5q0 -178 -158 -248q156 -84 156 -239q0 -131 -95.5 -206t-240.5 -75zM266 712.5q0 -73.5 46 -112.5t155 -84q94 4 151.5 48t57.5 120q0 78 -63.5 128 t-157.5 50q-78 0 -133.5 -38t-55.5 -111.5z" glyph-name="section" horiz-adv-x="915" unicode="§"/><glyph d="M465 1292q-31 0 -54.5 22.5t-23.5 53.5t23.5 53.5t54.5 22.5q33 0 55.5 -22.5t22.5 -53.5t-22.5 -53.5t-55.5 -22.5zM31 1368q0 31 22.5 53.5t55 22.5t55 -22.5t22.5 -53.5t-22.5 -53.5t-55 -22.5t-55 22.5t-22.5 53.5z" glyph-name="dieresis" horiz-adv-x="573" unicode="¨"/><glyph d="M723 279q-244 0 -413 172t-169 413q0 244 169 415t413 171t412 -171t168 -415q0 -242 -168 -413.5t-412 -171.5zM238 864q0 -205 140 -347t345 -142t344 142t139 347t-139 348.5t-344 143.5t-345 -143.5t-140 -348.5zM399 864q0 145 95.5 242.5t236.5 97.5 q147 0 244 -106q16 -16 0 -31l-29 -27q-18 -14 -35 2q-78 74 -174 74q-109 0 -176 -69.5t-67 -182.5q0 -111 67.5 -179.5t175.5 -68.5q98 0 174 72q18 18 35 2l29 -26q14 -14 0 -29q-96 -106 -244 -107q-141 0 -236.5 96.5t-95.5 239.5z" glyph-name="copyright" horiz-adv-x="1443" unicode="©"/><glyph d="M471 698q-156 0 -258 106.5t-102 266.5t102 266.5t258 106.5q184 0 289 -139l10 129h88v-736h-88l-10 140q-105 -140 -289 -140zM207 1071q0 -121 76.5 -199.5t195.5 -78.5q121 0 202 79.5t81 198.5q0 121 -81 200t-202 79q-119 0 -195.5 -79t-76.5 -200z" glyph-name="ordfeminine" horiz-adv-x="968" unicode="ª"/><glyph d="M121 500q-16 14 -17 32v86q0 16 17 31l217 176q8 8 17.5 3t9.5 -17v-70q0 -16 -17 -30l-170 -136l170 -137q16 -14 17 -30v-70q0 -12 -9.5 -16.5t-17.5 2.5zM401 532v86q0 16 17 31l217 176q8 8 17.5 3t9.5 -17v-70q0 -16 -17 -30l-170 -136l170 -137q16 -14 17 -30v-70 q0 -12 -9.5 -16.5t-17.5 2.5l-217 176q-17 14 -17 32z" glyph-name="guillemotleft" horiz-adv-x="765" unicode="«"/><glyph d="M795 313q-27 0 -27 29v164h-616q-29 0 -29 29v51q0 29 29 28h710q29 0 29 -28v-244q0 -29 -29 -29h-67z" glyph-name="logicalnot" horiz-adv-x="1013" unicode="¬"/><glyph d="M141 526q-27 0 -26 27v57q0 27 26 27h613q25 0 24 -27v-57q0 -27 -24 -27h-613z" glyph-name="uni00AD" horiz-adv-x="892" unicode="­"/><glyph d="M723 279q-244 0 -413 172t-169 413q0 244 169 415t413 171t412 -171t168 -415q0 -242 -168 -413.5t-412 -171.5zM238 864q0 -205 139 -347t346 -142q205 0 344 142t139 347t-139 348.5t-344 143.5q-207 0 -346 -143.5t-139 -348.5zM487 578v573q0 18 19 18h270 q106 0 168 -54t62 -146q0 -76 -49.5 -127t-133.5 -64l185 -194q8 -10 5 -17.5t-18 -7.5h-65q-14 0 -25 12l-188 203h-139v-196q0 -18 -19 -19h-53q-19 1 -19 19zM578 858h204q66 0 97.5 32t31.5 79q0 117 -129 116h-204v-227z" glyph-name="registered" horiz-adv-x="1443" unicode="®"/><glyph d="M59 1329q-29 0 -28 29v47q0 29 28 29h547q29 0 29 -29v-47q0 -29 -29 -29h-547z" glyph-name="macron" horiz-adv-x="665" unicode="¯"/><glyph d="M422 874q-123 0 -211 86.5t-88 208.5q0 127 87 212t212 85q123 0 210 -85t87 -212q0 -123 -87 -209t-210 -86zM221 1169.5q0 -90.5 58.5 -145.5t142.5 -55q82 0 140.5 55t58.5 145.5t-58.5 146.5t-140.5 56q-84 0 -142.5 -56t-58.5 -146.5z" glyph-name="degree" horiz-adv-x="841" unicode="°"/><glyph d="M160 0q-27 0 -27 27v34q0 27 27 27h542q27 0 27 -27v-34q0 -27 -27 -27h-542zM133 512v57q0 27 29 27h215v213q0 29 26 29h58q29 0 28 -29v-213h211q29 0 29 -27v-57q0 -29 -29 -29h-211v-213q0 -29 -28 -28h-58q-27 0 -26 28v213h-215q-29 0 -29 29z" glyph-name="plusminus" horiz-adv-x="862" unicode="±"/><glyph d="M88 674v90l201 203q16 16 47 46.5t42 42t31.5 34t27.5 31.5t18.5 26.5t14.5 30t6 28t3 31.5q0 66 -42 98.5t-111 32.5q-66 0 -108 -37t-42 -114v-41h-94v38q0 109 65.5 174.5t178.5 65.5q117 0 182 -63.5t65 -157.5q0 -49 -27.5 -100.5t-58 -86t-106.5 -108.5l-31 -31 l-143 -143h371v-90h-490z" glyph-name="uni00B2" horiz-adv-x="657" unicode="²"/><glyph d="M344 666q-133 0 -197.5 69.5t-64.5 171.5h92q0 -68 43 -113.5t125 -45.5q74 0 121 36.5t47 104.5q0 86 -59.5 118.5t-167.5 32.5v76q96 0 147 39t51 102q0 113 -147 113q-145 0 -146 -149h-86q-2 106 55.5 169.5t176.5 63.5t177 -55.5t58 -143.5q0 -111 -114 -165 q152 -47 151 -199q0 -100 -71.5 -162.5t-190.5 -62.5z" glyph-name="uni00B3" horiz-adv-x="688" unicode="³"/><glyph d="M53 1141q-37 0 -18 33l112 235q10 25 35 25h66q35 0 16 -33l-114 -236q-14 -25 -35 -24h-62z" glyph-name="acute" horiz-adv-x="299" unicode="´"/><glyph d="M190 -389q-29 0 -28 29v1335q0 29 24 29h72q27 0 27 -29v-586q0 -139 71.5 -218t200.5 -79q133 0 221 81t88 216v586q0 29 25 29h72q27 0 26 -29v-946q0 -29 -26 -29h-64q-27 0 -29 31l-4 131q-104 -186 -311 -187q-186 0 -270 127v-462q0 -29 -29 -29h-66z" glyph-name="uni00B5" unicode="µ"/><glyph d="M918 0q-27 0 -27 29v522h-285q-223 0 -345 121t-122 319.5t122 320.5t345 122h383q29 0 29 -29v-1376q0 -29 -29 -29h-71zM266 991q0 -168 96.5 -246.5t255.5 -78.5h273v653h-273q-160 0 -256 -79t-96 -249zM1202 29v1376q0 29 29 29h72q27 0 26 -29v-1376q0 -29 -26 -29 h-72q-29 0 -29 29z" glyph-name="paragraph" horiz-adv-x="1511" unicode="¶"/><glyph d="M197 500q-39 0 -67 27.5t-28 66.5t28 66.5t67 27.5t66.5 -27.5t27.5 -66.5t-27.5 -66.5t-66.5 -27.5z" glyph-name="periodcentered" horiz-adv-x="393" unicode="·"/><glyph d="M49 -430q-18 4 -18 22v43q0 20 22 21q190 -10 191 88q0 57 -56.5 78.5t-132.5 -2.5q-25 -4 -24 14v39q0 10 10 25l92 102h117l-82 -86q76 -2 127 -44t51 -114q0 -111 -89 -155.5t-208 -30.5z" glyph-name="cedilla" horiz-adv-x="376" unicode="¸"/><glyph d="M170 662v684h-86v88h180v-772h-94z" glyph-name="uni00B9" horiz-adv-x="399" unicode="¹"/><glyph d="M485.5 698q-157.5 0 -266 107.5t-108.5 265.5t108.5 265.5t266 107.5t266 -107.5t108.5 -265.5t-108.5 -265.5t-266 -107.5zM207 1071q0 -117 81 -197.5t197.5 -80.5t196.5 80.5t80 197.5t-80 198t-196.5 81t-197.5 -81t-81 -198z" glyph-name="ordmasculine" horiz-adv-x="970" unicode="º"/><glyph d="M428 324q-8 -6 -17.5 -2t-9.5 16v70q0 16 17 30l170 137l-170 136q-16 14 -17 30v70q0 12 9.5 17.5t17.5 -3.5l217 -176q16 -14 17 -31v-86q0 -18 -17 -32zM104 338v70q0 16 17 30l170 137l-170 136q-16 14 -17 30v70q0 12 9.5 17.5t17.5 -3.5l217 -176q16 -14 17 -31 v-86q0 -18 -17 -32l-217 -176q-8 -6 -17.5 -2t-9.5 16z" glyph-name="guillemotright" horiz-adv-x="765" unicode="»"/><glyph d="M147 662v684h-86v88h181v-772h-95zM201 0l856 1434h100l-856 -1434h-100zM891 182l399 590h94v-504h76v-86h-76v-182h-94v182h-399zM1053 268h237v363z" glyph-name="onequarter" horiz-adv-x="1542" unicode="¼"/><glyph d="M147 662v684h-86v88h181v-772h-95zM201 0l856 1434h100l-856 -1434h-100zM952 502v39q0 109 65.5 174t178.5 65q117 0 182.5 -63.5t65.5 -157.5q0 -49 -27.5 -100t-58.5 -86t-107 -109q-20 -20 -30 -31l-144 -143h371v-90h-490v90l201 203l47 47t42.5 42t31.5 33.5 t27.5 32t18.5 27t14 29.5t6.5 27.5t3.5 31.5q0 66 -42 98.5t-112 32.5q-66 0 -107.5 -36.5t-41.5 -114.5v-41h-95z" glyph-name="onehalf" horiz-adv-x="1527" unicode="½"/><glyph d="M344 666q-133 0 -197.5 69.5t-64.5 171.5h92q0 -68 43 -113.5t125 -45.5q74 0 121 36.5t47 104.5q0 86 -59.5 118.5t-167.5 32.5v76q96 0 147 39t51 102q0 113 -147 113q-145 0 -146 -149h-86q-2 106 55.5 169.5t176.5 63.5t177 -55.5t58 -143.5q0 -111 -114 -165 q152 -47 151 -199q0 -100 -71.5 -162.5t-190.5 -62.5zM360 0l857 1434h100l-856 -1434h-101zM1051 182l399 590h94v-504h76v-86h-76v-182h-94v182h-399zM1212 268h238v363z" glyph-name="threequarters" horiz-adv-x="1701" unicode="¾"/><glyph d="M492 707q27 0 26 -31v-76q0 -96 -32.5 -173t-80 -128t-93.5 -98t-78.5 -107.5t-32.5 -132.5q0 -111 67.5 -169t171.5 -58q188 0 273 192q10 23 47 0l31 -18q27 -18 16 -43q-35 -98 -130 -174t-243 -76q-156 0 -256 88t-100 242q0 86 32.5 156.5t80 121.5t95.5 103.5 t81.5 123t35.5 154.5l3 72q-4 31 24 31h62zM369 997q0 39 27.5 67t66.5 28t66.5 -28t27.5 -67t-27.5 -66.5t-66.5 -27.5t-66.5 27.5t-27.5 66.5z" glyph-name="questiondown" horiz-adv-x="919" unicode="¿"/><glyph d="M137 0q-37 0 -22 35l499 1374q8 25 37 25h88q27 0 37 -25l500 -1374q14 -35 -23 -35h-77q-23 0 -31 25l-113 313h-676l-110 -313q-8 -25 -35 -25h-74zM397 453h594l-297 831zM512 1831q-18 33 18 33h60q23 0 33 -25l118 -235q18 -33 -18 -33h-57q-18 0 -33 24z" glyph-name="Agrave" horiz-adv-x="1390" unicode="À"/><glyph d="M137 0q-37 0 -22 35l499 1374q8 25 37 25h88q27 0 37 -25l500 -1374q14 -35 -23 -35h-77q-23 0 -31 25l-113 313h-676l-110 -313q-8 -25 -35 -25h-74zM397 453h594l-297 831zM651 1604l113 235q10 25 35 25h65q35 0 17 -33l-115 -236q-14 -25 -35 -24h-61q-37 0 -19 33z " glyph-name="Aacute" horiz-adv-x="1390" unicode="Á"/><glyph d="M137 0q-37 0 -22 35l499 1374q8 25 37 25h88q27 0 37 -25l500 -1374q14 -35 -23 -35h-77q-23 0 -31 25l-113 313h-676l-110 -313q-8 -25 -35 -25h-74zM397 453h594l-297 831zM446 1636l172 211q14 16 33 17h90q16 0 31 -17l174 -211q8 -8 3 -17t-17 -9h-68q-18 0 -33 16 l-135 168l-135 -168q-14 -16 -33 -16h-67q-14 0 -18.5 9t3.5 17z" glyph-name="Acircumflex" horiz-adv-x="1390" unicode="Â"/><glyph d="M137 0q-37 0 -22 35l499 1374q8 25 37 25h88q27 0 37 -25l500 -1374q14 -35 -23 -35h-77q-23 0 -31 25l-113 313h-676l-110 -313q-8 -25 -35 -25h-74zM397 453h594l-297 831zM408 1759q2 66 49 105t110 39q72 0 141.5 -63.5t114.5 -63.5q31 0 50.5 16t23.5 41q4 18 23 18 h51q20 0 20 -20q-2 -70 -48 -109t-112 -39q-72 0 -141 63.5t-115 63.5q-31 0 -50 -16t-23 -41q-2 -18 -23 -18h-53q-18 -1 -18 24z" glyph-name="Atilde" horiz-adv-x="1390" unicode="Ã"/><glyph d="M137 0q-37 0 -22 35l499 1374q8 25 37 25h88q27 0 37 -25l500 -1374q14 -35 -23 -35h-77q-23 0 -31 25l-113 313h-676l-110 -313q-8 -25 -35 -25h-74zM397 453h594l-297 831zM440 1798q0 31 22.5 53.5t55.5 22.5t55.5 -22.5t22.5 -53.5t-22.5 -53.5t-55.5 -22.5 t-55.5 22.5t-22.5 53.5zM797 1798q0 31 23.5 53.5t53.5 22.5q33 0 55.5 -22.5t22.5 -53.5t-22.5 -53.5t-55.5 -22.5q-31 0 -54 22.5t-23 53.5z" glyph-name="Adieresis" horiz-adv-x="1390" unicode="Ä"/><glyph d="M137 0q-37 0 -22 35l499 1374q8 25 37 25h88q27 0 37 -25l500 -1374q14 -35 -23 -35h-77q-23 0 -31 25l-113 313h-676l-110 -313q-8 -25 -35 -25h-74zM397 453h594l-297 831zM541 1741q0 66 45 108.5t110.5 42.5t110.5 -43t45 -108q0 -63 -45 -107.5t-110.5 -44.5 t-110.5 44.5t-45 107.5zM637 1740.5q0 -26.5 16.5 -43t42.5 -16.5q25 0 42.5 16.5t17.5 43t-17.5 43t-42.5 16.5q-27 0 -43 -16.5t-16 -43z" glyph-name="Aring" horiz-adv-x="1390" unicode="Å"/><glyph d="M137 0q-39 0 -22 35l704 1374q16 25 39 25h750q29 0 28 -29v-59q0 -27 -28 -27h-580v-518h551q27 0 27 -29v-59q0 -29 -27 -29h-551v-567h582q29 0 28 -29v-59q0 -29 -28 -29h-680q-29 0 -29 29v338h-481l-172 -342q-10 -25 -35 -25h-76zM481 483h420v832z" glyph-name="AE" horiz-adv-x="1800" unicode="Æ"/><glyph d="M721 -430q-18 4 -19 22v43q0 20 23 21q190 -10 190 88q0 57 -56 78.5t-132 -2.5q-25 -4 -25 14v39q0 10 11 25l71 79q-285 29 -464 236t-179 498q0 313 205 526t520 213q274 0 482 -180q27 -27 6 -49l-41 -47q-20 -20 -45 0q-178 152 -398 151q-258 0 -429 -174 t-171 -440q0 -264 171 -438.5t429 -174.5q219 0 398 152q25 20 43 2l43 -49q23 -18 -6 -47q-195 -170 -451 -183l-57 -59q76 -2 127 -44t51 -114q0 -111 -89 -155.5t-208 -30.5z" glyph-name="Ccedilla" horiz-adv-x="1495" unicode="Ç"/><glyph d="M211 0q-29 0 -29 29v1376q0 29 29 29h678q29 0 29 -29v-59q0 -27 -29 -27h-580v-518h551q27 0 27 -29v-59q0 -29 -27 -29h-551v-567h582q29 0 29 -29v-59q0 -29 -29 -29h-680zM375 1831q-18 33 18 33h60q23 0 32 -25l119 -235q18 -33 -18 -33h-58q-18 0 -32 24z" glyph-name="Egrave" horiz-adv-x="1081" unicode="È"/><glyph d="M211 0q-29 0 -29 29v1376q0 29 29 29h678q29 0 29 -29v-59q0 -27 -29 -27h-580v-518h551q27 0 27 -29v-59q0 -29 -27 -29h-551v-567h582q29 0 29 -29v-59q0 -29 -29 -29h-680zM516 1604l113 235q10 25 35 25h65q35 0 16 -33l-114 -236q-14 -25 -35 -24h-61q-37 0 -19 33z " glyph-name="Eacute" horiz-adv-x="1081" unicode="É"/><glyph d="M211 0q-29 0 -29 29v1376q0 29 29 29h678q29 0 29 -29v-59q0 -27 -29 -27h-580v-518h551q27 0 27 -29v-59q0 -29 -27 -29h-551v-567h582q29 0 29 -29v-59q0 -29 -29 -29h-680zM309 1636l172 211q14 16 33 17h90q16 0 31 -17l174 -211q8 -8 3 -17t-17 -9h-68q-18 0 -33 16 l-135 168l-135 -168q-14 -16 -33 -16h-67q-14 0 -18.5 9t3.5 17z" glyph-name="Ecircumflex" horiz-adv-x="1081" unicode="Ê"/><glyph d="M211 0q-29 0 -29 29v1376q0 29 29 29h678q29 0 29 -29v-59q0 -27 -29 -27h-580v-518h551q27 0 27 -29v-59q0 -29 -27 -29h-551v-567h582q29 0 29 -29v-59q0 -29 -29 -29h-680zM305 1798q0 31 22.5 53.5t55.5 22.5t55.5 -22.5t22.5 -53.5t-22.5 -53.5t-55.5 -22.5 t-55.5 22.5t-22.5 53.5zM662 1798q0 31 23.5 53.5t53.5 22.5q33 0 55.5 -22.5t22.5 -53.5t-22.5 -53.5t-55.5 -22.5q-31 0 -54 22.5t-23 53.5z" glyph-name="Edieresis" horiz-adv-x="1081" unicode="Ë"/><glyph d="M211 0q-29 0 -29 29v1376q0 29 29 29h72q27 0 26 -29v-1376q0 -29 -26 -29h-72zM61 1831q-18 33 19 33h59q23 0 33 -25l119 -235q18 -33 -19 -33h-57q-18 0 -33 24z" glyph-name="Igrave" horiz-adv-x="491" unicode="Ì"/><glyph d="M211 0q-29 0 -29 29v1376q0 29 29 29h72q27 0 26 -29v-1376q0 -29 -26 -29h-72zM203 1604l112 235q10 25 35 25h66q35 0 16 -33l-115 -236q-14 -25 -34 -24h-62q-36 0 -18 33z" glyph-name="Iacute" horiz-adv-x="491" unicode="Í"/><glyph d="M211 0q-29 0 -29 29v1376q0 29 29 29h72q27 0 26 -29v-1376q0 -29 -26 -29h-72zM-4 1636l172 211q14 16 33 17h90q16 0 31 -17l174 -211q8 -8 3 -17t-18 -9h-67q-18 0 -33 16l-135 168l-135 -168q-14 -16 -33 -16h-68q-14 0 -18 9t4 17z" glyph-name="Icircumflex" horiz-adv-x="491" unicode="Î"/><glyph d="M211 0q-29 0 -29 29v1376q0 29 29 29h72q27 0 26 -29v-1376q0 -29 -26 -29h-72zM-10 1798q0 31 22.5 53.5t55 22.5t55 -22.5t22.5 -53.5t-22.5 -53.5t-55 -22.5t-55 22.5t-22.5 53.5zM346 1798q0 31 23.5 53.5t54.5 22.5q33 0 55.5 -22.5t22.5 -53.5t-22.5 -53.5 t-55.5 -22.5q-31 0 -54.5 22.5t-23.5 53.5z" glyph-name="Idieresis" horiz-adv-x="491" unicode="Ï"/><glyph d="M227 0q-29 0 -28 29v639h-119q-29 0 -29 28v47q0 29 29 29h119v633q0 29 28 29h293q362 0 544.5 -197t182.5 -520.5t-182 -520t-545 -196.5h-293zM326 117h192q305 0 452.5 156.5t147.5 443.5t-147.5 444.5t-452.5 157.5h-192v-547h301q29 0 28 -29v-47q0 -29 -28 -28 h-301v-551z" glyph-name="Eth" horiz-adv-x="1378" unicode="Ð"/><glyph d="M1044 0q-25 0 -36 20l-699 1240v-1231q0 -29 -26 -29h-72q-29 0 -29 29v1376q0 29 29 29h104q25 0 37 -21l699 -1239v1231q0 29 28 29h72q27 0 27 -29v-1376q0 -29 -27 -29h-107zM391 1759q2 66 49 105t111 39q72 0 141.5 -63.5t114.5 -63.5q31 0 50.5 16t23.5 41 q4 18 22 18h51q20 0 21 -20q-2 -70 -48 -109t-112 -39q-72 0 -141.5 63.5t-114.5 63.5q-31 0 -50.5 -16t-23.5 -41q-2 -18 -22 -18h-53q-19 -1 -19 24z" glyph-name="Ntilde" horiz-adv-x="1359" unicode="Ñ"/><glyph d="M872.5 -27q-309.5 0 -520.5 213t-211 524.5t211 525.5t520.5 214t521.5 -214t212 -525.5t-212 -524.5t-521.5 -213zM270 711q0 -262 173 -437.5t429 -175.5q258 0 431.5 175.5t173.5 437.5q0 264 -173.5 439t-431.5 175t-430 -175t-172 -439zM690 1831q-18 33 19 33h59 q23 0 33 -25l119 -235q18 -33 -19 -33h-57q-18 0 -33 24z" glyph-name="Ograve" horiz-adv-x="1746" unicode="Ò"/><glyph d="M872.5 -27q-309.5 0 -520.5 213t-211 524.5t211 525.5t520.5 214t521.5 -214t212 -525.5t-212 -524.5t-521.5 -213zM270 711q0 -262 173 -437.5t429 -175.5q258 0 431.5 175.5t173.5 437.5q0 264 -173.5 439t-431.5 175t-430 -175t-172 -439zM829 1604l113 235 q10 25 35 25h65q35 0 17 -33l-115 -236q-14 -25 -35 -24h-61q-37 0 -19 33z" glyph-name="Oacute" horiz-adv-x="1746" unicode="Ó"/><glyph d="M872.5 -27q-309.5 0 -520.5 213t-211 524.5t211 525.5t520.5 214t521.5 -214t212 -525.5t-212 -524.5t-521.5 -213zM270 711q0 -262 173 -437.5t429 -175.5q258 0 431.5 175.5t173.5 437.5q0 264 -173.5 439t-431.5 175t-430 -175t-172 -439zM625 1636l172 211 q14 16 32 17h91q16 0 30 -17l174 -211q8 -8 3 -17t-17 -9h-68q-18 0 -32 16l-136 168l-135 -168q-14 -16 -32 -16h-68q-14 0 -18 9t4 17z" glyph-name="Ocircumflex" horiz-adv-x="1746" unicode="Ô"/><glyph d="M872.5 -27q-309.5 0 -520.5 213t-211 524.5t211 525.5t520.5 214t521.5 -214t212 -525.5t-212 -524.5t-521.5 -213zM270 711q0 -262 173 -437.5t429 -175.5q258 0 431.5 175.5t173.5 437.5q0 264 -173.5 439t-431.5 175t-430 -175t-172 -439zM586 1759q2 66 48 105 t111 39q72 0 141.5 -63.5t114.5 -63.5q31 0 50.5 16t23.5 41q2 18 23 18h51q20 0 20 -20q-2 -70 -48 -109t-111 -39q-72 0 -141.5 63.5t-114.5 63.5q-31 0 -50.5 -16t-23.5 -41q-4 -18 -23 -18h-53q-18 -1 -18 24z" glyph-name="Otilde" horiz-adv-x="1746" unicode="Õ"/><glyph d="M872.5 -27q-309.5 0 -520.5 213t-211 524.5t211 525.5t520.5 214t521.5 -214t212 -525.5t-212 -524.5t-521.5 -213zM270 711q0 -262 173 -437.5t429 -175.5q258 0 431.5 175.5t173.5 437.5q0 264 -173.5 439t-431.5 175t-430 -175t-172 -439zM618 1798q0 31 23 53.5 t55.5 22.5t55 -22.5t22.5 -53.5t-22.5 -53.5t-55 -22.5t-55.5 22.5t-23 53.5zM975 1798q0 31 23.5 53.5t54.5 22.5q33 0 55 -22.5t22 -53.5t-22.5 -53.5t-54.5 -22.5q-31 0 -54.5 22.5t-23.5 53.5z" glyph-name="Odieresis" horiz-adv-x="1746" unicode="Ö"/><glyph d="M143 389q-20 20 2 39l150 150l-152 153q-20 18 0 39l41 41q18 20 39 0l152 -154l151 152q20 20 39 2l41 -41q18 -23 0 -41l-151 -151l149 -148q18 -23 2 -41l-41 -39q-20 -25 -41 0l-149 150l-150 -152q-23 -18 -41 0z" glyph-name="multiply" horiz-adv-x="745" unicode="×"/><glyph d="M494 -102q-35 0 -19 36l53 121q-176 94 -281.5 268.5t-105.5 387.5q0 311 211 525t520 214q133 0 258 -45l44 98q10 23 30 23h51q35 0 19 -37l-55 -123q178 -94 282.5 -268t104.5 -387q0 -311 -212 -524.5t-522 -213.5q-129 0 -254 43l-43 -96q-10 -23 -30 -22h-51z M270 711q0 -176 84 -319.5t226 -221.5l499 1120q-98 35 -207 35q-258 0 -430 -175t-172 -439zM670 131q102 -33 202 -33q258 0 431.5 175.5t173.5 437.5q0 178 -83 321.5t-227 218.5z" glyph-name="Oslash" horiz-adv-x="1746" unicode="Ø"/><glyph d="M639 -27q-211 0 -339 128t-128 358v946q0 29 29 29h71q27 0 27 -29v-928q0 -188 92 -283.5t248 -95.5q154 0 246 95.5t92 283.5v928q0 29 29 29h71q29 0 29 -29v-946q0 -229 -127 -357.5t-340 -128.5zM455 1831q-18 33 18 33h59q23 0 33 -25l119 -235q18 -33 -18 -33h-58 q-18 0 -33 24z" glyph-name="Ugrave" horiz-adv-x="1277" unicode="Ù"/><glyph d="M639 -27q-211 0 -339 128t-128 358v946q0 29 29 29h71q27 0 27 -29v-928q0 -188 92 -283.5t248 -95.5q154 0 246 95.5t92 283.5v928q0 29 29 29h71q29 0 29 -29v-946q0 -229 -127 -357.5t-340 -128.5zM596 1604l113 235q10 25 34 25h66q35 0 16 -33l-114 -236 q-14 -25 -35 -24h-62q-36 0 -18 33z" glyph-name="Uacute" horiz-adv-x="1277" unicode="Ú"/><glyph d="M639 -27q-211 0 -339 128t-128 358v946q0 29 29 29h71q27 0 27 -29v-928q0 -188 92 -283.5t248 -95.5q154 0 246 95.5t92 283.5v928q0 29 29 29h71q29 0 29 -29v-946q0 -229 -127 -357.5t-340 -128.5zM389 1636l172 211q14 16 33 17h90q16 0 31 -17l174 -211q8 -8 3 -17 t-18 -9h-67q-18 0 -33 16l-135 168l-135 -168q-14 -16 -33 -16h-68q-14 0 -18 9t4 17z" glyph-name="Ucircumflex" horiz-adv-x="1277" unicode="Û"/><glyph d="M639 -27q-211 0 -339 128t-128 358v946q0 29 29 29h71q27 0 27 -29v-928q0 -188 92 -283.5t248 -95.5q154 0 246 95.5t92 283.5v928q0 29 29 29h71q29 0 29 -29v-946q0 -229 -127 -357.5t-340 -128.5zM383 1798q0 31 22.5 53.5t55.5 22.5t55.5 -22.5t22.5 -53.5 t-22.5 -53.5t-55.5 -22.5t-55.5 22.5t-22.5 53.5zM739 1798q0 31 23.5 53.5t54.5 22.5q33 0 55.5 -22.5t22.5 -53.5t-22.5 -53.5t-55.5 -22.5q-31 0 -54.5 22.5t-23.5 53.5z" glyph-name="Udieresis" horiz-adv-x="1277" unicode="Ü"/><glyph d="M569 0q-29 0 -28 29v663l-424 705q-10 16 -5 26.5t23 10.5h82q20 0 33 -21l356 -598l355 598q12 20 34 21h82q39 0 17 -37l-424 -705v-663q0 -29 -29 -29h-72zM561 1604l113 235q10 25 35 25h65q35 0 17 -33l-115 -236q-14 -25 -35 -24h-61q-37 0 -19 33z" glyph-name="Yacute" horiz-adv-x="1210" unicode="Ý"/><glyph d="M211 0q-29 0 -29 29v1376q0 29 29 29h72q27 0 26 -29v-250h266q221 0 341 -123t120 -315.5t-119.5 -315t-341.5 -122.5h-266v-250q0 -29 -26 -29h-72zM309 399h254q160 0 254 77t94 241t-94 240.5t-254 76.5h-254v-635z" glyph-name="Thorn" horiz-adv-x="1157" unicode="Þ"/><glyph d="M207 0q-25 0 -25 29v1061q0 360 398 360q199 0 299 -93t100 -253q0 -244 -227 -309q309 -55 309 -398q0 -207 -115 -302t-364 -95h-131q-27 0 -27 29v47q0 29 27 28h131q188 0 274 70t86 232q0 164 -86 242.5t-276 78.5h-129q-27 0 -27 29v47q0 29 27 28h112 q141 0 218 69t77 194q0 244 -278 243q-156 0 -215.5 -67.5t-59.5 -186.5v-1054q0 -29 -26 -29h-72z" glyph-name="germandbls" horiz-adv-x="1169" unicode="ß"/><glyph d="M608 -25q-219 0 -358 149.5t-139 377t139 377t358 149.5q135 0 236.5 -61.5t159.5 -169.5l4 178q0 29 26 29h66q27 0 26 -29v-946q0 -29 -26 -29h-66q-27 0 -26 29l-4 174q-120 -228 -396 -228zM229 501.5q0 -182.5 110 -296t284 -113.5q170 0 276.5 111.5t106.5 294.5 q0 184 -106.5 298.5t-276.5 114.5q-172 0 -283 -113.5t-111 -296zM455 1401q-18 33 18 33h59q23 0 33 -25l119 -235q18 -33 -18 -33h-58q-18 0 -33 24z" glyph-name="agrave" horiz-adv-x="1286" unicode="à"/><glyph d="M608 -25q-219 0 -358 149.5t-139 377t139 377t358 149.5q135 0 236.5 -61.5t159.5 -169.5l4 178q0 29 26 29h66q27 0 26 -29v-946q0 -29 -26 -29h-66q-27 0 -26 29l-4 174q-120 -228 -396 -228zM229 501.5q0 -182.5 110 -296t284 -113.5q170 0 276.5 111.5t106.5 294.5 q0 184 -106.5 298.5t-276.5 114.5q-172 0 -283 -113.5t-111 -296zM594 1174l113 235q10 25 34 25h66q35 0 16 -33l-114 -236q-14 -25 -35 -24h-62q-36 0 -18 33z" glyph-name="aacute" horiz-adv-x="1286" unicode="á"/><glyph d="M608 -25q-219 0 -358 149.5t-139 377t139 377t358 149.5q135 0 236.5 -61.5t159.5 -169.5l4 178q0 29 26 29h66q27 0 26 -29v-946q0 -29 -26 -29h-66q-27 0 -26 29l-4 174q-120 -228 -396 -228zM229 501.5q0 -182.5 110 -296t284 -113.5q170 0 276.5 111.5t106.5 294.5 q0 184 -106.5 298.5t-276.5 114.5q-172 0 -283 -113.5t-111 -296zM389 1206l172 211q14 16 33 17h90q16 0 31 -17l174 -211q8 -8 3 -17t-18 -9h-67q-18 0 -33 16l-135 168l-135 -168q-14 -16 -33 -16h-68q-14 0 -18 9t4 17z" glyph-name="acircumflex" horiz-adv-x="1286" unicode="â"/><glyph d="M608 -25q-219 0 -358 149.5t-139 377t139 377t358 149.5q135 0 236.5 -61.5t159.5 -169.5l4 178q0 29 26 29h66q27 0 26 -29v-946q0 -29 -26 -29h-66q-27 0 -26 29l-4 174q-120 -228 -396 -228zM229 501.5q0 -182.5 110 -296t284 -113.5q170 0 276.5 111.5t106.5 294.5 q0 184 -106.5 298.5t-276.5 114.5q-172 0 -283 -113.5t-111 -296zM350 1329q2 66 49 105t111 39q72 0 141.5 -63.5t114.5 -63.5q31 0 50.5 16t23.5 41q4 18 22 18h51q20 0 21 -20q-2 -70 -48 -109t-112 -39q-72 0 -141.5 63.5t-114.5 63.5q-31 0 -50 -16t-24 -41 q-2 -18 -22 -18h-53q-19 -1 -19 24z" glyph-name="atilde" horiz-adv-x="1286" unicode="ã"/><glyph d="M608 -25q-219 0 -358 149.5t-139 377t139 377t358 149.5q135 0 236.5 -61.5t159.5 -169.5l4 178q0 29 26 29h66q27 0 26 -29v-946q0 -29 -26 -29h-66q-27 0 -26 29l-4 174q-120 -228 -396 -228zM229 501.5q0 -182.5 110 -296t284 -113.5q170 0 276.5 111.5t106.5 294.5 q0 184 -106.5 298.5t-276.5 114.5q-172 0 -283 -113.5t-111 -296zM383 1368q0 31 22.5 53.5t55.5 22.5t55.5 -22.5t22.5 -53.5t-22.5 -53.5t-55.5 -22.5t-55.5 22.5t-22.5 53.5zM739 1368q0 31 23.5 53.5t54.5 22.5q33 0 55.5 -22.5t22.5 -53.5t-22.5 -53.5t-55.5 -22.5 q-31 0 -54.5 22.5t-23.5 53.5z" glyph-name="adieresis" horiz-adv-x="1286" unicode="ä"/><glyph d="M608 -25q-219 0 -358 149.5t-139 377t139 377t358 149.5q135 0 236.5 -61.5t159.5 -169.5l4 178q0 29 26 29h66q27 0 26 -29v-946q0 -29 -26 -29h-66q-27 0 -26 29l-4 174q-120 -228 -396 -228zM229 501.5q0 -182.5 110 -296t284 -113.5q170 0 276.5 111.5t106.5 294.5 q0 184 -106.5 298.5t-276.5 114.5q-172 0 -283 -113.5t-111 -296zM483 1311q0 66 45 108.5t111 42.5t111 -43t45 -108q0 -63 -45 -107.5t-111 -44.5t-111 44.5t-45 107.5zM580 1310.5q0 -26.5 16 -43t43 -16.5q25 0 42 16.5t17 43t-17 43t-42 16.5q-27 0 -43 -16.5t-16 -43z " glyph-name="aring" horiz-adv-x="1286" unicode="å"/><glyph d="M604 -25q-219 0 -356 148.5t-137 378.5q0 227 139 376.5t358 149.5q266 0 400 -205l2 152q0 29 26 29h56q25 0 24 -29v-137q143 190 395 190q213 0 340 -140t127 -333q0 -55 -13 -75.5t-54 -20.5h-783q14 -166 124 -271.5t296 -105.5q164 0 299 102q16 16 29 0l29 -37 q14 -20 -9 -43q-135 -129 -358 -129q-174 0 -299 83t-184 223q-53 -139 -171 -222.5t-280 -83.5zM229 501.5q0 -182.5 110 -296t284 -113.5q170 0 276.5 111.5t106.5 294.5q0 184 -106.5 298.5t-276.5 114.5q-172 0 -283 -113.5t-111 -296zM1130 559h740 q-4 160 -102.5 259.5t-258 99.5t-262.5 -97.5t-117 -261.5z" glyph-name="ae" horiz-adv-x="2088" unicode="æ"/><glyph d="M475 -430q-18 4 -18 22v43q0 20 22 21q190 -10 191 88q0 57 -56.5 78.5t-132.5 -2.5q-25 -4 -24 14v39q0 10 10 25l76 84q-188 31 -310 175t-122 345q0 225 149.5 375.5t372.5 150.5q236 0 373 -164q18 -27 4 -41l-39 -37q-23 -25 -45 2q-117 125 -289 125 q-174 0 -290 -114.5t-116 -296.5q0 -180 116 -295t292 -115q174 0 285 121q27 29 49 6l39 -39q14 -14 -4 -39q-127 -158 -355 -166l-59 -61q76 -2 127 -44t51 -114q0 -111 -89 -155.5t-208 -30.5z" glyph-name="ccedilla" horiz-adv-x="1128" unicode="ç"/><glyph d="M639 -25q-240 0 -384 153t-144 378q0 223 140 372.5t361 149.5q213 0 340 -140t127 -333q0 -55 -13 -75.5t-54 -20.5h-783q14 -166 124 -271.5t296 -105.5q164 0 299 102q16 16 29 0l29 -37q14 -20 -9 -43q-135 -129 -358 -129zM231 559h740q-4 160 -102.5 259.5 t-258 99.5t-262.5 -97.5t-117 -261.5zM410 1401q-18 33 18 33h59q23 0 33 -25l119 -235q18 -33 -18 -33h-58q-18 0 -33 24z" glyph-name="egrave" horiz-adv-x="1189" unicode="è"/><glyph d="M639 -25q-240 0 -384 153t-144 378q0 223 140 372.5t361 149.5q213 0 340 -140t127 -333q0 -55 -13 -75.5t-54 -20.5h-783q14 -166 124 -271.5t296 -105.5q164 0 299 102q16 16 29 0l29 -37q14 -20 -9 -43q-135 -129 -358 -129zM231 559h740q-4 160 -102.5 259.5 t-258 99.5t-262.5 -97.5t-117 -261.5zM549 1174l113 235q10 25 34 25h66q35 0 16 -33l-114 -236q-14 -25 -35 -24h-62q-36 0 -18 33z" glyph-name="eacute" horiz-adv-x="1189" unicode="é"/><glyph d="M639 -25q-240 0 -384 153t-144 378q0 223 140 372.5t361 149.5q213 0 340 -140t127 -333q0 -55 -13 -75.5t-54 -20.5h-783q14 -166 124 -271.5t296 -105.5q164 0 299 102q16 16 29 0l29 -37q14 -20 -9 -43q-135 -129 -358 -129zM231 559h740q-4 160 -102.5 259.5 t-258 99.5t-262.5 -97.5t-117 -261.5zM344 1206l172 211q14 16 33 17h90q16 0 31 -17l174 -211q8 -8 3 -17t-18 -9h-67q-18 0 -33 16l-135 168l-135 -168q-14 -16 -33 -16h-68q-14 0 -18 9t4 17z" glyph-name="ecircumflex" horiz-adv-x="1189" unicode="ê"/><glyph d="M639 -25q-240 0 -384 153t-144 378q0 223 140 372.5t361 149.5q213 0 340 -140t127 -333q0 -55 -13 -75.5t-54 -20.5h-783q14 -166 124 -271.5t296 -105.5q164 0 299 102q16 16 29 0l29 -37q14 -20 -9 -43q-135 -129 -358 -129zM231 559h740q-4 160 -102.5 259.5 t-258 99.5t-262.5 -97.5t-117 -261.5zM338 1368q0 31 22.5 53.5t55.5 22.5t55.5 -22.5t22.5 -53.5t-22.5 -53.5t-55.5 -22.5t-55.5 22.5t-22.5 53.5zM694 1368q0 31 23.5 53.5t54.5 22.5q33 0 55.5 -22.5t22.5 -53.5t-22.5 -53.5t-55.5 -22.5q-31 0 -54.5 22.5t-23.5 53.5z " glyph-name="edieresis" horiz-adv-x="1189" unicode="ë"/><glyph d="M152 0q-27 0 -27 29v946q0 29 27 29h71q25 0 25 -29v-946q0 -29 -25 -29h-71zM4 1401q-18 33 19 33h59q23 0 33 -25l118 -235q18 -33 -18 -33h-57q-18 0 -33 24z" glyph-name="igrave" horiz-adv-x="372" unicode="ì"/><glyph d="M152 0q-27 0 -27 29v946q0 29 27 29h71q25 0 25 -29v-946q0 -29 -25 -29h-71zM143 1174l113 235q10 25 35 25h65q35 0 17 -33l-115 -236q-14 -25 -35 -24h-61q-37 0 -19 33z" glyph-name="iacute" horiz-adv-x="372" unicode="í"/><glyph d="M152 0q-27 0 -27 29v946q0 29 27 29h71q25 0 25 -29v-946q0 -29 -25 -29h-71zM-61 1206l172 211q14 16 32 17h90q16 0 31 -17l174 -211q8 -8 3 -17t-17 -9h-68q-18 0 -32 16l-136 168l-135 -168q-14 -16 -33 -16h-67q-14 0 -18 9t4 17z" glyph-name="icircumflex" horiz-adv-x="372" unicode="î"/><glyph d="M152 0q-27 0 -27 29v946q0 29 27 29h71q25 0 25 -29v-946q0 -29 -25 -29h-71zM-68 1368q0 31 22.5 53.5t55.5 22.5t55.5 -22.5t22.5 -53.5t-22.5 -53.5t-55.5 -22.5t-55.5 22.5t-22.5 53.5zM289 1368q0 31 23.5 53.5t54.5 22.5q33 0 55 -22.5t22 -53.5t-22.5 -53.5 t-54.5 -22.5q-31 0 -54.5 22.5t-23.5 53.5z" glyph-name="idieresis" horiz-adv-x="372" unicode="ï"/><glyph d="M805 1124q-33 -4 -33 29v37q0 29 29 33l203 30v183q0 29 24 28h72q27 0 26 -28v-166l50 8q33 4 32 -29v-37q0 -29 -28 -32l-54 -9v-1142q0 -29 -26 -29h-66q-27 0 -26 29l-4 174q-119 -227 -396 -228q-219 0 -358 149.5t-139 377t139 377t358 149.5q133 0 235.5 -60.5 t160.5 -166.5v352zM229 501.5q0 -182.5 110 -296t284 -113.5q170 0 276.5 111.5t106.5 294.5q0 184 -106.5 298.5t-276.5 114.5q-172 0 -283 -113.5t-111 -296z" glyph-name="eth" horiz-adv-x="1208" unicode="ð"/><glyph d="M186 0q-25 0 -24 29v946q0 29 24 29h64q29 0 29 -31l6 -131q104 186 338 186q168 0 267 -105.5t99 -301.5v-592q0 -29 -26 -29h-72q-25 0 -25 29v585q0 139 -72.5 219t-201.5 80q-133 0 -220 -81.5t-87 -217.5v-585q0 -29 -27 -29h-72zM305 1329q2 66 49 105t111 39 q72 0 141.5 -63.5t114.5 -63.5q31 0 50.5 16t23.5 41q4 18 22 18h51q20 0 21 -20q-2 -70 -48 -109t-112 -39q-72 0 -141.5 63.5t-114.5 63.5q-31 0 -50.5 -16t-23.5 -41q-2 -18 -22 -18h-53q-19 -1 -19 24z" glyph-name="ntilde" unicode="ñ"/><glyph d="M623 -25q-219 0 -365.5 152t-146.5 375t146 374.5t366 151.5q217 0 363.5 -150.5t146.5 -376t-146.5 -376t-363.5 -150.5zM231 502q0 -178 111 -294t281 -116q168 0 279.5 116t111.5 294t-111.5 294.5t-279.5 116.5q-170 0 -281 -115.5t-111 -295.5zM438 1401 q-18 33 19 33h59q23 0 33 -25l119 -235q18 -33 -19 -33h-57q-18 0 -33 24z" glyph-name="ograve" horiz-adv-x="1243" unicode="ò"/><glyph d="M623 -25q-219 0 -365.5 152t-146.5 375t146 374.5t366 151.5q217 0 363.5 -150.5t146.5 -376t-146.5 -376t-363.5 -150.5zM231 502q0 -178 111 -294t281 -116q168 0 279.5 116t111.5 294t-111.5 294.5t-279.5 116.5q-170 0 -281 -115.5t-111 -295.5zM578 1174l112 235 q10 25 35 25h66q35 0 16 -33l-115 -236q-14 -25 -35 -24h-61q-36 0 -18 33z" glyph-name="oacute" horiz-adv-x="1243" unicode="ó"/><glyph d="M623 -25q-219 0 -365.5 152t-146.5 375t146 374.5t366 151.5q217 0 363.5 -150.5t146.5 -376t-146.5 -376t-363.5 -150.5zM231 502q0 -178 111 -294t281 -116q168 0 279.5 116t111.5 294t-111.5 294.5t-279.5 116.5q-170 0 -281 -115.5t-111 -295.5zM373 1206l172 211 q14 16 33 17h90q16 0 30 -17l174 -211q8 -8 3 -17t-17 -9h-67q-18 0 -33 16l-135 168l-136 -168q-14 -16 -32 -16h-68q-14 0 -18 9t4 17z" glyph-name="ocircumflex" horiz-adv-x="1243" unicode="ô"/><glyph d="M623 -25q-219 0 -365.5 152t-146.5 375t146 374.5t366 151.5q217 0 363.5 -150.5t146.5 -376t-146.5 -376t-363.5 -150.5zM231 502q0 -178 111 -294t281 -116q168 0 279.5 116t111.5 294t-111.5 294.5t-279.5 116.5q-170 0 -281 -115.5t-111 -295.5zM334 1329 q2 66 49 105t111 39q72 0 141.5 -63.5t114.5 -63.5q31 0 50 16t23 41q4 18 23 18h51q20 0 21 -20q-2 -70 -48.5 -109t-111.5 -39q-72 0 -141.5 63.5t-114.5 63.5q-31 0 -50.5 -16t-23.5 -41q-2 -18 -22 -18h-54q-18 -1 -18 24z" glyph-name="otilde" horiz-adv-x="1243" unicode="õ"/><glyph d="M623 -25q-219 0 -365.5 152t-146.5 375t146 374.5t366 151.5q217 0 363.5 -150.5t146.5 -376t-146.5 -376t-363.5 -150.5zM231 502q0 -178 111 -294t281 -116q168 0 279.5 116t111.5 294t-111.5 294.5t-279.5 116.5q-170 0 -281 -115.5t-111 -295.5zM367 1368 q0 31 22.5 53.5t55 22.5t55 -22.5t22.5 -53.5t-22.5 -53.5t-55 -22.5t-55 22.5t-22.5 53.5zM723 1368q0 31 23.5 53.5t54.5 22.5q33 0 55.5 -22.5t22.5 -53.5t-22.5 -53.5t-55.5 -22.5q-31 0 -54.5 22.5t-23.5 53.5z" glyph-name="odieresis" horiz-adv-x="1243" unicode="ö"/><glyph d="M164 524q-31 0 -31 31v51q0 31 31 31h575q31 0 31 -31v-51q0 -31 -31 -31h-575zM358 307q0 37 27 64.5t65.5 27.5t66.5 -27.5t28 -64.5q0 -39 -28 -66.5t-66.5 -27.5t-65.5 27.5t-27 66.5zM358 860q0 39 27 66.5t65.5 27.5t66.5 -27.5t28 -66.5t-28 -65.5t-66.5 -26.5 t-65.5 26.5t-27 65.5z" glyph-name="divide" horiz-adv-x="903" unicode="÷"/><glyph d="M315 -143q-33 0 -16 37l68 147q-119 70 -187.5 190.5t-68.5 270.5q0 223 146 374.5t366 151.5q98 0 180 -31l55 123q10 23 31 23h39q33 0 16 -37l-65 -143q117 -70 185.5 -191t68.5 -270q0 -225 -146.5 -376t-363.5 -151q-98 0 -181 31l-59 -127q-10 -23 -33 -22h-35z M231 502q0 -117 49.5 -209t135.5 -143l338 741q-63 23 -131 22q-170 0 -281 -115.5t-111 -295.5zM489 113q68 -20 134 -21q168 0 279.5 116t111.5 294q0 240 -185 354z" glyph-name="oslash" horiz-adv-x="1243" unicode="ø"/><glyph d="M526 -25q-168 0 -266 106.5t-98 303.5v590q0 29 24 29h72q27 0 27 -29v-586q0 -139 71.5 -218t200.5 -79q133 0 221 81t88 216v586q0 29 25 29h72q27 0 26 -29v-946q0 -29 -26 -29h-64q-27 0 -29 31l-4 131q-104 -187 -340 -187zM393 1401q-18 33 19 33h59q23 0 33 -25 l119 -235q18 -33 -19 -33h-57q-18 0 -33 24z" glyph-name="ugrave" unicode="ù"/><glyph d="M526 -25q-168 0 -266 106.5t-98 303.5v590q0 29 24 29h72q27 0 27 -29v-586q0 -139 71.5 -218t200.5 -79q133 0 221 81t88 216v586q0 29 25 29h72q27 0 26 -29v-946q0 -29 -26 -29h-64q-27 0 -29 31l-4 131q-104 -187 -340 -187zM535 1174l112 235q10 25 35 25h66 q35 0 16 -33l-115 -236q-14 -25 -35 -24h-61q-36 0 -18 33z" glyph-name="uacute" unicode="ú"/><glyph d="M526 -25q-168 0 -266 106.5t-98 303.5v590q0 29 24 29h72q27 0 27 -29v-586q0 -139 71.5 -218t200.5 -79q133 0 221 81t88 216v586q0 29 25 29h72q27 0 26 -29v-946q0 -29 -26 -29h-64q-27 0 -29 31l-4 131q-104 -187 -340 -187zM328 1206l172 211q14 16 32 17h91 q16 0 30 -17l174 -211q8 -8 3 -17t-17 -9h-68q-18 0 -32 16l-135 168l-136 -168q-14 -16 -32 -16h-68q-14 0 -18 9t4 17z" glyph-name="ucircumflex" unicode="û"/><glyph d="M526 -25q-168 0 -266 106.5t-98 303.5v590q0 29 24 29h72q27 0 27 -29v-586q0 -139 71.5 -218t200.5 -79q133 0 221 81t88 216v586q0 29 25 29h72q27 0 26 -29v-946q0 -29 -26 -29h-64q-27 0 -29 31l-4 131q-104 -187 -340 -187zM324 1368q0 31 22.5 53.5t55 22.5 t55 -22.5t22.5 -53.5t-22.5 -53.5t-55 -22.5t-55 22.5t-22.5 53.5zM680 1368q0 31 23.5 53.5t54.5 22.5q33 0 55.5 -22.5t22.5 -53.5t-22.5 -53.5t-55.5 -22.5q-31 0 -54.5 22.5t-23.5 53.5z" glyph-name="udieresis" unicode="ü"/><glyph d="M369 -389q-31 0 -21 29l141 356l-385 973q-12 35 23 35h70q25 0 32 -25l324 -844l324 844q8 25 30 25h72q35 0 22 -35l-528 -1334q-10 -25 -35 -24h-69zM510 1174l113 235q10 25 34 25h66q35 0 16 -33l-114 -236q-14 -25 -35 -24h-62q-36 0 -18 33z" glyph-name="yacute" horiz-adv-x="1105" unicode="ý"/><glyph d="M186 -389q-25 0 -24 29v1796q0 29 24 28h72q27 0 27 -28v-635q119 221 395 227q219 0 358.5 -149.5t139.5 -377t-139.5 -377t-358.5 -149.5q-270 0 -395 224v-559q0 -29 -27 -29h-72zM283 498q0 -182 106.5 -294t276.5 -112q172 0 281.5 113.5t109.5 296t-109.5 296 t-281.5 113.5q-170 0 -276.5 -114.5t-106.5 -298.5z" glyph-name="thorn" horiz-adv-x="1286" unicode="þ"/><glyph d="M369 -389q-31 0 -21 29l141 356l-385 973q-12 35 23 35h70q25 0 32 -25l324 -844l324 844q8 25 30 25h72q35 0 22 -35l-528 -1334q-10 -25 -35 -24h-69zM299 1368q0 31 22.5 53.5t55.5 22.5t55.5 -22.5t22.5 -53.5t-22.5 -53.5t-55.5 -22.5t-55.5 22.5t-22.5 53.5z M655 1368q0 31 23.5 53.5t54.5 22.5q33 0 55.5 -22.5t22.5 -53.5t-22.5 -53.5t-55.5 -22.5q-31 0 -54.5 22.5t-23.5 53.5z" glyph-name="ydieresis" horiz-adv-x="1105" unicode="ÿ"/><glyph d="M137 0q-37 0 -22 35l499 1374q8 25 37 25h88q27 0 37 -25l500 -1374q14 -35 -23 -35h-77q-23 0 -31 25l-113 313h-676l-110 -313q-8 -25 -35 -25h-74zM393 1788v47q0 29 29 29h547q29 0 28 -29v-47q0 -29 -28 -29h-547q-29 0 -29 29zM397 453h594l-297 831z" glyph-name="Amacron" horiz-adv-x="1390" unicode="Ā"/><glyph d="M608 -25q-219 0 -358 149.5t-139 377t139 377t358 149.5q135 0 236.5 -61.5t159.5 -169.5l4 178q0 29 26 29h66q27 0 26 -29v-946q0 -29 -26 -29h-66q-27 0 -26 29l-4 174q-120 -228 -396 -228zM229 501.5q0 -182.5 110 -296t284 -113.5q170 0 276.5 111.5t106.5 294.5 q0 184 -106.5 298.5t-276.5 114.5q-172 0 -283 -113.5t-111 -296zM336 1358v47q0 29 29 29h546q29 0 29 -29v-47q0 -29 -29 -29h-546q-29 0 -29 29z" glyph-name="amacron" horiz-adv-x="1286" unicode="ā"/><glyph d="M137 0q-37 0 -22 35l499 1374q8 25 37 25h88q27 0 37 -25l500 -1374q14 -35 -23 -35h-77q-23 0 -31 25l-113 313h-676l-110 -313q-8 -25 -35 -25h-74zM397 453h594l-297 831zM424 1833q-2 31 29 31h39q29 0 32 -29q8 -66 53.5 -104.5t117 -38.5t116.5 38.5t55 104.5 q4 29 33 29h39q33 0 29 -31q-6 -102 -80 -168t-193 -66q-117 0 -190.5 66t-79.5 168z" glyph-name="Abreve" horiz-adv-x="1390" unicode="Ă"/><glyph d="M608 -25q-219 0 -358 149.5t-139 377t139 377t358 149.5q135 0 236.5 -61.5t159.5 -169.5l4 178q0 29 26 29h66q27 0 26 -29v-946q0 -29 -26 -29h-66q-27 0 -26 29l-4 174q-120 -228 -396 -228zM229 501.5q0 -182.5 110 -296t284 -113.5q170 0 276.5 111.5t106.5 294.5 q0 184 -106.5 298.5t-276.5 114.5q-172 0 -283 -113.5t-111 -296zM367 1403q-2 31 28 31h39q29 0 33 -29q8 -66 53 -104.5t117 -38.5t117 38.5t55 104.5q4 29 33 29h39q33 0 28 -31q-6 -102 -79.5 -168t-192.5 -66q-117 0 -190.5 66t-79.5 168z" glyph-name="abreve" horiz-adv-x="1286" unicode="ă"/><glyph d="M137 0q-37 0 -22 35l499 1374q8 25 37 25h88q27 0 37 -25l500 -1374q14 -35 -23 -35q-92 0 -158.5 -57.5t-66.5 -145.5q0 -74 52.5 -105.5t140.5 -13.5v-84q-88 -39 -194.5 7.5t-106.5 175.5q0 98 63.5 166.5t155.5 99.5l-107 295h-676l-110 -313q-8 -25 -35 -25h-74z M397 453h594l-297 831z" glyph-name="Aogonek" horiz-adv-x="1390" unicode="Ą"/><glyph d="M1057 -406q-88 -39 -194.5 7.5t-106.5 175.5q0 109 74.5 179.5t177.5 96.5l-4 150q-119 -227 -396 -228q-219 0 -358 149.5t-139 377t139 377t358 149.5q135 0 236.5 -61.5t159.5 -169.5l4 178q0 29 26 29h66q27 0 26 -29v-946q0 -29 -26 -29h-8q-96 -4 -163 -60.5 t-67 -142.5q0 -74 53.5 -105.5t141.5 -13.5v-84zM229 501.5q0 -182.5 110 -296t284 -113.5q170 0 276.5 111.5t106.5 294.5q0 184 -106.5 298.5t-276.5 114.5q-172 0 -283 -113.5t-111 -296z" glyph-name="aogonek" horiz-adv-x="1286" unicode="ą"/><glyph d="M866 -27q-315 0 -520 212t-205 525.5t205 526.5t520 213q274 0 482 -180q27 -27 6 -49l-41 -47q-20 -20 -45 0q-178 152 -398 151q-258 0 -429 -174t-171 -440q0 -264 171 -438.5t429 -174.5q219 0 398 152q25 20 43 2l43 -49q23 -18 -6 -47q-206 -183 -482 -183z M815 1604l113 235q10 25 35 25h65q35 0 16 -33l-114 -236q-14 -25 -35 -24h-61q-37 0 -19 33z" glyph-name="Cacute" horiz-adv-x="1495" unicode="Ć"/><glyph d="M631 -25q-221 0 -370.5 150.5t-149.5 376t149.5 376t372.5 150.5q236 0 373 -164q18 -27 4 -41l-39 -37q-23 -25 -45 2q-117 125 -289 125q-174 0 -290 -114.5t-116 -296.5q0 -180 116 -295t292 -115q174 0 285 121q27 29 49 6l39 -39q14 -14 -4 -39q-137 -166 -377 -166 zM569 1174l113 235q10 25 35 25h65q35 0 17 -33l-115 -236q-14 -25 -35 -24h-61q-37 0 -19 33z" glyph-name="cacute" horiz-adv-x="1128" unicode="ć"/><glyph d="M866 -27q-315 0 -520 212t-205 525.5t205 526.5t520 213q274 0 482 -180q27 -27 6 -49l-41 -47q-20 -20 -45 0q-178 152 -398 151q-258 0 -429 -174t-171 -440q0 -264 171 -438.5t429 -174.5q219 0 398 152q25 20 43 2l43 -49q23 -18 -6 -47q-206 -183 -482 -183z M610 1636l172 211q14 16 33 17h90q16 0 31 -17l174 -211q8 -8 3 -17t-17 -9h-68q-18 0 -33 16l-135 168l-135 -168q-14 -16 -33 -16h-67q-14 0 -18.5 9t3.5 17z" glyph-name="Ccircumflex" horiz-adv-x="1495" unicode="Ĉ"/><glyph d="M631 -25q-221 0 -370.5 150.5t-149.5 376t149.5 376t372.5 150.5q236 0 373 -164q18 -27 4 -41l-39 -37q-23 -25 -45 2q-117 125 -289 125q-174 0 -290 -114.5t-116 -296.5q0 -180 116 -295t292 -115q174 0 285 121q27 29 49 6l39 -39q14 -14 -4 -39q-137 -166 -377 -166 zM365 1206l172 211q14 16 32 17h90q16 0 31 -17l174 -211q8 -8 3 -17t-17 -9h-68q-18 0 -32 16l-136 168l-135 -168q-14 -16 -33 -16h-67q-14 0 -18 9t4 17z" glyph-name="ccircumflex" horiz-adv-x="1128" unicode="ĉ"/><glyph d="M866 -27q-315 0 -520 212t-205 525.5t205 526.5t520 213q274 0 482 -180q27 -27 6 -49l-41 -47q-20 -20 -45 0q-178 152 -398 151q-258 0 -429 -174t-171 -440q0 -264 171 -438.5t429 -174.5q219 0 398 152q25 20 43 2l43 -49q23 -18 -6 -47q-206 -183 -482 -183z M776 1796q0 35 23.5 58.5t58.5 23.5q33 0 56.5 -23.5t23.5 -58.5t-23.5 -58.5t-56.5 -23.5q-35 0 -58.5 23.5t-23.5 58.5z" glyph-name="Cdotaccent" horiz-adv-x="1495" unicode="Ċ"/><glyph d="M631 -25q-221 0 -370.5 150.5t-149.5 376t149.5 376t372.5 150.5q236 0 373 -164q18 -27 4 -41l-39 -37q-23 -25 -45 2q-117 125 -289 125q-174 0 -290 -114.5t-116 -296.5q0 -180 116 -295t292 -115q174 0 285 121q27 29 49 6l39 -39q14 -14 -4 -39q-137 -166 -377 -166 zM532 1366q0 35 25 58.5t57.5 23.5t56 -23.5t23.5 -58.5t-23.5 -58.5t-56 -23.5t-57.5 23.5t-25 58.5z" glyph-name="cdotaccent" horiz-adv-x="1128" unicode="ċ"/><glyph d="M866 -27q-315 0 -520 212t-205 525.5t205 526.5t520 213q274 0 482 -180q27 -27 6 -49l-41 -47q-20 -20 -45 0q-178 152 -398 151q-258 0 -429 -174t-171 -440q0 -264 171 -438.5t429 -174.5q219 0 398 152q25 20 43 2l43 -49q23 -18 -6 -47q-206 -183 -482 -183z M610 1837q-8 8 -4 17.5t19 9.5h67q18 0 33 -17l135 -168l135 168q14 16 33 17h68q12 0 17 -9.5t-3 -17.5l-174 -211q-14 -16 -31 -16h-90q-18 0 -33 16z" glyph-name="Ccaron" horiz-adv-x="1495" unicode="Č"/><glyph d="M631 -25q-221 0 -370.5 150.5t-149.5 376t149.5 376t372.5 150.5q236 0 373 -164q18 -27 4 -41l-39 -37q-23 -25 -45 2q-117 125 -289 125q-174 0 -290 -114.5t-116 -296.5q0 -180 116 -295t292 -115q174 0 285 121q27 29 49 6l39 -39q14 -14 -4 -39q-137 -166 -377 -166 zM365 1407q-8 8 -4 17.5t18 9.5h67q18 0 33 -17l135 -168l136 168q14 16 32 17h68q12 0 17 -9.5t-3 -17.5l-174 -211q-14 -16 -31 -16h-90q-18 0 -32 16z" glyph-name="ccaron" horiz-adv-x="1128" unicode="č"/><glyph d="M211 0q-29 0 -29 29v1376q0 29 29 29h293q362 0 544.5 -197t182.5 -520.5t-182.5 -520t-544.5 -196.5h-293zM309 117h193q305 0 452.5 156.5t147.5 443.5t-147.5 444.5t-452.5 157.5h-193v-1202zM428 1837q-8 8 -4 17.5t18 9.5h68q18 0 33 -17l135 -168l135 168 q14 16 33 17h67q12 0 17.5 -9.5t-2.5 -17.5l-174 -211q-14 -16 -31 -16h-90q-18 0 -33 16z" glyph-name="Dcaron" horiz-adv-x="1361" unicode="Ď"/><glyph d="M608 -25q-219 0 -358 149.5t-139 377t139 377t358 149.5q133 0 235.5 -60.5t160.5 -166.5v635q0 29 24 28h72q27 0 26 -28v-1407q0 -29 -26 -29h-66q-27 0 -26 29l-4 174q-120 -228 -396 -228zM229 501.5q0 -182.5 110 -296t284 -113.5q170 0 276.5 111.5t106.5 294.5 q0 184 -106.5 298.5t-276.5 114.5q-172 0 -283 -113.5t-111 -296zM1223 1147l112 235q10 25 35 25h66q35 0 16 -33l-115 -235q-14 -25 -34 -25h-62q-36 0 -18 33z" glyph-name="dcaron" horiz-adv-x="1353" unicode="ď"/><glyph d="M227 0q-29 0 -28 29v639h-119q-29 0 -29 28v47q0 29 29 29h119v633q0 29 28 29h293q362 0 544.5 -197t182.5 -520.5t-182 -520t-545 -196.5h-293zM326 117h192q305 0 452.5 156.5t147.5 443.5t-147.5 444.5t-452.5 157.5h-192v-547h301q29 0 28 -29v-47q0 -29 -28 -28 h-301v-551z" glyph-name="Dcroat" horiz-adv-x="1378" unicode="Đ"/><glyph d="M608 -25q-219 0 -358 149.5t-139 377t139 377t358 149.5q133 0 235.5 -60.5t160.5 -166.5v393h-340q-29 0 -29 29v47q0 29 29 28h340v138q0 29 24 28h72q27 0 26 -28v-138h84q29 0 29 -28v-47q0 -29 -29 -29h-84v-1165q0 -29 -26 -29h-66q-27 0 -26 29l-4 174 q-120 -228 -396 -228zM229 501.5q0 -182.5 110 -296t284 -113.5q170 0 276.5 111.5t106.5 294.5q0 184 -106.5 298.5t-276.5 114.5q-172 0 -283 -113.5t-111 -296z" glyph-name="dcroat" horiz-adv-x="1269" unicode="đ"/><glyph d="M211 0q-29 0 -29 29v1376q0 29 29 29h678q29 0 29 -29v-59q0 -27 -29 -27h-580v-518h551q27 0 27 -29v-59q0 -29 -27 -29h-551v-567h582q29 0 29 -29v-59q0 -29 -29 -29h-680zM258 1788v47q0 29 29 29h547q29 0 28 -29v-47q0 -29 -28 -29h-547q-29 0 -29 29z" glyph-name="Emacron" horiz-adv-x="1081" unicode="Ē"/><glyph d="M639 -25q-240 0 -384 153t-144 378q0 223 140 372.5t361 149.5q213 0 340 -140t127 -333q0 -55 -13 -75.5t-54 -20.5h-783q14 -166 124 -271.5t296 -105.5q164 0 299 102q16 16 29 0l29 -37q14 -20 -9 -43q-135 -129 -358 -129zM231 559h740q-4 160 -102.5 259.5 t-258 99.5t-262.5 -97.5t-117 -261.5zM291 1358v47q0 29 28 29h547q29 0 29 -29v-47q0 -29 -29 -29h-547q-28 0 -28 29z" glyph-name="emacron" horiz-adv-x="1189" unicode="ē"/><glyph d="M211 0q-29 0 -29 29v1376q0 29 29 29h678q29 0 29 -29v-59q0 -27 -29 -27h-580v-518h551q27 0 27 -29v-59q0 -29 -27 -29h-551v-567h582q29 0 29 -29v-59q0 -29 -29 -29h-680zM477 1796q0 35 23.5 58.5t58.5 23.5q33 0 56.5 -23.5t23.5 -58.5t-23.5 -58.5t-56.5 -23.5 q-35 0 -58.5 23.5t-23.5 58.5z" glyph-name="Edotaccent" horiz-adv-x="1081" unicode="Ė"/><glyph d="M639 -25q-240 0 -384 153t-144 378q0 223 140 372.5t361 149.5q213 0 340 -140t127 -333q0 -55 -13 -75.5t-54 -20.5h-783q14 -166 124 -271.5t296 -105.5q164 0 299 102q16 16 29 0l29 -37q14 -20 -9 -43q-135 -129 -358 -129zM231 559h740q-4 160 -102.5 259.5 t-258 99.5t-262.5 -97.5t-117 -261.5zM510 1366q0 35 23.5 58.5t58.5 23.5q33 0 56.5 -23.5t23.5 -58.5t-23.5 -58.5t-56.5 -23.5q-35 0 -58.5 23.5t-23.5 58.5z" glyph-name="edotaccent" horiz-adv-x="1189" unicode="ė"/><glyph d="M211 0q-29 0 -29 29v1376q0 29 29 29h678q29 0 29 -29v-59q0 -27 -29 -27h-580v-518h551q27 0 27 -29v-59q0 -29 -27 -29h-551v-567h582q29 0 29 -29v-59q0 -29 -27 -29q-92 0 -158.5 -57.5t-66.5 -145.5q0 -74 52 -105.5t140 -13.5v-84q-88 -39 -194.5 7.5t-106.5 175.5 q0 139 131 223h-479z" glyph-name="Eogonek" horiz-adv-x="1081" unicode="Ę"/><glyph d="M782 -406q-37 -20 -88 -16t-99 20.5t-81 62.5t-33 114q0 119 113 202q-221 14 -352 165t-131 364q0 223 140 372.5t361 149.5q213 0 340 -140t127 -333q0 -55 -13 -75.5t-54 -20.5h-783q14 -166 124 -271.5t296 -105.5q164 0 299 102q16 16 29 0l29 -37q14 -20 -9 -43 q-86 -82 -221 -114q-186 -59 -186 -197q0 -78 51 -105.5t141 -9.5v-84zM231 559h740q-4 160 -102.5 259.5t-258 99.5t-262.5 -97.5t-117 -261.5z" glyph-name="eogonek" horiz-adv-x="1189" unicode="ę"/><glyph d="M211 0q-29 0 -29 29v1376q0 29 29 29h678q29 0 29 -29v-59q0 -27 -29 -27h-580v-518h551q27 0 27 -29v-59q0 -29 -27 -29h-551v-567h582q29 0 29 -29v-59q0 -29 -29 -29h-680zM309 1837q-8 8 -4 17.5t19 9.5h67q18 0 33 -17l135 -168l135 168q14 16 33 17h68 q12 0 17 -9.5t-3 -17.5l-174 -211q-14 -16 -31 -16h-90q-18 0 -33 16z" glyph-name="Ecaron" horiz-adv-x="1081" unicode="Ě"/><glyph d="M639 -25q-240 0 -384 153t-144 378q0 223 140 372.5t361 149.5q213 0 340 -140t127 -333q0 -55 -13 -75.5t-54 -20.5h-783q14 -166 124 -271.5t296 -105.5q164 0 299 102q16 16 29 0l29 -37q14 -20 -9 -43q-135 -129 -358 -129zM231 559h740q-4 160 -102.5 259.5 t-258 99.5t-262.5 -97.5t-117 -261.5zM344 1407q-8 8 -4 17.5t18 9.5h68q18 0 33 -17l135 -168l135 168q14 16 33 17h67q12 0 17.5 -9.5t-2.5 -17.5l-174 -211q-14 -16 -31 -16h-90q-18 0 -33 16z" glyph-name="ecaron" horiz-adv-x="1189" unicode="ě"/><glyph d="M874 -27q-317 0 -525 213t-208 524.5t208 525.5t523 214q281 0 484 -190q20 -16 4 -33l-51 -60q-14 -16 -31 0q-184 158 -406 158q-258 0 -430 -175t-172 -439q0 -262 173 -437.5t431 -175.5q238 0 388.5 145.5t146.5 370.5h-512q-29 0 -29 27v64q0 27 29 26h608 q31 0 31 -31v-51q0 -293 -181.5 -484.5t-480.5 -191.5zM616 1636l172 211q14 16 33 17h90q16 0 31 -17l174 -211q8 -8 3 -17t-17 -9h-68q-18 0 -33 16l-135 168l-135 -168q-14 -16 -33 -16h-67q-14 0 -18.5 9t3.5 17z" glyph-name="Gcircumflex" horiz-adv-x="1656" unicode="Ĝ"/><glyph d="M604 -420q-209 0 -342 92q-25 16 -16 39l26 47q12 18 35 9q121 -80 293 -80q170 0 281.5 86t111.5 272v180q-123 -215 -391 -215q-217 0 -354 142.5t-137 367.5q0 223 137 365.5t350 142.5q274 0 397 -221l2 168q0 29 25 29h68q25 0 24 -29v-940q0 -225 -147.5 -340 t-362.5 -115zM229 520q0 -180 110 -287.5t277.5 -107.5t272 105.5t104.5 283.5q0 180 -104.5 289.5t-272 109.5t-277.5 -108.5t-110 -284.5zM389 1206l172 211q14 16 33 17h90q16 0 31 -17l174 -211q8 -8 3 -17t-18 -9h-67q-18 0 -33 16l-135 168l-135 -168q-14 -16 -33 -16 h-68q-14 0 -18 9t4 17z" glyph-name="gcircumflex" horiz-adv-x="1275" unicode="ĝ"/><glyph d="M874 -27q-317 0 -525 213t-208 524.5t208 525.5t523 214q281 0 484 -190q20 -16 4 -33l-51 -60q-14 -16 -31 0q-184 158 -406 158q-258 0 -430 -175t-172 -439q0 -262 173 -437.5t431 -175.5q238 0 388.5 145.5t146.5 370.5h-512q-29 0 -29 27v64q0 27 29 26h608 q31 0 31 -31v-51q0 -293 -181.5 -484.5t-480.5 -191.5zM596 1833q-2 31 29 31h39q29 0 32 -29q8 -66 53.5 -104.5t117 -38.5t116.5 38.5t55 104.5q4 29 33 29h39q33 0 29 -31q-6 -102 -80 -168t-193 -66q-117 0 -190.5 66t-79.5 168z" glyph-name="Gbreve" horiz-adv-x="1656" unicode="Ğ"/><glyph d="M604 -420q-209 0 -342 92q-25 16 -16 39l26 47q12 18 35 9q121 -80 293 -80q170 0 281.5 86t111.5 272v180q-123 -215 -391 -215q-217 0 -354 142.5t-137 367.5q0 223 137 365.5t350 142.5q274 0 397 -221l2 168q0 29 25 29h68q25 0 24 -29v-940q0 -225 -147.5 -340 t-362.5 -115zM229 520q0 -180 110 -287.5t277.5 -107.5t272 105.5t104.5 283.5q0 180 -104.5 289.5t-272 109.5t-277.5 -108.5t-110 -284.5zM367 1403q-2 31 28 31h39q29 0 33 -29q8 -66 53 -104.5t117 -38.5t117 38.5t55 104.5q4 29 33 29h39q33 0 28 -31 q-6 -102 -79.5 -168t-192.5 -66q-117 0 -190.5 66t-79.5 168z" glyph-name="gbreve" horiz-adv-x="1275" unicode="ğ"/><glyph d="M874 -27q-317 0 -525 213t-208 524.5t208 525.5t523 214q281 0 484 -190q20 -16 4 -33l-51 -60q-14 -16 -31 0q-184 158 -406 158q-258 0 -430 -175t-172 -439q0 -262 173 -437.5t431 -175.5q238 0 388.5 145.5t146.5 370.5h-512q-29 0 -29 27v64q0 27 29 26h608 q31 0 31 -31v-51q0 -293 -181.5 -484.5t-480.5 -191.5zM784 1796q0 35 23.5 58.5t58.5 23.5q33 0 56.5 -23.5t23.5 -58.5t-23.5 -58.5t-56.5 -23.5q-35 0 -58.5 23.5t-23.5 58.5z" glyph-name="Gdotaccent" horiz-adv-x="1656" unicode="Ġ"/><glyph d="M604 -420q-209 0 -342 92q-25 16 -16 39l26 47q12 18 35 9q121 -80 293 -80q170 0 281.5 86t111.5 272v180q-123 -215 -391 -215q-217 0 -354 142.5t-137 367.5q0 223 137 365.5t350 142.5q274 0 397 -221l2 168q0 29 25 29h68q25 0 24 -29v-940q0 -225 -147.5 -340 t-362.5 -115zM229 520q0 -180 110 -287.5t277.5 -107.5t272 105.5t104.5 283.5q0 180 -104.5 289.5t-272 109.5t-277.5 -108.5t-110 -284.5zM555 1366q0 35 23.5 58.5t58.5 23.5q33 0 56.5 -23.5t23.5 -58.5t-23.5 -58.5t-56.5 -23.5q-35 0 -58.5 23.5t-23.5 58.5z" glyph-name="gdotaccent" horiz-adv-x="1275" unicode="ġ"/><glyph d="M874 -27q-317 0 -525 213t-208 524.5t208 525.5t523 214q281 0 484 -190q20 -16 4 -33l-51 -60q-14 -16 -31 0q-184 158 -406 158q-258 0 -430 -175t-172 -439q0 -262 173 -437.5t431 -175.5q238 0 388.5 145.5t146.5 370.5h-512q-29 0 -29 27v64q0 27 29 26h608 q31 0 31 -31v-51q0 -293 -181.5 -484.5t-480.5 -191.5zM756 -485v53q88 2 125 82q27 59 0 82q-6 4 -17 4q-47 -2 -75.5 24.5t-28.5 69.5t29.5 71.5t72.5 28.5q55 0 91 -46t36 -117q0 -98 -63.5 -175t-169.5 -77z" glyph-name="Gcommaaccent" horiz-adv-x="1656" unicode="Ģ"/><glyph d="M604 -420q-209 0 -342 92q-25 16 -16 39l26 47q12 18 35 9q121 -80 293 -80q170 0 281.5 86t111.5 272v180q-123 -215 -391 -215q-217 0 -354 142.5t-137 367.5q0 223 137 365.5t350 142.5q274 0 397 -221l2 168q0 29 25 29h68q25 0 24 -29v-940q0 -225 -147.5 -340 t-362.5 -115zM229 520q0 -180 110 -287.5t277.5 -107.5t272 105.5t104.5 283.5q0 180 -104.5 289.5t-272 109.5t-277.5 -108.5t-110 -284.5zM498 1296q0 98 63.5 175t169.5 77v-53q-88 -2 -125 -82q-27 -59 0 -82q6 -4 17 -4q47 2 75.5 -24.5t28.5 -69.5t-29.5 -71.5 t-72.5 -28.5q-55 0 -91 45.5t-36 117.5z" glyph-name="gcommaaccent" horiz-adv-x="1275" unicode="ģ"/><glyph d="M211 0q-29 0 -29 29v1376q0 29 29 29h72q27 0 26 -29v-635h705v635q0 29 28 29h72q29 0 29 -29v-1376q0 -29 -29 -29h-72q-29 0 -28 29v626h-705v-626q0 -29 -26 -29h-72zM414 1636l172 211q14 16 32 17h91q16 0 30 -17l174 -211q8 -8 3 -17t-17 -9h-68q-18 0 -32 16 l-135 168l-136 -168q-14 -16 -32 -16h-68q-14 0 -18 9t4 17z" glyph-name="Hcircumflex" horiz-adv-x="1323" unicode="Ĥ"/><glyph d="M186 0q-25 0 -24 29v1407q0 29 24 28h72q27 0 27 -28v-594q104 186 338 186q168 0 267 -105.5t99 -301.5v-592q0 -29 -26 -29h-72q-25 0 -25 29v585q0 139 -72.5 219t-201.5 80q-133 0 -220 -81.5t-87 -217.5v-585q0 -29 -27 -29h-72zM-25 1667l172 211q14 16 33 16h90 q16 0 31 -16l174 -211q8 -8 3 -17.5t-17 -9.5h-68q-18 0 -33 17l-135 168l-135 -168q-14 -16 -33 -17h-67q-14 0 -18.5 9.5t3.5 17.5z" glyph-name="hcircumflex" unicode="ĥ"/><glyph d="M211 0q-29 0 -29 29v1376q0 29 29 29h72q27 0 26 -29v-301h705v301q0 29 28 29h72q29 0 29 -29v-1376q0 -29 -29 -29h-72q-29 0 -28 29v626h-705v-626q0 -29 -26 -29h-72zM309 770h705v219h-705v-219z" glyph-name="Hbar" horiz-adv-x="1323" unicode="Ħ"/><glyph d="M195 0q-25 0 -25 29v1167h-111q-29 0 -28 29v47q0 29 28 28h111v136q0 29 25 28h71q27 0 27 -28v-136h313q29 0 29 -28v-47q0 -29 -29 -29h-313v-354q104 186 338 186q168 0 267 -105.5t99 -301.5v-592q0 -29 -26 -29h-72q-25 0 -25 29v585q0 139 -72.5 219t-201.5 80 q-133 0 -220 -81.5t-87 -217.5v-585q0 -29 -27 -29h-71z" glyph-name="hbar" horiz-adv-x="1157" unicode="ħ"/><glyph d="M211 0q-29 0 -29 29v1376q0 29 29 29h72q27 0 26 -29v-1376q0 -29 -26 -29h-72zM-47 1759q2 66 49 105t111 39q72 0 141.5 -63.5t114.5 -63.5q31 0 50 16t23 41q4 18 23 18h51q20 0 21 -20q-2 -70 -48.5 -109t-111.5 -39q-72 0 -141.5 63.5t-114.5 63.5q-31 0 -50.5 -16 t-23.5 -41q-2 -18 -22 -18h-54q-18 -1 -18 24z" glyph-name="Itilde" horiz-adv-x="491" unicode="Ĩ"/><glyph d="M152 0q-27 0 -27 29v946q0 29 27 29h71q25 0 25 -29v-946q0 -29 -25 -29h-71zM-106 1329q2 66 49 105t110 39q72 0 141.5 -63.5t114.5 -63.5q31 0 50.5 16t23.5 41q2 18 23 18h51q20 0 20 -20q-2 -70 -48 -109t-112 -39q-72 0 -141.5 63.5t-114.5 63.5q-31 0 -50 -16 t-23 -41q-4 -18 -23 -18h-53q-18 -1 -18 24z" glyph-name="itilde" horiz-adv-x="372" unicode="ĩ"/><glyph d="M211 0q-29 0 -29 29v1376q0 29 29 29h72q27 0 26 -29v-1376q0 -29 -26 -29h-72zM-55 1788v47q0 29 28 29h547q29 0 29 -29v-47q0 -29 -29 -29h-547q-28 0 -28 29z" glyph-name="Imacron" horiz-adv-x="491" unicode="Ī"/><glyph d="M152 0q-27 0 -27 29v946q0 29 27 29h71q25 0 25 -29v-946q0 -29 -25 -29h-71zM-115 1358v47q0 29 29 29h547q29 0 28 -29v-47q0 -29 -28 -29h-547q-29 0 -29 29z" glyph-name="imacron" horiz-adv-x="372" unicode="ī"/><glyph d="M250 -406q-88 -39 -194.5 7.5t-106.5 175.5q0 102 68.5 171.5t164.5 100.5v1356q0 29 29 29h72q27 0 26 -29v-1376q0 -29 -26 -29q-92 0 -159 -57.5t-67 -145.5q0 -74 52.5 -105.5t140.5 -13.5v-84z" glyph-name="Iogonek" horiz-adv-x="491" unicode="Į"/><glyph d="M188.5 1284q-32.5 0 -57.5 23.5t-25 58.5t25 58.5t57.5 23.5t56 -23.5t23.5 -58.5t-23.5 -58.5t-56 -23.5zM-111 -223q0 102 70 171.5t166 100.5v926q0 29 27 29h71q25 0 25 -29v-946q0 -29 -25 -29q-92 0 -158.5 -57.5t-66.5 -145.5q0 -74 52 -105.5t140 -13.5v-84 q-88 -39 -194.5 7.5t-106.5 175.5z" glyph-name="iogonek" horiz-adv-x="372" unicode="į"/><glyph d="M211 0q-29 0 -29 29v1376q0 29 29 29h72q27 0 26 -29v-1376q0 -29 -26 -29h-72zM164 1796q0 35 24.5 58.5t57.5 23.5t56.5 -23.5t23.5 -58.5t-23.5 -58.5t-56.5 -23.5t-57.5 23.5t-24.5 58.5z" glyph-name="Idotaccent" horiz-adv-x="491" unicode="İ"/><glyph d="M152 0q-27 0 -27 29v946q0 29 27 29h71q25 0 25 -29v-946q0 -29 -25 -29h-71z" glyph-name="dotlessi" horiz-adv-x="372" unicode="ı"/><glyph d="M211 0q-29 0 -29 29v1376q0 29 29 29h72q27 0 26 -29v-1376q0 -29 -26 -29h-72zM616 109q-16 23 2 41l39 51q16 20 35 2q39 -35 64.5 -53.5t70.5 -35t99 -16.5q268 0 268 355v952q0 29 27 29h71q29 0 29 -29v-959q0 -229 -106.5 -351t-289 -121.5t-309.5 135.5z" glyph-name="IJ" horiz-adv-x="1503" unicode="Ĳ"/><glyph d="M223 1278q-35 0 -58.5 24.5t-23.5 57.5t23.5 57.5t58.5 24.5q33 0 56.5 -23.5t23.5 -58.5t-23.5 -58.5t-56.5 -23.5zM162 29v946q0 29 24 29h72q25 0 25 -29v-946q0 -29 -25 -29h-72q-24 0 -24 29zM395 -371v68q0 18 25 14q37 -6 65 -6q82 0 112 44t30 126v1100 q0 29 26 29h70q27 0 27 -29v-1131q0 -254 -248 -254q-55 0 -88 13q-19 8 -19 26zM608 1360q0 33 23.5 57.5t58.5 24.5q33 0 55.5 -23.5t22.5 -58.5t-22.5 -58.5t-55.5 -23.5q-35 0 -58.5 24.5t-23.5 57.5z" glyph-name="ij" horiz-adv-x="909" unicode="ĳ"/><glyph d="M434 -27q-182 0 -309 136q-16 23 2 41l39 51q16 20 35 2q39 -35 64.5 -53.5t70.5 -35t98 -16.5q268 0 268 355v952q0 29 27 29h72q29 0 28 -29v-959q0 -229 -106.5 -351t-288.5 -122zM516 1636l172 211q14 16 33 17h90q16 0 31 -17l174 -211q8 -8 3 -17t-18 -9h-67 q-18 0 -33 16l-135 168l-135 -168q-14 -16 -33 -16h-68q-14 0 -18 9t4 17z" glyph-name="Jcircumflex" horiz-adv-x="1011" unicode="Ĵ"/><glyph d="M57 -410q-55 0 -88 13q-18 8 -18 26v68q0 18 24 14q37 -6 66 -6q82 0 111.5 44t29.5 126v1100q0 29 27 29h70q27 0 26 -29v-1131q0 -254 -248 -254zM-8 1206l172 211q14 16 33 17h90q16 0 30 -17l175 -211q8 -8 2.5 -17t-17.5 -9h-67q-18 0 -33 16l-135 168l-136 -168 q-14 -16 -32 -16h-68q-14 0 -18 9t4 17z" glyph-name="jcircumflex" horiz-adv-x="446" unicode="ĵ"/><glyph d="M211 0q-29 0 -29 29v1376q0 29 29 29h72q27 0 26 -29v-807l619 819q14 16 37 17h90q20 0 24 -10.5t-8 -26.5l-496 -635l553 -725q10 -16 5 -26.5t-23 -10.5h-84q-25 0 -37 18l-489 646l-191 -242v-393q0 -29 -26 -29h-72zM510 -485v53q88 2 125 82q27 59 0 82q-6 4 -17 4 q-47 -2 -75.5 24.5t-28.5 69.5t29.5 71.5t72.5 28.5q55 0 91 -46t36 -117q0 -98 -63.5 -175t-169.5 -77z" glyph-name="Kcommaaccent" horiz-adv-x="1234" unicode="Ķ"/><glyph d="M186 0q-25 0 -24 29v1407q0 29 24 28h72q27 0 27 -28v-987l495 538q14 16 35 17h94q16 0 18.5 -10.5t-7.5 -18.5l-377 -400l432 -542q10 -12 5 -22.5t-24 -10.5h-75q-25 0 -37 18l-377 474l-182 -195v-268q0 -29 -27 -29h-72zM432 -485v53q88 2 125 82q27 59 0 82 q-6 4 -16 4q-47 -2 -76 24.5t-29 69.5t30 71.5t73 28.5q55 0 91 -46t36 -117q0 -98 -64 -175t-170 -77z" glyph-name="kcommaaccent" horiz-adv-x="1071" unicode="ķ"/><glyph d="M211 0q-29 0 -29 29v1376q0 29 29 29h72q27 0 26 -29v-1288h537q31 0 31 -31v-55q0 -31 -31 -31h-635zM207 1604l112 235q10 25 35 25h66q35 0 16 -33l-114 -236q-14 -25 -35 -24h-62q-36 0 -18 33z" glyph-name="Lacute" horiz-adv-x="995" unicode="Ĺ"/><glyph d="M186 0q-25 0 -24 29v1407q0 29 24 28h72q27 0 27 -28v-1407q0 -29 -27 -29h-72zM180 1636l113 236q10 25 35 24h65q35 0 17 -32l-115 -236q-14 -25 -35 -24h-61q-37 -1 -19 32z" glyph-name="lacute" horiz-adv-x="444" unicode="ĺ"/><glyph d="M211 0q-29 0 -29 29v1376q0 29 29 29h72q27 0 26 -29v-1288h537q31 0 31 -31v-55q0 -31 -31 -31h-635zM403 -485v53q88 2 125 82q27 59 0 82q-6 4 -16 4q-47 -2 -75.5 24.5t-28.5 69.5t29.5 71.5t72.5 28.5q55 0 91 -46t36 -117q0 -98 -64 -175t-170 -77z" glyph-name="Lcommaaccent" horiz-adv-x="995" unicode="Ļ"/><glyph d="M186 0q-25 0 -24 29v1407q0 29 24 28h72q27 0 27 -28v-1407q0 -29 -27 -29h-72zM115 -485v53q88 2 125 82q27 59 0 82q-6 4 -17 4q-47 -2 -75.5 24.5t-28.5 69.5t29.5 71.5t72.5 28.5q55 0 91 -46t36 -117q0 -98 -63.5 -175t-169.5 -77z" glyph-name="lcommaaccent" horiz-adv-x="444" unicode="ļ"/><glyph d="M211 0q-29 0 -29 29v1376q0 29 29 29h72q27 0 26 -29v-1288h537q31 0 31 -31v-55q0 -31 -31 -31h-635zM483 1038v54q88 2 125 82q27 59 0 81q-6 4 -16 5q-47 -2 -76 24.5t-29 69.5t30 71.5t73 28.5q55 0 91 -46t36 -118q0 -98 -64 -175t-170 -77z" glyph-name="Lcaron" horiz-adv-x="989" unicode="Ľ"/><glyph d="M186 0q-25 0 -24 29v1407q0 29 24 28h72q27 0 27 -28v-1407q0 -29 -27 -29h-72zM354 1120v54q88 2 125 81q27 59 0 82q-6 4 -16 4q-47 -2 -76 25t-29 70t30 71.5t73 28.5q55 0 91 -46t36 -118q0 -98 -64 -175t-170 -77z" glyph-name="lcaron" horiz-adv-x="585" unicode="ľ"/><glyph d="M211 0q-29 0 -29 29v1376q0 29 29 29h72q27 0 26 -29v-1288h537q31 0 31 -31v-55q0 -31 -31 -31h-635zM543 772q0 39 27.5 66.5t66.5 27.5t66.5 -27.5t27.5 -66.5t-27.5 -66.5t-66.5 -27.5t-66.5 27.5t-27.5 66.5z" glyph-name="Ldot" horiz-adv-x="974" unicode="Ŀ"/><glyph d="M186 0q-25 0 -24 29v1407q0 29 24 28h72q27 0 27 -28v-1407q0 -29 -27 -29h-72zM358 768q0 39 28 66.5t67 27.5t66.5 -27.5t27.5 -66.5t-27.5 -66.5t-66.5 -27.5t-67 27.5t-28 66.5z" glyph-name="ldot" horiz-adv-x="436" unicode="ŀ"/><glyph d="M98 422q-16 -14 -26.5 -9t-10.5 25v80q0 23 17 39l135 131v717q0 29 29 29h71q27 0 27 -29v-596l195 188q14 14 25 9t11 -25v-78q0 -23 -16 -39l-215 -209v-538h537q31 0 30 -31v-55q0 -31 -30 -31h-635q-29 0 -29 29v503z" glyph-name="Lslash" horiz-adv-x="1026" unicode="Ł"/><glyph d="M-10 379v100l205 221v736q0 29 24 28h72q27 0 26 -28v-602l201 217l2 -99l-203 -219v-704q0 -29 -26 -29h-72q-25 0 -24 29v571z" glyph-name="lslash" horiz-adv-x="509" unicode="ł"/><glyph d="M1044 0q-25 0 -36 20l-699 1240v-1231q0 -29 -26 -29h-72q-29 0 -29 29v1376q0 29 29 29h104q25 0 37 -21l699 -1239v1231q0 29 28 29h72q27 0 27 -29v-1376q0 -29 -27 -29h-107zM637 1604l113 235q10 25 34 25h66q35 0 16 -33l-114 -236q-14 -25 -35 -24h-62 q-36 0 -18 33z" glyph-name="Nacute" horiz-adv-x="1359" unicode="Ń"/><glyph d="M186 0q-25 0 -24 29v946q0 29 24 29h64q29 0 29 -31l6 -131q104 186 338 186q168 0 267 -105.5t99 -301.5v-592q0 -29 -26 -29h-72q-25 0 -25 29v585q0 139 -72.5 219t-201.5 80q-133 0 -220 -81.5t-87 -217.5v-585q0 -29 -27 -29h-72zM549 1174l113 235q10 25 34 25h66 q35 0 16 -33l-114 -236q-14 -25 -35 -24h-62q-36 0 -18 33z" glyph-name="nacute" unicode="ń"/><glyph d="M1044 0q-25 0 -36 20l-699 1240v-1231q0 -29 -26 -29h-72q-29 0 -29 29v1376q0 29 29 29h104q25 0 37 -21l699 -1239v1231q0 29 28 29h72q27 0 27 -29v-1376q0 -29 -27 -29h-107zM571 -485v53q88 2 125 82q27 59 0 82q-6 4 -16 4q-47 -2 -76 24.5t-29 69.5t30 71.5 t73 28.5q55 0 91 -46t36 -117q0 -98 -64 -175t-170 -77z" glyph-name="Ncommaaccent" horiz-adv-x="1359" unicode="Ņ"/><glyph d="M186 0q-25 0 -24 29v946q0 29 24 29h64q29 0 29 -31l6 -131q104 186 338 186q168 0 267 -105.5t99 -301.5v-592q0 -29 -26 -29h-72q-25 0 -25 29v585q0 139 -72.5 219t-201.5 80q-133 0 -220 -81.5t-87 -217.5v-585q0 -29 -27 -29h-72zM483 -485v53q88 2 125 82 q27 59 0 82q-6 4 -16 4q-47 -2 -76 24.5t-29 69.5t30 71.5t73 28.5q55 0 91 -46t36 -117q0 -98 -64 -175t-170 -77z" glyph-name="ncommaaccent" unicode="ņ"/><glyph d="M1044 0q-25 0 -36 20l-699 1240v-1231q0 -29 -26 -29h-72q-29 0 -29 29v1376q0 29 29 29h104q25 0 37 -21l699 -1239v1231q0 29 28 29h72q27 0 27 -29v-1376q0 -29 -27 -29h-107zM430 1837q-8 8 -4 17.5t18 9.5h68q18 0 33 -17l135 -168l135 168q14 16 33 17h67 q12 0 17.5 -9.5t-2.5 -17.5l-174 -211q-14 -16 -31 -16h-90q-18 0 -33 16z" glyph-name="Ncaron" horiz-adv-x="1359" unicode="Ň"/><glyph d="M186 0q-25 0 -24 29v946q0 29 24 29h64q29 0 29 -31l6 -131q104 186 338 186q168 0 267 -105.5t99 -301.5v-592q0 -29 -26 -29h-72q-25 0 -25 29v585q0 139 -72.5 219t-201.5 80q-133 0 -220 -81.5t-87 -217.5v-585q0 -29 -27 -29h-72zM344 1407q-8 8 -4 17.5t18 9.5h68 q18 0 33 -17l135 -168l135 168q14 16 33 17h67q12 0 17.5 -9.5t-2.5 -17.5l-174 -211q-14 -16 -31 -16h-90q-18 0 -33 16z" glyph-name="ncaron" unicode="ň"/><glyph d="M782 -477q-182 0 -309 135q-16 23 0 41l41 51q16 20 35 2q39 -35 64.5 -53t70.5 -34.5t98 -16.5q127 0 197 81t70 228v43h-5q-25 0 -36 20l-699 1240v-1231q0 -29 -26 -29h-72q-29 0 -29 29v1376q0 29 29 29h104q25 0 37 -21l697 -1235v776h2v451q0 29 28 29h72 q27 0 27 -29v-1446q0 -207 -108 -321.5t-288 -114.5z" glyph-name="Eng" horiz-adv-x="1359" unicode="Ŋ"/><glyph d="M676 -406q-20 0 -21 19l-18 72q-8 23 18 22q111 0 161 78t50 238v591q0 139 -72.5 219t-201.5 80q-133 0 -220 -81.5t-87 -217.5v-585q0 -29 -27 -29h-72q-25 0 -24 29v946q0 29 24 29h64q29 0 29 -31l6 -131q104 186 338 186q168 0 267 -105.5t99 -301.5v-629 q0 -199 -80.5 -298.5t-232.5 -99.5z" glyph-name="eng" unicode="ŋ"/><glyph d="M872.5 -27q-309.5 0 -520.5 213t-211 524.5t211 525.5t520.5 214t521.5 -214t212 -525.5t-212 -524.5t-521.5 -213zM270 711q0 -262 173 -437.5t429 -175.5q258 0 431.5 175.5t173.5 437.5q0 264 -173.5 439t-431.5 175t-430 -175t-172 -439zM571 1788v47q0 29 29 29h547 q29 0 29 -29v-47q0 -29 -29 -29h-547q-29 0 -29 29z" glyph-name="Omacron" horiz-adv-x="1746" unicode="Ō"/><glyph d="M623 -25q-219 0 -365.5 152t-146.5 375t146 374.5t366 151.5q217 0 363.5 -150.5t146.5 -376t-146.5 -376t-363.5 -150.5zM231 502q0 -178 111 -294t281 -116q168 0 279.5 116t111.5 294t-111.5 294.5t-279.5 116.5q-170 0 -281 -115.5t-111 -295.5zM319 1358v47 q0 29 29 29h547q29 0 29 -29v-47q0 -29 -29 -29h-547q-29 0 -29 29z" glyph-name="omacron" horiz-adv-x="1243" unicode="ō"/><glyph d="M872.5 -27q-309.5 0 -520.5 213t-211 524.5t211 525.5t520.5 214t521.5 -214t212 -525.5t-212 -524.5t-521.5 -213zM270 711q0 -262 173 -437.5t429 -175.5q258 0 431.5 175.5t173.5 437.5q0 264 -173.5 439t-431.5 175t-430 -175t-172 -439zM688 1604l113 235 q10 25 35 25h65q35 0 17 -33l-115 -236q-14 -25 -35 -24h-61q-37 0 -19 33zM940 1604l113 235q10 25 34 25h66q35 0 16 -33l-114 -236q-14 -25 -35 -24h-62q-36 0 -18 33z" glyph-name="Ohungarumlaut" horiz-adv-x="1746" unicode="Ő"/><glyph d="M623 -25q-219 0 -365.5 152t-146.5 375t146 374.5t366 151.5q217 0 363.5 -150.5t146.5 -376t-146.5 -376t-363.5 -150.5zM231 502q0 -178 111 -294t281 -116q168 0 279.5 116t111.5 294t-111.5 294.5t-279.5 116.5q-170 0 -281 -115.5t-111 -295.5zM438 1174l113 235 q10 25 35 25h65q35 0 17 -33l-115 -236q-14 -25 -35 -24h-61q-37 0 -19 33zM690 1174l113 235q10 25 35 25h65q35 0 17 -33l-115 -236q-14 -25 -35 -24h-61q-37 0 -19 33z" glyph-name="ohungarumlaut" horiz-adv-x="1243" unicode="ő"/><glyph d="M872 -27q-309 0 -520 213t-211 524.5t211 525.5t520 214q193 0 353.5 -87t259.5 -239v281q0 29 28 29h678q29 0 29 -29v-59q0 -27 -29 -27h-579v-518h551q27 0 26 -29v-59q0 -29 -26 -29h-551v-567h581q29 0 29 -29v-59q0 -29 -29 -29h-680q-29 0 -28 29v270 q-98 -152 -259 -239t-354 -87zM270 711q0 -262 173 -437.5t429 -175.5q258 0 431.5 175.5t173.5 437.5q0 264 -173.5 439t-431.5 175t-430 -175t-172 -439z" glyph-name="OE" horiz-adv-x="2383" unicode="Œ"/><glyph d="M623 -25q-219 0 -365.5 152t-146.5 375t146 374.5t366 151.5q147 0 267 -73.5t183 -198.5q61 125 178 198.5t269 73.5q213 0 340 -140t127 -333q0 -55 -13.5 -75.5t-54.5 -20.5h-782q14 -166 123.5 -271.5t295.5 -105.5q164 0 299 102q16 16 29 0l29 -37q14 -20 -8 -43 q-135 -129 -359 -129q-164 0 -285.5 75t-185.5 202q-63 -127 -182.5 -202t-269.5 -75zM231 502q0 -178 111 -294t281 -116q168 0 279.5 116t111.5 294t-111.5 294.5t-279.5 116.5q-170 0 -281 -115.5t-111 -295.5zM1139 559h739q-4 160 -102.5 259.5t-258 99.5t-262 -97.5 t-116.5 -261.5z" glyph-name="oe" horiz-adv-x="2097" unicode="œ"/><glyph d="M954 0q-25 0 -36 20l-355 531h-254v-522q0 -29 -26 -29h-72q-29 0 -29 29v1376q0 29 29 29h383q223 0 345 -122t122 -321q0 -172 -94.5 -288.5t-270.5 -143.5l355 -522q23 -37 -21 -37h-76zM309 666h273q160 0 256 78.5t96 246.5q0 170 -96.5 249t-255.5 79h-273v-653z M537 1604l112 235q10 25 35 25h66q35 0 16 -33l-115 -236q-14 -25 -35 -24h-61q-36 0 -18 33z" glyph-name="Racute" horiz-adv-x="1177" unicode="Ŕ"/><glyph d="M186 0q-25 0 -24 29v946q0 29 24 29h64q29 0 29 -31l4 -111q70 166 233 166q66 0 92 -18q16 -10 17 -35v-53q0 -29 -35 -19q-37 10 -72 10q-88 0 -143.5 -50t-72.5 -107.5t-17 -120.5v-606q0 -29 -27 -29h-72zM330 1174l112 235q10 25 35 25h66q35 0 16 -33l-115 -236 q-14 -25 -34 -24h-62q-36 0 -18 33z" glyph-name="racute" horiz-adv-x="712" unicode="ŕ"/><glyph d="M954 0q-25 0 -36 20l-355 531h-254v-522q0 -29 -26 -29h-72q-29 0 -29 29v1376q0 29 29 29h383q223 0 345 -122t122 -321q0 -172 -94.5 -288.5t-270.5 -143.5l355 -522q23 -37 -21 -37h-76zM309 666h273q160 0 256 78.5t96 246.5q0 170 -96.5 249t-255.5 79h-273v-653z M471 -485v53q88 2 125 82q27 59 0 82q-6 4 -16 4q-47 -2 -76 24.5t-29 69.5t30 71.5t73 28.5q55 0 91 -46t36 -117q0 -98 -64 -175t-170 -77z" glyph-name="Rcommaaccent" horiz-adv-x="1177" unicode="Ŗ"/><glyph d="M186 0q-25 0 -24 29v946q0 29 24 29h64q29 0 29 -31l4 -111q70 166 233 166q66 0 92 -18q16 -10 17 -35v-53q0 -29 -35 -19q-37 10 -72 10q-88 0 -143.5 -50t-72.5 -107.5t-17 -120.5v-606q0 -29 -27 -29h-72zM115 -485v53q88 2 125 82q27 59 0 82q-6 4 -17 4 q-47 -2 -75.5 24.5t-28.5 69.5t29.5 71.5t72.5 28.5q55 0 91 -46t36 -117q0 -98 -63.5 -175t-169.5 -77z" glyph-name="rcommaaccent" horiz-adv-x="712" unicode="ŗ"/><glyph d="M954 0q-25 0 -36 20l-355 531h-254v-522q0 -29 -26 -29h-72q-29 0 -29 29v1376q0 29 29 29h383q223 0 345 -122t122 -321q0 -172 -94.5 -288.5t-270.5 -143.5l355 -522q23 -37 -21 -37h-76zM309 666h273q160 0 256 78.5t96 246.5q0 170 -96.5 249t-255.5 79h-273v-653z M330 1837q-8 8 -4 17.5t18 9.5h68q18 0 32 -17l136 -168l135 168q14 16 33 17h67q12 0 17.5 -9.5t-3.5 -17.5l-174 -211q-14 -16 -30 -16h-90q-18 0 -33 16z" glyph-name="Rcaron" horiz-adv-x="1177" unicode="Ř"/><glyph d="M186 0q-25 0 -24 29v946q0 29 24 29h64q29 0 29 -31l4 -111q70 166 233 166q66 0 92 -18q16 -10 17 -35v-53q0 -29 -35 -19q-37 10 -72 10q-88 0 -143.5 -50t-72.5 -107.5t-17 -120.5v-606q0 -29 -27 -29h-72zM125 1407q-8 8 -4 17.5t18 9.5h68q18 0 33 -17l135 -168 l135 168q14 16 33 17h67q12 0 17.5 -9.5t-2.5 -17.5l-174 -211q-14 -16 -31 -16h-90q-18 0 -33 16z" glyph-name="rcaron" horiz-adv-x="712" unicode="ř"/><glyph d="M545 -25q-276 0 -418 211q-14 23 4 45l35 39q23 25 47 -4q123 -172 334 -172q145 0 227 73t82 193q0 113 -68.5 178.5t-207.5 133.5l-174 86q-246 117 -246 342q0 158 111.5 254t277.5 96q231 0 375 -180q20 -25 0 -49l-31 -35q-25 -27 -51 2q-121 143 -289 143 q-117 0 -192.5 -59.5t-75.5 -167.5q0 -82 46 -140.5t146 -107.5l172 -84q158 -78 245 -168t87 -242q0 -176 -119.5 -281.5t-316.5 -105.5zM481 1604l113 235q10 25 35 25h65q35 0 17 -33l-115 -236q-14 -25 -35 -24h-61q-37 0 -19 33z" glyph-name="Sacute" horiz-adv-x="1099" unicode="Ś"/><glyph d="M449 -25q-199 0 -318 148q-18 25 -4 51l25 31q18 27 45 -2q106 -117 249 -117q98 0 158 44t60 128q0 72 -42 114t-126 77l-117 49q-106 45 -166.5 106.5t-60.5 161.5q0 119 87 190.5t212 71.5q180 0 286 -135q18 -20 -2 -45l-22 -27q-23 -27 -49 0q-92 100 -209 101 q-78 0 -131.5 -39t-53.5 -113q0 -72 43 -109.5t142 -76.5l92 -39q113 -45 175 -110.5t62 -174.5q0 -133 -97 -209t-238 -76zM395 1174l113 235q10 25 35 25h65q35 0 17 -33l-115 -236q-14 -25 -35 -24h-61q-37 0 -19 33z" glyph-name="sacute" horiz-adv-x="905" unicode="ś"/><glyph d="M545 -25q-276 0 -418 211q-14 23 4 45l35 39q23 25 47 -4q123 -172 334 -172q145 0 227 73t82 193q0 113 -68.5 178.5t-207.5 133.5l-174 86q-246 117 -246 342q0 158 111.5 254t277.5 96q231 0 375 -180q20 -25 0 -49l-31 -35q-25 -27 -51 2q-121 143 -289 143 q-117 0 -192.5 -59.5t-75.5 -167.5q0 -82 46 -140.5t146 -107.5l172 -84q158 -78 245 -168t87 -242q0 -176 -119.5 -281.5t-316.5 -105.5zM274 1636l172 211q14 16 33 17h90q16 0 31 -17l174 -211q8 -8 3 -17t-17 -9h-68q-18 0 -33 16l-135 168l-135 -168q-14 -16 -33 -16 h-67q-14 0 -18.5 9t3.5 17z" glyph-name="Scircumflex" horiz-adv-x="1099" unicode="Ŝ"/><glyph d="M449 -25q-199 0 -318 148q-18 25 -4 51l25 31q18 27 45 -2q106 -117 249 -117q98 0 158 44t60 128q0 72 -42 114t-126 77l-117 49q-106 45 -166.5 106.5t-60.5 161.5q0 119 87 190.5t212 71.5q180 0 286 -135q18 -20 -2 -45l-22 -27q-23 -27 -49 0q-92 100 -209 101 q-78 0 -131.5 -39t-53.5 -113q0 -72 43 -109.5t142 -76.5l92 -39q113 -45 175 -110.5t62 -174.5q0 -133 -97 -209t-238 -76zM190 1206l172 211q14 16 33 17h90q16 0 31 -17l174 -211q8 -8 3 -17t-17 -9h-68q-18 0 -33 16l-135 168l-135 -168q-14 -16 -33 -16h-67 q-14 0 -18.5 9t3.5 17z" glyph-name="scircumflex" horiz-adv-x="905" unicode="ŝ"/><glyph d="M410 -430q-18 4 -19 22v43q0 20 23 21q190 -10 190 88q0 57 -56 78.5t-132 -2.5q-25 -4 -25 14v39q0 10 10 25l74 82q-229 25 -348 206q-14 23 4 45l35 39q23 25 47 -4q123 -172 334 -172q145 0 227 73t82 193q0 113 -68.5 178.5t-207.5 133.5l-174 86q-246 117 -246 342 q0 158 111.5 254t277.5 96q231 0 375 -180q20 -25 0 -49l-31 -35q-25 -27 -51 2q-121 143 -289 143q-117 0 -192.5 -59.5t-75.5 -167.5q0 -82 46 -140.5t146 -107.5l172 -84q158 -78 245 -168t87 -242q0 -164 -107.5 -268t-285.5 -117l-60 -63q76 -2 127.5 -44t51.5 -114 q0 -111 -89 -155.5t-208 -30.5z" glyph-name="Scedilla" horiz-adv-x="1099" unicode="Ş"/><glyph d="M301 -430q-18 4 -18 22v43q0 20 22 21q190 -10 191 88q0 57 -55.5 78.5t-133.5 -2.5q-25 -4 -24 14v39q0 10 10 25l76 84q-145 29 -238 141q-18 25 -4 51l25 31q18 27 45 -2q106 -117 249 -117q98 0 158 44t60 128q0 72 -42 114t-126 77l-117 49q-106 45 -166.5 106.5 t-60.5 161.5q0 119 87 190.5t212 71.5q180 0 286 -135q18 -20 -2 -45l-22 -27q-23 -27 -49 0q-92 100 -209 101q-78 0 -131.5 -39t-53.5 -113q0 -72 43 -109.5t142 -76.5l92 -39q113 -45 175 -110.5t62 -174.5q0 -125 -87 -199.5t-218 -85.5l-59 -61q76 -2 127 -44t51 -114 q0 -111 -89 -155.5t-208 -30.5z" glyph-name="scedilla" horiz-adv-x="905" unicode="ş"/><glyph d="M545 -25q-276 0 -418 211q-14 23 4 45l35 39q23 25 47 -4q123 -172 334 -172q145 0 227 73t82 193q0 113 -68.5 178.5t-207.5 133.5l-174 86q-246 117 -246 342q0 158 111.5 254t277.5 96q231 0 375 -180q20 -25 0 -49l-31 -35q-25 -27 -51 2q-121 143 -289 143 q-117 0 -192.5 -59.5t-75.5 -167.5q0 -82 46 -140.5t146 -107.5l172 -84q158 -78 245 -168t87 -242q0 -176 -119.5 -281.5t-316.5 -105.5zM274 1837q-8 8 -4 17.5t19 9.5h67q18 0 33 -17l135 -168l135 168q14 16 33 17h68q12 0 17 -9.5t-3 -17.5l-174 -211q-14 -16 -31 -16 h-90q-18 0 -33 16z" glyph-name="Scaron" horiz-adv-x="1099" unicode="Š"/><glyph d="M449 -25q-199 0 -318 148q-18 25 -4 51l25 31q18 27 45 -2q106 -117 249 -117q98 0 158 44t60 128q0 72 -42 114t-126 77l-117 49q-106 45 -166.5 106.5t-60.5 161.5q0 119 87 190.5t212 71.5q180 0 286 -135q18 -20 -2 -45l-22 -27q-23 -27 -49 0q-92 100 -209 101 q-78 0 -131.5 -39t-53.5 -113q0 -72 43 -109.5t142 -76.5l92 -39q113 -45 175 -110.5t62 -174.5q0 -133 -97 -209t-238 -76zM190 1407q-8 8 -4 17.5t19 9.5h67q18 0 33 -17l135 -168l135 168q14 16 33 17h68q12 0 17 -9.5t-3 -17.5l-174 -211q-14 -16 -31 -16h-90 q-18 0 -33 16z" glyph-name="scaron" horiz-adv-x="905" unicode="š"/><glyph d="M403 -420q-18 2 -18 23v43q0 20 23 20q190 -10 190 88q0 57 -55.5 79t-132.5 -3q-25 -4 -25 14v39q0 10 10 25l90 100q-4 12 -4 21v1290h-311q-29 0 -29 27v59q0 29 29 29h750q29 0 28 -29v-59q0 -27 -28 -27h-312v-1290q0 -10 -4 -19l-82 -86q76 -2 127 -44t51 -113 q0 -111 -89 -156t-208 -31z" glyph-name="Tcommaaccent" horiz-adv-x="1089" unicode="Ţ"/><glyph d="M299 -432q-18 2 -18 22v43q0 20 22 21q190 -10 191 88q0 57 -56.5 78.5t-132.5 -2.5q-25 -4 -24 14v39q0 10 10 25l92 100q-123 37 -123 197v706h-131q-29 0 -29 29v47q0 29 29 29h131v237q0 29 27 29h69q27 0 27 -29v-237h172q29 0 29 -29v-47q0 -29 -29 -29h-172v-688 q0 -61 21.5 -87t70.5 -26q14 0 64 6q41 6 41 -26v-49q0 -31 -88 -39l-74 -78q76 -2 127 -44t51 -114q0 -111 -89 -155.5t-208 -30.5z" glyph-name="tcommaaccent" horiz-adv-x="684" unicode="ţ"/><glyph d="M508 0q-27 0 -27 29v1290h-311q-29 0 -29 27v59q0 29 29 29h750q29 0 28 -29v-59q0 -27 -28 -27h-312v-1290q0 -29 -28 -29h-72zM295 1837q-8 8 -4 17.5t18 9.5h68q18 0 33 -17l135 -168l135 168q14 16 33 17h67q12 0 17.5 -9.5t-2.5 -17.5l-174 -211q-14 -16 -31 -16 h-90q-18 0 -33 16z" glyph-name="Tcaron" horiz-adv-x="1089" unicode="Ť"/><glyph d="M457 -12q-197 0 -197 205v706h-131q-29 0 -29 29v47q0 29 29 29h131v237q0 29 27 29h69q27 0 27 -29v-237h172q29 0 29 -29v-47q0 -29 -29 -29h-172v-688q0 -61 21.5 -87t70.5 -26q14 0 64 6q41 6 41 -26v-49q0 -41 -123 -41zM481 1118l113 236q10 25 35 24h65 q35 0 17 -32l-115 -236q-14 -25 -35 -25h-61q-37 0 -19 33z" glyph-name="tcaron" horiz-adv-x="706" unicode="ť"/><glyph d="M508 0q-27 0 -27 29v870h-209q-29 0 -28 29v47q0 29 28 29h209v315h-311q-29 0 -29 27v59q0 29 29 29h750q29 0 28 -29v-59q0 -27 -28 -27h-312v-315h211q29 0 29 -29v-47q0 -29 -29 -29h-211v-870q0 -29 -28 -29h-72z" glyph-name="Tbar" horiz-adv-x="1089" unicode="Ŧ"/><glyph d="M131 631q-31 0 -31 31v47q0 31 31 30h129v160h-131q-29 0 -29 29v47q0 29 29 29h131v237q0 29 27 29h69q27 0 27 -29v-237h172q29 0 29 -29v-47q0 -29 -29 -29h-172v-160h170q31 0 31 -30v-47q0 -31 -31 -31h-170v-420q0 -61 21.5 -87t70.5 -26q14 0 64 6q41 6 41 -26 v-49q0 -41 -123 -41q-197 0 -197 205v438h-129z" glyph-name="tbar" horiz-adv-x="684" unicode="ŧ"/><glyph d="M639 -27q-211 0 -339 128t-128 358v946q0 29 29 29h71q27 0 27 -29v-928q0 -188 92 -283.5t248 -95.5q154 0 246 95.5t92 283.5v928q0 29 29 29h71q29 0 29 -29v-946q0 -229 -127 -357.5t-340 -128.5zM350 1759q2 66 49 105t111 39q72 0 141.5 -63.5t114.5 -63.5 q31 0 50.5 16t23.5 41q4 18 22 18h51q20 0 21 -20q-2 -70 -48 -109t-112 -39q-72 0 -141.5 63.5t-114.5 63.5q-31 0 -50 -16t-24 -41q-2 -18 -22 -18h-53q-19 -1 -19 24z" glyph-name="Utilde" horiz-adv-x="1277" unicode="Ũ"/><glyph d="M526 -25q-168 0 -266 106.5t-98 303.5v590q0 29 24 29h72q27 0 27 -29v-586q0 -139 71.5 -218t200.5 -79q133 0 221 81t88 216v586q0 29 25 29h72q27 0 26 -29v-946q0 -29 -26 -29h-64q-27 0 -29 31l-4 131q-104 -187 -340 -187zM291 1329q2 66 48 105t112 39 q72 0 141.5 -63.5t114.5 -63.5q31 0 50 16t23 41q2 18 23 18h51q20 0 20 -20q-2 -70 -48 -109t-111 -39q-72 0 -141.5 63.5t-114.5 63.5q-31 0 -50.5 -16t-23.5 -41q-4 -18 -23 -18h-53q-18 -1 -18 24z" glyph-name="utilde" unicode="ũ"/><glyph d="M639 -27q-211 0 -339 128t-128 358v946q0 29 29 29h71q27 0 27 -29v-928q0 -188 92 -283.5t248 -95.5q154 0 246 95.5t92 283.5v928q0 29 29 29h71q29 0 29 -29v-946q0 -229 -127 -357.5t-340 -128.5zM338 1788v47q0 29 29 29h546q29 0 29 -29v-47q0 -29 -29 -29h-546 q-29 0 -29 29z" glyph-name="Umacron" horiz-adv-x="1277" unicode="Ū"/><glyph d="M526 -25q-168 0 -266 106.5t-98 303.5v590q0 29 24 29h72q27 0 27 -29v-586q0 -139 71.5 -218t200.5 -79q133 0 221 81t88 216v586q0 29 25 29h72q27 0 26 -29v-946q0 -29 -26 -29h-64q-27 0 -29 31l-4 131q-104 -187 -340 -187zM276 1358v47q0 29 29 29h547q29 0 29 -29 v-47q0 -29 -29 -29h-547q-29 0 -29 29z" glyph-name="umacron" unicode="ū"/><glyph d="M639 -27q-211 0 -339 128t-128 358v946q0 29 29 29h71q27 0 27 -29v-928q0 -188 92 -283.5t248 -95.5q154 0 246 95.5t92 283.5v928q0 29 29 29h71q29 0 29 -29v-946q0 -229 -127 -357.5t-340 -128.5zM369 1833q-4 31 28 31h39q29 0 33 -29q8 -66 53 -104.5t117 -38.5 t117 38.5t55 104.5q4 29 33 29h39q31 0 28 -31q-6 -102 -79.5 -168t-192.5 -66q-117 0 -190.5 66t-79.5 168z" glyph-name="Ubreve" horiz-adv-x="1277" unicode="Ŭ"/><glyph d="M526 -25q-168 0 -266 106.5t-98 303.5v590q0 29 24 29h72q27 0 27 -29v-586q0 -139 71.5 -218t200.5 -79q133 0 221 81t88 216v586q0 29 25 29h72q27 0 26 -29v-946q0 -29 -26 -29h-64q-27 0 -29 31l-4 131q-104 -187 -340 -187zM307 1403q-4 31 29 31h39q29 0 33 -29 q8 -66 53 -104.5t116.5 -38.5t116.5 38.5t56 104.5q4 29 32 29h39q31 0 29 -31q-6 -102 -80 -168t-192 -66q-117 0 -191 66t-80 168z" glyph-name="ubreve" unicode="ŭ"/><glyph d="M639 -27q-211 0 -339 128t-128 358v946q0 29 29 29h71q27 0 27 -29v-928q0 -188 92 -283.5t248 -95.5q154 0 246 95.5t92 283.5v928q0 29 29 29h71q29 0 29 -29v-946q0 -229 -127 -357.5t-340 -128.5zM483 1741q0 66 45 108.5t111 42.5t111 -43t45 -108q0 -63 -45 -107.5 t-111 -44.5t-111 44.5t-45 107.5zM580 1740.5q0 -26.5 16 -43t43 -16.5q25 0 42 16.5t17 43t-17 43t-42 16.5q-27 0 -43 -16.5t-16 -43z" glyph-name="Uring" horiz-adv-x="1277" unicode="Ů"/><glyph d="M526 -25q-168 0 -266 106.5t-98 303.5v590q0 29 24 29h72q27 0 27 -29v-586q0 -139 71.5 -218t200.5 -79q133 0 221 81t88 216v586q0 29 25 29h72q27 0 26 -29v-946q0 -29 -26 -29h-64q-27 0 -29 31l-4 131q-104 -187 -340 -187zM422 1311q0 66 45 108.5t110.5 42.5 t110.5 -43t45 -108q0 -63 -45 -107.5t-110.5 -44.5t-110.5 44.5t-45 107.5zM518 1310.5q0 -26.5 16.5 -43t43.5 -16.5q25 0 42 16.5t17 43t-17.5 43t-41.5 16.5q-27 0 -43.5 -16.5t-16.5 -43z" glyph-name="uring" unicode="ů"/><glyph d="M639 -27q-211 0 -339 128t-128 358v946q0 29 29 29h71q27 0 27 -29v-928q0 -188 92 -283.5t248 -95.5q154 0 246 95.5t92 283.5v928q0 29 29 29h71q29 0 29 -29v-946q0 -229 -127 -357.5t-340 -128.5zM455 1604l112 235q10 25 35 25h66q35 0 16 -33l-115 -236 q-14 -25 -34 -24h-62q-36 0 -18 33zM707 1604l112 235q10 25 35 25h66q35 0 16 -33l-115 -236q-14 -25 -35 -24h-61q-36 0 -18 33z" glyph-name="Uhungarumlaut" horiz-adv-x="1277" unicode="Ű"/><glyph d="M526 -25q-168 0 -266 106.5t-98 303.5v590q0 29 24 29h72q27 0 27 -29v-586q0 -139 71.5 -218t200.5 -79q133 0 221 81t88 216v586q0 29 25 29h72q27 0 26 -29v-946q0 -29 -26 -29h-64q-27 0 -29 31l-4 131q-104 -187 -340 -187zM393 1174l113 235q10 25 35 25h65 q35 0 17 -33l-115 -236q-14 -25 -35 -24h-61q-37 0 -19 33zM645 1174l113 235q10 25 35 25h65q35 0 16 -33l-114 -236q-14 -25 -35 -24h-61q-37 0 -19 33z" glyph-name="uhungarumlaut" unicode="ű"/><glyph d="M821 -406q-37 -20 -88 -16t-99 20.5t-81 62.5t-33 114q0 115 98 198q-203 6 -324.5 134.5t-121.5 351.5v946q0 29 29 29h71q27 0 27 -29v-928q0 -188 92 -283.5t248 -95.5q154 0 246 95.5t92 283.5v928q0 29 29 29h71q29 0 29 -29v-946q0 -176 -77 -295t-214 -164 q-188 -63 -188 -207q0 -78 52 -105.5t142 -9.5v-84z" glyph-name="Uogonek" horiz-adv-x="1277" unicode="Ų"/><glyph d="M526 -25q-168 0 -266 106.5t-98 303.5v590q0 29 24 29h72q27 0 27 -29v-586q0 -139 71.5 -218t200.5 -79q133 0 221 81t88 216v586q0 29 25 29h72q27 0 26 -29v-946q0 -29 -26 -29q-92 0 -159 -57.5t-67 -145.5q0 -74 52.5 -105.5t140.5 -13.5v-84q-88 -39 -194.5 7.5 t-106.5 175.5q0 104 71.5 175t169.5 99l-4 111q-104 -187 -340 -187z" glyph-name="uogonek" unicode="ų"/><glyph d="M573 0q-25 0 -32 25l-428 1374q-10 35 24 35h70q27 0 35 -25l379 -1239l411 1239q8 25 33 25h86q23 0 31 -25l411 -1239l379 1239q10 25 35 25h70q35 0 24 -35l-426 -1374q-10 -25 -35 -25h-88q-27 0 -34 25l-410 1251l-412 -1251q-8 -25 -32 -25h-91zM860 1636l172 211 q14 16 33 17h90q16 0 31 -17l174 -211q8 -8 3 -17t-17 -9h-68q-18 0 -33 16l-135 168l-135 -168q-14 -16 -33 -16h-68q-14 0 -18 9t4 17z" glyph-name="Wcircumflex" horiz-adv-x="2213" unicode="Ŵ"/><glyph d="M473 0q-27 0 -37 25l-332 944q-12 35 23 35h70q25 0 32 -25l287 -846l295 846q8 25 37 25h82q29 0 37 -25l295 -846l286 846q8 25 31 25h72q35 0 22 -35l-332 -944q-10 -25 -36 -25h-82q-27 0 -37 25l-297 845l-297 -845q-10 -25 -37 -25h-82zM639 1206l172 211 q14 16 33 17h90q16 0 31 -17l174 -211q8 -8 3 -17t-18 -9h-67q-18 0 -33 16l-135 168l-135 -168q-14 -16 -33 -16h-68q-14 0 -18 9t4 17z" glyph-name="wcircumflex" horiz-adv-x="1777" unicode="ŵ"/><glyph d="M569 0q-29 0 -28 29v663l-424 705q-10 16 -5 26.5t23 10.5h82q20 0 33 -21l356 -598l355 598q12 20 34 21h82q39 0 17 -37l-424 -705v-663q0 -29 -29 -29h-72zM356 1636l172 211q14 16 33 17h90q16 0 31 -17l174 -211q8 -8 3 -17t-17 -9h-68q-18 0 -33 16l-135 168 l-135 -168q-14 -16 -33 -16h-67q-14 0 -18.5 9t3.5 17z" glyph-name="Ycircumflex" horiz-adv-x="1210" unicode="Ŷ"/><glyph d="M369 -389q-31 0 -21 29l141 356l-385 973q-12 35 23 35h70q25 0 32 -25l324 -844l324 844q8 25 30 25h72q35 0 22 -35l-528 -1334q-10 -25 -35 -24h-69zM303 1206l172 211q14 16 33 17h90q16 0 31 -17l174 -211q8 -8 3 -17t-18 -9h-67q-18 0 -33 16l-135 168l-135 -168 q-14 -16 -33 -16h-68q-14 0 -18 9t4 17z" glyph-name="ycircumflex" horiz-adv-x="1105" unicode="ŷ"/><glyph d="M569 0q-29 0 -28 29v663l-424 705q-10 16 -5 26.5t23 10.5h82q20 0 33 -21l356 -598l355 598q12 20 34 21h82q39 0 17 -37l-424 -705v-663q0 -29 -29 -29h-72zM350 1798q0 31 22.5 53.5t55.5 22.5t55.5 -22.5t22.5 -53.5t-22.5 -53.5t-55.5 -22.5t-55.5 22.5t-22.5 53.5z M707 1798q0 31 23.5 53.5t53.5 22.5q33 0 55.5 -22.5t22.5 -53.5t-22.5 -53.5t-55.5 -22.5q-31 0 -54 22.5t-23 53.5z" glyph-name="Ydieresis" horiz-adv-x="1210" unicode="Ÿ"/><glyph d="M160 0q-29 0 -29 29v69q0 18 12 37l723 1184h-686q-29 0 -28 27v59q0 29 28 29h793q29 0 28 -29v-70q0 -18 -12 -37l-723 -1181h727q29 0 29 -29v-59q0 -29 -29 -29h-833zM532 1604l113 235q10 25 35 25h65q35 0 17 -33l-115 -236q-14 -25 -35 -24h-61q-37 0 -19 33z" glyph-name="Zacute" horiz-adv-x="1163" unicode="Ź"/><glyph d="M150 0q-29 0 -29 29v59q0 18 14 37l592 772h-571q-29 0 -29 27v51q0 29 29 29h680q31 0 30 -29v-60q0 -16 -14 -34l-594 -772h582q29 0 28 -29v-51q0 -29 -28 -29h-690zM451 1174l112 235q10 25 35 25h66q35 0 16 -33l-115 -236q-14 -25 -35 -24h-61q-36 0 -18 33z" glyph-name="zacute" horiz-adv-x="989" unicode="ź"/><glyph d="M160 0q-29 0 -29 29v69q0 18 12 37l723 1184h-686q-29 0 -28 27v59q0 29 28 29h793q29 0 28 -29v-70q0 -18 -12 -37l-723 -1181h727q29 0 29 -29v-59q0 -29 -29 -29h-833zM494 1796q0 35 23.5 58.5t57.5 23.5q33 0 56.5 -23.5t23.5 -58.5t-23.5 -58.5t-56.5 -23.5 q-35 0 -58 23.5t-23 58.5z" glyph-name="Zdotaccent" horiz-adv-x="1163" unicode="Ż"/><glyph d="M150 0q-29 0 -29 29v59q0 18 14 37l592 772h-571q-29 0 -29 27v51q0 29 29 29h680q31 0 30 -29v-60q0 -16 -14 -34l-594 -772h582q29 0 28 -29v-51q0 -29 -28 -29h-690zM412 1366q0 35 23.5 58.5t58.5 23.5q33 0 56 -23.5t23 -58.5t-23.5 -58.5t-55.5 -23.5 q-35 0 -58.5 23.5t-23.5 58.5z" glyph-name="zdotaccent" horiz-adv-x="989" unicode="ż"/><glyph d="M160 0q-29 0 -29 29v69q0 18 12 37l723 1184h-686q-29 0 -28 27v59q0 29 28 29h793q29 0 28 -29v-70q0 -18 -12 -37l-723 -1181h727q29 0 29 -29v-59q0 -29 -29 -29h-833zM328 1837q-8 8 -4 17.5t18 9.5h68q18 0 32 -17l136 -168l135 168q14 16 32 17h68q12 0 17.5 -9.5 t-3.5 -17.5l-174 -211q-14 -16 -30 -16h-91q-18 0 -32 16z" glyph-name="Zcaron" horiz-adv-x="1163" unicode="Ž"/><glyph d="M150 0q-29 0 -29 29v59q0 18 14 37l592 772h-571q-29 0 -29 27v51q0 29 29 29h680q31 0 30 -29v-60q0 -16 -14 -34l-594 -772h582q29 0 28 -29v-51q0 -29 -28 -29h-690zM246 1407q-8 8 -4 17.5t18 9.5h68q18 0 32 -17l136 -168l135 168q14 16 33 17h67q12 0 17.5 -9.5 t-3.5 -17.5l-174 -211q-14 -16 -30 -16h-90q-18 0 -33 16z" glyph-name="zcaron" horiz-adv-x="989" unicode="ž"/><glyph d="M803 -27q-299 0 -480.5 191.5t-181.5 484.5v51q0 31 31 31h1235q-6 254 -178 424t-424 170q-221 0 -406 -158q-16 -16 -30 0l-52 60q-16 16 5 33q203 190 483 190q315 0 523 -214t208 -525.5t-208 -524.5t-525 -213zM272 614q0 -227 148.5 -371.5t384.5 -144.5 q233 0 398 144.5t198 371.5h-1129z" glyph-name="uni018F" horiz-adv-x="1677" unicode="Ə"/><glyph d="M109 -389q-55 0 -89 12q-18 8 -18 27v67q0 18 25 15q37 -6 67 -6q82 0 110.5 44t28.5 126v1001h-122q-27 0 -27 25v57q0 25 27 25h122v239q0 254 248 254q55 0 88 -12q18 -8 19 -27v-67q0 -18 -25 -15q-37 6 -65 6q-82 0 -112 -44t-30 -126v-208h207q25 0 25 -25v-57 q0 -25 -25 -25h-207v-1032q1 -254 -247 -254z" glyph-name="florin" horiz-adv-x="688" unicode="ƒ"/><glyph d="M872.5 -27q-309.5 0 -520.5 213t-211 524.5t211 525.5t520 214h267q141 0 141 133v88q0 29 25 29h71q27 0 27 -29v-98q0 -178 -160 -221q166 -94 264.5 -264t98.5 -377q0 -311 -212 -524.5t-521.5 -213.5zM270 711q0 -262 173 -437.5t429 -175.5q258 0 431.5 175.5 t173.5 437.5q0 264 -173.5 439t-431.5 175t-430 -175t-172 -439z" glyph-name="Ohorn" horiz-adv-x="1746" unicode="Ơ"/><glyph d="M623 -25q-219 0 -365.5 152t-146.5 375t146 374.5t366 151.5h254q143 0 143 133v80q0 29 27 29h63q27 0 27 -29v-90q0 -207 -207 -223q203 -154 203 -426q0 -225 -146.5 -376t-363.5 -151zM231 502q0 -178 111 -294t281 -116q168 0 279.5 116t111.5 294t-111.5 294.5 t-279.5 116.5q-170 0 -281 -115.5t-111 -295.5z" glyph-name="ohorn" horiz-adv-x="1243" unicode="ơ"/><glyph d="M639 -27q-211 0 -339 128t-128 358v946q0 29 29 29h71q27 0 27 -29v-928q0 -188 92 -283.5t248 -95.5q154 0 246 95.5t92 283.5v928q0 29 29 29h143q141 0 141 133v104q0 29 27 29h72q25 0 24 -29v-115q0 -117 -67.5 -174t-186.5 -57h-53v-866q0 -229 -127 -357.5 t-340 -128.5z" glyph-name="Uhorn" horiz-adv-x="1277" unicode="Ư"/><glyph d="M526 -25q-168 0 -266 106.5t-98 303.5v590q0 29 24 29h72q27 0 27 -29v-586q0 -139 71.5 -218t200.5 -79q133 0 221 81t88 216v586q0 29 25 29h70q154 0 153 133v104q0 29 25 29h65q25 0 25 -29v-113q0 -211 -240 -225v-874q0 -29 -26 -29h-64q-27 0 -29 31l-4 131 q-104 -187 -340 -187z" glyph-name="uhorn" unicode="ư"/><glyph d="M137 0q-37 0 -22 35l499 1374q8 25 37 25h88q27 0 37 -25l500 -1374q14 -35 -23 -35h-77q-23 0 -31 25l-113 313h-676l-110 -313q-8 -25 -35 -25h-74zM397 453h594l-297 831zM446 1837q-8 8 -4 17.5t19 9.5h67q18 0 33 -17l135 -168l135 168q14 16 33 17h68q12 0 17 -9.5 t-3 -17.5l-174 -211q-14 -16 -31 -16h-90q-18 0 -33 16z" glyph-name="uni01CD" horiz-adv-x="1390" unicode="Ǎ"/><glyph d="M608 -25q-219 0 -358 149.5t-139 377t139 377t358 149.5q135 0 236.5 -61.5t159.5 -169.5l4 178q0 29 26 29h66q27 0 26 -29v-946q0 -29 -26 -29h-66q-27 0 -26 29l-4 174q-120 -228 -396 -228zM229 501.5q0 -182.5 110 -296t284 -113.5q170 0 276.5 111.5t106.5 294.5 q0 184 -106.5 298.5t-276.5 114.5q-172 0 -283 -113.5t-111 -296zM389 1407q-8 8 -4 17.5t18 9.5h68q18 0 33 -17l135 -168l135 168q14 16 33 17h67q12 0 17.5 -9.5t-2.5 -17.5l-174 -211q-14 -16 -31 -16h-90q-18 0 -33 16z" glyph-name="uni01CE" horiz-adv-x="1286" unicode="ǎ"/><glyph d="M211 0q-29 0 -29 29v1376q0 29 29 29h72q27 0 26 -29v-1376q0 -29 -26 -29h-72zM-4 1837q-8 8 -4 17.5t18 9.5h68q18 0 33 -17l135 -168l135 168q14 16 33 17h67q12 0 17.5 -9.5t-2.5 -17.5l-174 -211q-14 -16 -31 -16h-90q-18 0 -33 16z" glyph-name="uni01CF" horiz-adv-x="491" unicode="Ǐ"/><glyph d="M152 0q-27 0 -27 29v946q0 29 27 29h71q25 0 25 -29v-946q0 -29 -25 -29h-71zM-61 1407q-8 8 -4 17.5t18 9.5h67q18 0 33 -17l135 -168l136 168q14 16 32 17h68q12 0 17 -9.5t-3 -17.5l-174 -211q-14 -16 -31 -16h-90q-18 0 -32 16z" glyph-name="uni01D0" horiz-adv-x="372" unicode="ǐ"/><glyph d="M872.5 -27q-309.5 0 -520.5 213t-211 524.5t211 525.5t520.5 214t521.5 -214t212 -525.5t-212 -524.5t-521.5 -213zM270 711q0 -262 173 -437.5t429 -175.5q258 0 431.5 175.5t173.5 437.5q0 264 -173.5 439t-431.5 175t-430 -175t-172 -439zM625 1837q-8 8 -4 17.5 t18 9.5h68q18 0 32 -17l135 -168l136 168q14 16 32 17h68q12 0 17.5 -9.5t-3.5 -17.5l-174 -211q-14 -16 -30 -16h-91q-18 0 -32 16z" glyph-name="uni01D1" horiz-adv-x="1746" unicode="Ǒ"/><glyph d="M623 -25q-219 0 -365.5 152t-146.5 375t146 374.5t366 151.5q217 0 363.5 -150.5t146.5 -376t-146.5 -376t-363.5 -150.5zM231 502q0 -178 111 -294t281 -116q168 0 279.5 116t111.5 294t-111.5 294.5t-279.5 116.5q-170 0 -281 -115.5t-111 -295.5zM373 1407 q-8 8 -4 17.5t18 9.5h68q18 0 32 -17l136 -168l135 168q14 16 33 17h67q12 0 17.5 -9.5t-3.5 -17.5l-174 -211q-14 -16 -30 -16h-90q-18 0 -33 16z" glyph-name="uni01D2" horiz-adv-x="1243" unicode="ǒ"/><glyph d="M639 -27q-211 0 -339 128t-128 358v946q0 29 29 29h71q27 0 27 -29v-928q0 -188 92 -283.5t248 -95.5q154 0 246 95.5t92 283.5v928q0 29 29 29h71q29 0 29 -29v-946q0 -229 -127 -357.5t-340 -128.5zM389 1837q-8 8 -4 17.5t18 9.5h68q18 0 33 -17l135 -168l135 168 q14 16 33 17h67q12 0 17.5 -9.5t-2.5 -17.5l-174 -211q-14 -16 -31 -16h-90q-18 0 -33 16z" glyph-name="uni01D3" horiz-adv-x="1277" unicode="Ǔ"/><glyph d="M526 -25q-168 0 -266 106.5t-98 303.5v590q0 29 24 29h72q27 0 27 -29v-586q0 -139 71.5 -218t200.5 -79q133 0 221 81t88 216v586q0 29 25 29h72q27 0 26 -29v-946q0 -29 -26 -29h-64q-27 0 -29 31l-4 131q-104 -187 -340 -187zM328 1407q-8 8 -4 17.5t18 9.5h68 q18 0 32 -17l136 -168l135 168q14 16 32 17h68q12 0 17.5 -9.5t-3.5 -17.5l-174 -211q-14 -16 -30 -16h-91q-18 0 -32 16z" glyph-name="uni01D4" unicode="ǔ"/><glyph d="M639 -27q-211 0 -339 128t-128 358v946q0 29 29 29h71q27 0 27 -29v-928q0 -188 92 -283.5t248 -95.5q154 0 246 95.5t92 283.5v928q0 29 29 29h71q29 0 29 -29v-946q0 -229 -127 -357.5t-340 -128.5zM338 2167v47q0 29 29 29h546q29 0 29 -29v-47q0 -29 -29 -29h-546 q-29 0 -29 29zM381 1798q0 31 22.5 53.5t55.5 22.5t55.5 -22.5t22.5 -53.5t-22.5 -53.5t-55.5 -22.5t-55.5 22.5t-22.5 53.5zM737 1798q0 31 23.5 53.5t54.5 22.5q33 0 55.5 -22.5t22.5 -53.5t-22.5 -53.5t-55.5 -22.5q-31 0 -54.5 22.5t-23.5 53.5z" glyph-name="uni01D5" horiz-adv-x="1277" unicode="Ǖ"/><glyph d="M526 -25q-168 0 -266 106.5t-98 303.5v590q0 29 24 29h72q27 0 27 -29v-586q0 -139 71.5 -218t200.5 -79q133 0 221 81t88 216v586q0 29 25 29h72q27 0 26 -29v-946q0 -29 -26 -29h-64q-27 0 -29 31l-4 131q-104 -187 -340 -187zM276 1737v47q0 29 29 28h547q29 0 29 -28 v-47q0 -29 -29 -29h-547q-29 0 -29 29zM319 1368q0 31 23 53.5t55.5 22.5t55 -22.5t22.5 -53.5t-22.5 -53.5t-55 -22.5t-55.5 22.5t-23 53.5zM676 1368q0 31 23.5 53.5t54.5 22.5q33 0 55 -22.5t22 -53.5t-22.5 -53.5t-54.5 -22.5q-31 0 -54.5 22.5t-23.5 53.5z" glyph-name="uni01D6" unicode="ǖ"/><glyph d="M639 -27q-211 0 -339 128t-128 358v946q0 29 29 29h71q27 0 27 -29v-928q0 -188 92 -283.5t248 -95.5q154 0 246 95.5t92 283.5v928q0 29 29 29h71q29 0 29 -29v-946q0 -229 -127 -357.5t-340 -128.5zM381 1798q0 31 22.5 53.5t55.5 22.5t55.5 -22.5t22.5 -53.5 t-22.5 -53.5t-55.5 -22.5t-55.5 22.5t-22.5 53.5zM586 1982l112 236q10 25 35 25h66q35 0 16 -33l-115 -236q-14 -25 -34 -24h-62q-36 -1 -18 32zM737 1798q0 31 23.5 53.5t54.5 22.5q33 0 55.5 -22.5t22.5 -53.5t-22.5 -53.5t-55.5 -22.5q-31 0 -54.5 22.5t-23.5 53.5z" glyph-name="uni01D7" horiz-adv-x="1277" unicode="Ǘ"/><glyph d="M526 -25q-168 0 -266 106.5t-98 303.5v590q0 29 24 29h72q27 0 27 -29v-586q0 -139 71.5 -218t200.5 -79q133 0 221 81t88 216v586q0 29 25 29h72q27 0 26 -29v-946q0 -29 -26 -29h-64q-27 0 -29 31l-4 131q-104 -187 -340 -187zM319 1368q0 31 23 53.5t55.5 22.5 t55 -22.5t22.5 -53.5t-22.5 -53.5t-55 -22.5t-55.5 22.5t-23 53.5zM524 1552l113 236q10 25 35 24h65q35 0 17 -32l-115 -236q-14 -25 -35 -24h-61q-37 -1 -19 32zM676 1368q0 31 23.5 53.5t54.5 22.5q33 0 55 -22.5t22 -53.5t-22.5 -53.5t-54.5 -22.5q-31 0 -54.5 22.5 t-23.5 53.5z" glyph-name="uni01D8" unicode="ǘ"/><glyph d="M639 -27q-211 0 -339 128t-128 358v946q0 29 29 29h71q27 0 27 -29v-928q0 -188 92 -283.5t248 -95.5q154 0 246 95.5t92 283.5v928q0 29 29 29h71q29 0 29 -29v-946q0 -229 -127 -357.5t-340 -128.5zM381 1798q0 31 22.5 53.5t55.5 22.5t55.5 -22.5t22.5 -53.5 t-22.5 -53.5t-55.5 -22.5t-55.5 22.5t-22.5 53.5zM389 2216q-8 8 -4 17.5t18 9.5h68q18 0 33 -17l135 -168l135 168q14 16 33 17h67q12 0 17.5 -9.5t-2.5 -17.5l-174 -211q-14 -16 -31 -16h-90q-18 0 -33 16zM737 1798q0 31 23.5 53.5t54.5 22.5q33 0 55.5 -22.5t22.5 -53.5 t-22.5 -53.5t-55.5 -22.5q-31 0 -54.5 22.5t-23.5 53.5z" glyph-name="uni01D9" horiz-adv-x="1277" unicode="Ǚ"/><glyph d="M526 -25q-168 0 -266 106.5t-98 303.5v590q0 29 24 29h72q27 0 27 -29v-586q0 -139 71.5 -218t200.5 -79q133 0 221 81t88 216v586q0 29 25 29h72q27 0 26 -29v-946q0 -29 -26 -29h-64q-27 0 -29 31l-4 131q-104 -187 -340 -187zM319 1368q0 31 23 53.5t55.5 22.5 t55 -22.5t22.5 -53.5t-22.5 -53.5t-55 -22.5t-55.5 22.5t-23 53.5zM328 1786q-8 8 -4 17t18 9h68q18 0 32 -16l136 -168l135 168q14 16 32 16h68q12 0 17.5 -9t-3.5 -17l-174 -211q-14 -16 -30 -16h-91q-18 0 -32 16zM676 1368q0 31 23.5 53.5t54.5 22.5q33 0 55 -22.5 t22 -53.5t-22.5 -53.5t-54.5 -22.5q-31 0 -54.5 22.5t-23.5 53.5z" glyph-name="uni01DA" unicode="ǚ"/><glyph d="M639 -27q-211 0 -339 128t-128 358v946q0 29 29 29h71q27 0 27 -29v-928q0 -188 92 -283.5t248 -95.5q154 0 246 95.5t92 283.5v928q0 29 29 29h71q29 0 29 -29v-946q0 -229 -127 -357.5t-340 -128.5zM381 1798q0 31 22.5 53.5t55.5 22.5t55.5 -22.5t22.5 -53.5 t-22.5 -53.5t-55.5 -22.5t-55.5 22.5t-22.5 53.5zM455 2210q-18 33 18 33h59q23 0 33 -25l119 -236q18 -33 -18 -32h-58q-18 0 -33 24zM737 1798q0 31 23.5 53.5t54.5 22.5q33 0 55.5 -22.5t22.5 -53.5t-22.5 -53.5t-55.5 -22.5q-31 0 -54.5 22.5t-23.5 53.5z" glyph-name="uni01DB" horiz-adv-x="1277" unicode="Ǜ"/><glyph d="M526 -25q-168 0 -266 106.5t-98 303.5v590q0 29 24 29h72q27 0 27 -29v-586q0 -139 71.5 -218t200.5 -79q133 0 221 81t88 216v586q0 29 25 29h72q27 0 26 -29v-946q0 -29 -26 -29h-64q-27 0 -29 31l-4 131q-104 -187 -340 -187zM319 1368q0 31 23 53.5t55.5 22.5 t55 -22.5t22.5 -53.5t-22.5 -53.5t-55 -22.5t-55.5 22.5t-23 53.5zM393 1780q-18 33 19 32h59q23 0 33 -24l119 -236q18 -33 -19 -32h-57q-18 0 -33 24zM676 1368q0 31 23.5 53.5t54.5 22.5q33 0 55 -22.5t22 -53.5t-22.5 -53.5t-54.5 -22.5q-31 0 -54.5 22.5t-23.5 53.5z " glyph-name="uni01DC" unicode="ǜ"/><glyph d="M874 -27q-317 0 -525 213t-208 524.5t208 525.5t523 214q281 0 484 -190q20 -16 4 -33l-51 -60q-14 -16 -31 0q-184 158 -406 158q-258 0 -430 -175t-172 -439q0 -262 173 -437.5t431 -175.5q238 0 388.5 145.5t146.5 370.5h-512q-29 0 -29 27v64q0 27 29 26h608 q31 0 31 -31v-51q0 -293 -181.5 -484.5t-480.5 -191.5zM616 1837q-8 8 -4 17.5t19 9.5h67q18 0 33 -17l135 -168l135 168q14 16 33 17h68q12 0 17 -9.5t-3 -17.5l-174 -211q-14 -16 -31 -16h-90q-18 0 -33 16z" glyph-name="Gcaron" horiz-adv-x="1656" unicode="Ǧ"/><glyph d="M604 -420q-209 0 -342 92q-25 16 -16 39l26 47q12 18 35 9q121 -80 293 -80q170 0 281.5 86t111.5 272v180q-123 -215 -391 -215q-217 0 -354 142.5t-137 367.5q0 223 137 365.5t350 142.5q274 0 397 -221l2 168q0 29 25 29h68q25 0 24 -29v-940q0 -225 -147.5 -340 t-362.5 -115zM229 520q0 -180 110 -287.5t277.5 -107.5t272 105.5t104.5 283.5q0 180 -104.5 289.5t-272 109.5t-277.5 -108.5t-110 -284.5zM389 1407q-8 8 -4 17.5t18 9.5h68q18 0 33 -17l135 -168l135 168q14 16 33 17h67q12 0 17.5 -9.5t-2.5 -17.5l-174 -211 q-14 -16 -31 -16h-90q-18 0 -33 16z" glyph-name="gcaron" horiz-adv-x="1275" unicode="ǧ"/><glyph d="M211 0q-29 0 -29 29v1376q0 29 29 29h72q27 0 26 -29v-807l619 819q14 16 37 17h90q20 0 24 -10.5t-8 -26.5l-496 -635l553 -725q10 -16 5 -26.5t-23 -10.5h-84q-25 0 -37 18l-489 646l-191 -242v-393q0 -29 -26 -29h-72zM369 1837q-8 8 -4 17.5t18 9.5h68q18 0 32 -17 l135 -168l136 168q14 16 32 17h68q12 0 17.5 -9.5t-3.5 -17.5l-174 -211q-14 -16 -30 -16h-91q-18 0 -32 16z" glyph-name="uni01E8" horiz-adv-x="1234" unicode="Ǩ"/><glyph d="M186 0q-25 0 -24 29v1407q0 29 24 28h72q27 0 27 -28v-987l495 538q14 16 35 17h94q16 0 18.5 -10.5t-7.5 -18.5l-377 -400l432 -542q10 -12 5 -22.5t-24 -10.5h-75q-25 0 -37 18l-377 474l-182 -195v-268q0 -29 -27 -29h-72zM-20 1868q-8 8 -4 17t18 9h67q18 0 33 -16 l135 -168l136 168q14 16 32 16h68q12 0 17 -9t-3 -17l-174 -211q-14 -16 -31 -17h-90q-18 0 -32 17z" glyph-name="uni01E9" horiz-adv-x="1071" unicode="ǩ"/><glyph d="M1049 -406q-37 -20 -88.5 -16t-99.5 20.5t-80.5 62.5t-32.5 114q0 117 106 198q-303 8 -508 220.5t-205 517.5q0 311 211 525t520.5 214t521.5 -214t212 -525q0 -266 -158 -465t-408 -254q-186 -61 -186 -199q0 -78 52 -105.5t143 -9.5v-84zM270 711q0 -262 173 -437.5 t429 -175.5q258 0 431.5 175.5t173.5 437.5q0 264 -173.5 439t-431.5 175t-430 -175t-172 -439z" glyph-name="uni01EA" horiz-adv-x="1746" unicode="Ǫ"/><glyph d="M760 -406q-37 -20 -88 -16t-99.5 20.5t-81 62.5t-32.5 114q0 117 114 202q-201 18 -331.5 166t-130.5 359q0 223 146 374.5t366 151.5q217 0 363.5 -150.5t146.5 -375.5q0 -180 -98.5 -317.5t-256.5 -186.5q-211 -61 -211 -205q0 -78 51.5 -105.5t141.5 -9.5v-84z M231 502q0 -178 111 -294t281 -116q168 0 279.5 116t111.5 294t-111.5 294.5t-279.5 116.5q-170 0 -281 -115.5t-111 -295.5z" glyph-name="uni01EB" horiz-adv-x="1243" unicode="ǫ"/><glyph d="M545 -25q-276 0 -418 211q-14 23 4 45l35 39q23 25 47 -4q123 -172 334 -172q145 0 227 73t82 193q0 113 -68.5 178.5t-207.5 133.5l-174 86q-246 117 -246 342q0 158 111.5 254t277.5 96q231 0 375 -180q20 -25 0 -49l-31 -35q-25 -27 -51 2q-121 143 -289 143 q-117 0 -192.5 -59.5t-75.5 -167.5q0 -82 46 -140.5t146 -107.5l172 -84q158 -78 245 -168t87 -242q0 -176 -119.5 -281.5t-316.5 -105.5zM438 -485v53q88 2 125 82q27 59 0 82q-6 4 -16 4q-47 -2 -76 24.5t-29 69.5t30 71.5t73 28.5q55 0 91 -46t36 -117q0 -98 -64 -175 t-170 -77z" glyph-name="Scommaaccent" horiz-adv-x="1099" unicode="Ș"/><glyph d="M449 -25q-199 0 -318 148q-18 25 -4 51l25 31q18 27 45 -2q106 -117 249 -117q98 0 158 44t60 128q0 72 -42 114t-126 77l-117 49q-106 45 -166.5 106.5t-60.5 161.5q0 119 87 190.5t212 71.5q180 0 286 -135q18 -20 -2 -45l-22 -27q-23 -27 -49 0q-92 100 -209 101 q-78 0 -131.5 -39t-53.5 -113q0 -72 43 -109.5t142 -76.5l92 -39q113 -45 175 -110.5t62 -174.5q0 -133 -97 -209t-238 -76zM330 -485v53q88 2 125 82q27 59 0 82q-6 4 -17 4q-47 -2 -75.5 24.5t-28.5 69.5t29.5 71.5t72.5 28.5q55 0 91 -46t36 -117q0 -98 -63.5 -175 t-169.5 -77z" glyph-name="scommaaccent" horiz-adv-x="905" unicode="ș"/><glyph d="M508 0q-27 0 -27 29v1290h-311q-29 0 -29 27v59q0 29 29 29h750q29 0 28 -29v-59q0 -27 -28 -27h-312v-1290q0 -29 -28 -29h-72zM432 -475v53q88 2 125 82q27 59 0 82q-6 4 -16 4q-47 -2 -76 24.5t-29 69.5t30 72t73 29q55 0 91 -46.5t36 -117.5q0 -98 -64 -175t-170 -77 z" glyph-name="uni021A" horiz-adv-x="1089" unicode="Ț"/><glyph d="M457 -12q-197 0 -197 205v706h-131q-29 0 -29 29v47q0 29 29 29h131v237q0 29 27 29h69q27 0 27 -29v-237h172q29 0 29 -29v-47q0 -29 -29 -29h-172v-688q0 -61 21.5 -87t70.5 -26q14 0 64 6q41 6 41 -26v-49q0 -41 -123 -41zM328 -487v53q88 2 125 82q27 59 0 82 q-6 4 -17 4q-47 -2 -75.5 24.5t-28.5 69.5t29.5 71.5t72.5 28.5q55 0 91 -46t36 -118q0 -98 -63.5 -174.5t-169.5 -76.5z" glyph-name="uni021B" horiz-adv-x="684" unicode="ț"/><glyph d="M57 -410q-55 0 -88 13q-18 8 -18 26v68q0 18 24 14q37 -6 66 -6q82 0 111.5 44t29.5 126v1100q0 29 27 29h70q27 0 26 -29v-1131q0 -254 -248 -254z" glyph-name="uni0237" horiz-adv-x="446" unicode="ȷ"/><glyph d="M580 -25q-215 0 -342 140.5t-127 335.5q0 53 13 73.5t54 20.5h783q-14 168 -123 272.5t-295 104.5q-166 0 -301 -103q-14 -14 -29 2l-29 35q-12 18 9 43q139 129 358 129q240 0 384 -152.5t144 -377.5q0 -223 -140 -373t-359 -150zM221 444q4 -160 101.5 -258t257 -98 t262 97.5t119.5 258.5h-740z" glyph-name="uni0259" horiz-adv-x="1189" unicode="ə"/><glyph d="M201 1038q-53 0 -90 46t-37 118q0 104 63.5 184t171.5 78v-53q-88 -2 -125 -86q-29 -61 0 -86q6 -6 17 -6q47 2 75.5 -24.5t28.5 -69.5t-30.5 -72t-73.5 -29z" glyph-name="afii57929" horiz-adv-x="380" unicode="ʼ"/><glyph d="M309 1044q-109 0 -172 80t-63 183q0 72 36.5 117.5t90.5 45.5q43 0 73.5 -27.5t30.5 -70.5t-28.5 -69.5t-75.5 -24.5q-35 2 -29 -53q8 -72 72 -109q29 -18 65 -18v-54z" glyph-name="afii64937" horiz-adv-x="380" unicode="ʽ"/><glyph d="M49 1180q-14 0 -18 9t4 17l172 211q14 16 33 17h90q16 0 30 -17l175 -211q8 -8 2.5 -17t-17.5 -9h-67q-18 0 -33 16l-135 168l-135 -168q-14 -16 -33 -16h-68z" glyph-name="circumflex" horiz-adv-x="569" unicode="ˆ"/><glyph d="M240 1180q-18 0 -33 16l-172 211q-8 8 -4 17.5t18 9.5h68q18 0 33 -17l135 -168l135 168q14 16 33 17h67q12 0 17.5 -9.5t-2.5 -17.5l-175 -211q-14 -16 -30 -16h-90z" glyph-name="caron" horiz-adv-x="569" unicode="ˇ"/><glyph d="M301 1169q-117 0 -190.5 65.5t-79.5 168.5q-2 31 28 31h39q29 0 33 -29q8 -66 53 -104.5t117 -38.5t117 38.5t55 104.5q4 29 33 29h39q33 0 28 -31q-6 -102 -79.5 -168t-192.5 -66z" glyph-name="breve" horiz-adv-x="604" unicode="˘"/><glyph d="M113 1284q-35 0 -58.5 23.5t-23.5 58.5t23.5 58.5t58.5 23.5q33 0 56.5 -23.5t23.5 -58.5t-23.5 -58.5t-56.5 -23.5z" glyph-name="dotaccent" horiz-adv-x="223" unicode="˙"/><glyph d="M186.5 1159q-65.5 0 -110.5 44t-45 108q0 66 45 108.5t110.5 42.5t110.5 -43t45 -108q0 -63 -45 -107.5t-110.5 -44.5zM127 1310.5q0 -26.5 16.5 -43t42.5 -16.5q25 0 42.5 16.5t17.5 43t-17.5 43t-42.5 16.5q-27 0 -43 -16.5t-16 -43z" glyph-name="ring" horiz-adv-x="372" unicode="˚"/><glyph d="M322 -406q-88 -39 -195 7.5t-107 175.5q0 90 59.5 159.5t134.5 99.5t140 30v-66q-92 0 -158.5 -57.5t-66.5 -145.5q0 -74 52 -105.5t141 -13.5v-84z" glyph-name="ogonek" horiz-adv-x="374" unicode="˛"/><glyph d="M455 1253q-72 0 -141.5 63.5t-114.5 63.5q-31 0 -50.5 -16t-23.5 -41q-2 -18 -23 -18h-53q-18 0 -18 24q2 66 49 105t110 39q72 0 141.5 -63.5t114.5 -63.5q31 0 50.5 16t23.5 41q4 18 23 18h51q20 0 20 -20q-2 -70 -47.5 -109t-111.5 -39z" glyph-name="tilde" horiz-adv-x="645" unicode="˜"/><glyph d="M305 1141q-37 0 -18 33l112 235q10 25 35 25h66q35 0 16 -33l-115 -236q-14 -25 -34 -24h-62zM35 1174l112 235q10 25 35 25h66q35 0 16 -33l-114 -236q-14 -25 -35 -24h-62q-36 0 -18 33z" glyph-name="hungarumlaut" horiz-adv-x="550" unicode="˝"/><glyph d="M188 1141q-18 0 -32 24l-121 236q-18 33 18 33h60q23 0 32 -25l119 -235q18 -33 -18 -33h-58z" glyph-name="gravecomb" horiz-adv-x="0" unicode="̀"/><glyph d="M53 1141q-37 0 -18 33l112 235q10 25 35 25h66q35 0 16 -33l-114 -236q-14 -25 -35 -24h-62z" glyph-name="acutecomb" horiz-adv-x="0" unicode="́"/><glyph d="M49 1180q-14 0 -18 9t4 17l172 211q14 16 33 17h90q16 0 30 -17l175 -211q8 -8 2.5 -17t-17.5 -9h-67q-18 0 -33 16l-135 168l-135 -168q-14 -16 -33 -16h-68z" glyph-name="uni0302" horiz-adv-x="0" unicode="̂"/><glyph d="M455 1253q-72 0 -141.5 63.5t-114.5 63.5q-31 0 -50.5 -16t-23.5 -41q-2 -18 -23 -18h-53q-18 0 -18 24q2 66 49 105t110 39q72 0 141.5 -63.5t114.5 -63.5q31 0 50.5 16t23.5 41q4 18 23 18h51q20 0 20 -20q-2 -70 -47.5 -109t-111.5 -39z" glyph-name="tildecomb" horiz-adv-x="0" unicode="̃"/><glyph d="M59 1329q-29 0 -28 29v47q0 29 28 29h547q29 0 29 -29v-47q0 -29 -29 -29h-547z" glyph-name="uni0304" horiz-adv-x="0" unicode="̄"/><glyph d="M301 1169q-117 0 -190.5 65.5t-79.5 168.5q-2 31 28 31h39q29 0 33 -29q8 -66 53 -104.5t117 -38.5t117 38.5t55 104.5q4 29 33 29h39q33 0 28 -31q-6 -102 -79.5 -168t-192.5 -66z" glyph-name="uni0306" horiz-adv-x="0" unicode="̆"/><glyph d="M113 1284q-35 0 -58.5 23.5t-23.5 58.5t23.5 58.5t58.5 23.5q33 0 56.5 -23.5t23.5 -58.5t-23.5 -58.5t-56.5 -23.5z" glyph-name="uni0307" horiz-adv-x="0" unicode="̇"/><glyph d="M465 1292q-31 0 -54.5 22.5t-23.5 53.5t23.5 53.5t54.5 22.5q33 0 55.5 -22.5t22.5 -53.5t-22.5 -53.5t-55.5 -22.5zM31 1368q0 31 22.5 53.5t55 22.5t55 -22.5t22.5 -53.5t-22.5 -53.5t-55 -22.5t-55 22.5t-22.5 53.5z" glyph-name="uni0308" horiz-adv-x="0" unicode="̈"/><glyph d="M258 1194q-27 0 -27 29v24q0 27 29 31q49 6 81 37t32 82q0 49 -32 78.5t-83 29.5q-47 0 -80 -28q-25 -20 -43 -4l-20 14q-23 23 -4 43q59 66 147 65q90 0 148.5 -56t58.5 -142q0 -96 -68.5 -149.5t-138.5 -53.5z" glyph-name="hookabovecomb" horiz-adv-x="0" unicode="̉"/><glyph d="M186.5 1159q-65.5 0 -110.5 44t-45 108q0 66 45 108.5t110.5 42.5t110.5 -43t45 -108q0 -63 -45 -107.5t-110.5 -44.5zM127 1310.5q0 -26.5 16.5 -43t42.5 -16.5q25 0 42.5 16.5t17.5 43t-17.5 43t-42.5 16.5q-27 0 -43 -16.5t-16 -43z" glyph-name="uni030A" horiz-adv-x="0" unicode="̊"/><glyph d="M305 1141q-37 0 -18 33l112 235q10 25 35 25h66q35 0 16 -33l-115 -236q-14 -25 -34 -24h-62zM35 1174l112 235q10 25 35 25h66q35 0 16 -33l-114 -236q-14 -25 -35 -24h-62q-36 0 -18 33z" glyph-name="uni030B" horiz-adv-x="0" unicode="̋"/><glyph d="M240 1180q-18 0 -33 16l-172 211q-8 8 -4 17.5t18 9.5h68q18 0 33 -17l135 -168l135 168q14 16 33 17h67q12 0 17.5 -9.5t-2.5 -17.5l-175 -211q-14 -16 -30 -16h-90z" glyph-name="uni030C" horiz-adv-x="0" unicode="̌"/><glyph d="M201 1171q-53 0 -90 46.5t-37 117.5q0 104 63.5 184t171.5 78v-53q-88 -2 -125 -86q-29 -61 0 -86q6 -6 17 -6q47 2 75.5 -24.5t28.5 -69.5t-30.5 -72t-73.5 -29z" glyph-name="uni0312" horiz-adv-x="0" unicode="̒"/><glyph d="M0 895v109h127q141 0 141 133v104q0 29 27 29h72q25 0 24 -29v-115q0 -117 -67.5 -174t-186.5 -57h-137z" glyph-name="uni031B" horiz-adv-x="0" unicode="̛"/><glyph d="M186.5 -410q-34.5 0 -59.5 24t-25 60q0 33 25 57.5t59.5 24.5t59 -24.5t24.5 -57.5q0 -37 -24.5 -60.5t-59 -23.5z" glyph-name="dotbelowcomb" horiz-adv-x="0" unicode="̣"/><glyph d="M-6 -432q88 2 127 82q27 59 0 82q-6 4 -17 4q-49 -2 -77.5 24.5t-28.5 69.5t30.5 71.5t73.5 28.5q55 0 91 -46t36 -117q0 -98 -63.5 -175t-171.5 -77v53z" glyph-name="uni0326" horiz-adv-x="0" unicode="̦"/><glyph d="M49 -430q-18 4 -18 22v43q0 20 22 21q190 -10 191 88q0 57 -56.5 78.5t-132.5 -2.5q-25 -4 -24 14v39q0 10 10 25l92 102h117l-82 -86q76 -2 127 -44t51 -114q0 -111 -89 -155.5t-208 -30.5z" glyph-name="uni0327" horiz-adv-x="0" unicode="̧"/><glyph d="M322 -406q-88 -39 -195 7.5t-107 175.5q0 90 59.5 159.5t134.5 99.5t140 30v-66q-92 0 -158.5 -57.5t-66.5 -145.5q0 -74 52 -105.5t141 -13.5v-84z" glyph-name="uni0328" horiz-adv-x="0" unicode="̨"/><glyph d="M508 0q-27 0 -27 29v1290h-311q-29 0 -29 27v59q0 29 29 29h750q29 0 28 -29v-59q0 -27 -28 -27h-312v-1290q0 -29 -28 -29h-72z" glyph-name="uni0372" horiz-adv-x="1089" unicode="Ͳ"/><glyph d="M0 786l233 648h103l-234 -648h-102z" glyph-name="uni0374" horiz-adv-x="335" unicode="ʹ"/><glyph d="M0 -389l233 647h103l-234 -647h-102z" glyph-name="uni0375" horiz-adv-x="335" unicode="͵"/><glyph d="M190.5 840q-38.5 0 -66.5 27.5t-28 66.5t28 66.5t66.5 27.5t66.5 -27.5t28 -66.5t-28 -66.5t-66.5 -27.5zM94 -254v53q88 2 125 82q27 59 0 82q-6 4 -16 4q-47 -2 -76 24.5t-29 69.5t30 72t73 29q55 0 91 -46t36 -118q0 -98 -64 -175t-170 -77z" glyph-name="uni037E" horiz-adv-x="421" unicode=";"/><glyph d="M84 1141q-33 0 -18 33l96 235q10 25 33 25h59q33 0 18 -33l-96 -236q-10 -25 -35 -24h-57z" glyph-name="tonos" horiz-adv-x="337" unicode="΄"/><glyph d="M223 1141q-33 0 -18 33l90 235q10 25 35 25h57q33 0 19 -33l-93 -236q-10 -25 -34 -24h-56zM61 1366q0 31 25 54.5t57.5 23.5t56 -23.5t23.5 -54.5q0 -33 -23.5 -57.5t-56 -24.5t-57.5 24.5t-25 57.5zM434 1366q0 31 24.5 54.5t57.5 23.5t56.5 -23.5t23.5 -54.5 q0 -33 -23.5 -57.5t-56.5 -24.5t-57.5 24.5t-24.5 57.5z" glyph-name="dieresistonos" horiz-adv-x="657" unicode="΅"/><glyph d="M137 0q-37 0 -22 35l499 1374q8 25 37 25h88q27 0 37 -25l500 -1374q14 -35 -23 -35h-77q-23 0 -31 25l-113 313h-676l-110 -313q-8 -25 -35 -25h-74zM233 1174l97 235q10 25 32 25h60q33 0 18 -33l-96 -236q-10 -25 -35 -24h-57q-33 0 -19 33zM397 453h594l-297 831z " glyph-name="Alphatonos" horiz-adv-x="1390" unicode="Ά"/><glyph d="M227 840q-39 0 -66.5 27.5t-27.5 66.5t27.5 66.5t66.5 27.5t67 -27.5t28 -66.5t-28 -66.5t-67 -27.5z" glyph-name="anoteleia" horiz-adv-x="454" unicode="·"/><glyph d="M211 0q-29 0 -29 29v1376q0 29 29 29h678q29 0 29 -29v-59q0 -27 -29 -27h-580v-518h551q27 0 27 -29v-59q0 -29 -27 -29h-551v-567h582q29 0 29 -29v-59q0 -29 -29 -29h-680zM-111 1174l97 235q10 25 32 25h60q33 0 18 -33l-96 -236q-10 -25 -35 -24h-57q-33 0 -19 33z " glyph-name="Epsilontonos" horiz-adv-x="1081" unicode="Έ"/><glyph d="M211 0q-29 0 -29 29v1376q0 29 29 29h72q27 0 26 -29v-635h705v635q0 29 28 29h72q29 0 29 -29v-1376q0 -29 -29 -29h-72q-29 0 -28 29v626h-705v-626q0 -29 -26 -29h-72zM-137 1174l96 235q10 25 33 25h59q33 0 19 -33l-97 -236q-10 -25 -34 -24h-58q-32 0 -18 33z" glyph-name="Etatonos" horiz-adv-x="1323" unicode="Ή"/><glyph d="M211 0q-29 0 -29 29v1376q0 29 29 29h72q27 0 26 -29v-1376q0 -29 -26 -29h-72zM-137 1174l96 235q10 25 33 25h59q33 0 19 -33l-97 -236q-10 -25 -34 -24h-58q-32 0 -18 33z" glyph-name="Iotatonos" horiz-adv-x="491" unicode="Ί"/><glyph d="M872.5 -27q-309.5 0 -520.5 213t-211 524.5t211 525.5t520.5 214t521.5 -214t212 -525.5t-212 -524.5t-521.5 -213zM-4 1174l96 235q10 25 33 25h59q33 0 19 -33l-97 -236q-10 -25 -34 -24h-58q-32 0 -18 33zM270 711q0 -262 173 -437.5t429 -175.5q258 0 431.5 175.5 t173.5 437.5q0 264 -173.5 439t-431.5 175t-430 -175t-172 -439z" glyph-name="Omicrontonos" horiz-adv-x="1746" unicode="Ό"/><glyph d="M569 0q-29 0 -28 29v663l-424 705q-10 16 -5 26.5t23 10.5h82q20 0 33 -21l356 -598l355 598q12 20 34 21h82q39 0 17 -37l-424 -705v-663q0 -29 -29 -29h-72zM-127 1174l96 235q10 25 33 25h59q33 0 19 -33l-96 -236q-10 -25 -35 -24h-58q-32 0 -18 33z" glyph-name="Upsilontonos" horiz-adv-x="1210" unicode="Ύ"/><glyph d="M211 0q-31 0 -31 31v49q0 31 31 31h246v30q-315 221 -316 596q0 307 205 510t510 203q303 0 508 -204t205 -509q0 -375 -316 -596v-30h246q31 0 31 -31v-49q0 -31 -31 -31h-336q-31 0 -30 31v166q147 88 230 226t83 314q0 264 -169 427t-421 163q-254 0 -423 -163 t-169 -427q0 -176 83 -314t231 -226v-166q0 -31 -31 -31h-336zM-4 1174l96 235q10 25 33 25h59q33 0 19 -33l-97 -236q-10 -25 -34 -24h-58q-32 0 -18 33z" glyph-name="Omegatonos" horiz-adv-x="1710" unicode="Ώ"/><glyph d="M358 -25q-197 0 -196 205v795q0 29 24 29h72q27 0 27 -29v-780q0 -59 21.5 -85t70.5 -26q31 0 63 4q39 8 39 -25v-47q0 -41 -121 -41zM29 1366q0 31 24.5 54.5t57 23.5t56 -23.5t23.5 -54.5q0 -33 -23.5 -57.5t-56 -24.5t-57 24.5t-24.5 57.5zM172 1174l90 235 q10 25 35 25h57q33 0 19 -33l-92 -236q-10 -25 -35 -24h-56q-32 0 -18 33zM401 1366q0 31 25 54.5t57.5 23.5t56 -23.5t23.5 -54.5q0 -33 -23.5 -57.5t-56 -24.5t-57.5 24.5t-25 57.5z" glyph-name="iotadieresistonos" horiz-adv-x="548" unicode="ΐ"/><glyph d="M137 0q-37 0 -22 35l499 1374q8 25 37 25h88q27 0 37 -25l500 -1374q14 -35 -23 -35h-77q-23 0 -31 25l-113 313h-676l-110 -313q-8 -25 -35 -25h-74zM397 453h594l-297 831z" glyph-name="Alpha" horiz-adv-x="1390" unicode="Α"/><glyph d="M211 0q-29 0 -29 29v1376q0 29 29 29h401q203 0 295 -99.5t92 -242.5q0 -106 -52 -191.5t-159 -120.5q141 -33 219 -137t78 -246q0 -180 -122.5 -288.5t-354.5 -108.5h-397zM309 117h291q354 0 354 297q0 143 -90 223t-264 80h-291v-600zM309 823h297q125 0 198 69 t73 189q0 236 -271 236h-297v-494z" glyph-name="Beta" horiz-adv-x="1193" unicode="Β"/><glyph d="M211 0q-29 0 -29 29v1376q0 29 29 29h659q31 0 31 -31v-60q0 -31 -31 -30h-561v-1284q0 -29 -26 -29h-72z" glyph-name="Gamma" horiz-adv-x="1011" unicode="Γ"/><glyph d="M133 0q-14 0 -20.5 11.5t0.5 27.5l497 1370q8 25 37 25h88q27 0 37 -25l500 -1370q10 -39 -23 -39h-1116zM274 121h834l-416 1163z" glyph-name="Delta" horiz-adv-x="1382" unicode="Δ"/><glyph d="M211 0q-29 0 -29 29v1376q0 29 29 29h678q29 0 29 -29v-59q0 -27 -29 -27h-580v-518h551q27 0 27 -29v-59q0 -29 -27 -29h-551v-567h582q29 0 29 -29v-59q0 -29 -29 -29h-680z" glyph-name="Epsilon" horiz-adv-x="1081" unicode="Ε"/><glyph d="M160 0q-29 0 -29 29v69q0 18 12 37l723 1184h-686q-29 0 -28 27v59q0 29 28 29h793q29 0 28 -29v-70q0 -18 -12 -37l-723 -1181h727q29 0 29 -29v-59q0 -29 -29 -29h-833z" glyph-name="Zeta" horiz-adv-x="1163" unicode="Ζ"/><glyph d="M211 0q-29 0 -29 29v1376q0 29 29 29h72q27 0 26 -29v-635h705v635q0 29 28 29h72q29 0 29 -29v-1376q0 -29 -29 -29h-72q-29 0 -28 29v626h-705v-626q0 -29 -26 -29h-72z" glyph-name="Eta" horiz-adv-x="1323" unicode="Η"/><glyph d="M584 657q-27 0 -27 29v49q0 29 27 29h577q29 0 29 -29v-49q0 -29 -29 -29h-577zM141 710.5q0 311.5 211 525.5t520.5 214t521.5 -214t212 -525.5t-212 -524.5t-521.5 -213t-520.5 213t-211 524.5zM270 711q0 -262 173 -437.5t429 -175.5q258 0 431.5 175.5t173.5 437.5 q0 264 -173.5 439t-431.5 175t-430 -175t-172 -439z" glyph-name="Theta" horiz-adv-x="1746" unicode="Θ"/><glyph d="M211 0q-29 0 -29 29v1376q0 29 29 29h72q27 0 26 -29v-1376q0 -29 -26 -29h-72z" glyph-name="Iota" horiz-adv-x="491" unicode="Ι"/><glyph d="M211 0q-29 0 -29 29v1376q0 29 29 29h72q27 0 26 -29v-807l619 819q14 16 37 17h90q20 0 24 -10.5t-8 -26.5l-496 -635l553 -725q10 -16 5 -26.5t-23 -10.5h-84q-25 0 -37 18l-489 646l-191 -242v-393q0 -29 -26 -29h-72z" glyph-name="Kappa" horiz-adv-x="1234" unicode="Κ"/><glyph d="M137 0q-37 0 -22 35l499 1374q8 25 37 25h88q27 0 37 -25l500 -1374q14 -35 -23 -35h-77q-23 0 -31 25l-451 1261l-448 -1261q-8 -25 -35 -25h-74z" glyph-name="Lambda" horiz-adv-x="1390" unicode="Λ"/><glyph d="M211 0q-29 0 -29 29v1376q0 29 29 29h108q23 0 31 -21l543 -1276l543 1276q8 20 32 21h109q27 0 27 -29v-1376q0 -29 -27 -29h-72q-29 0 -28 29v1206l-33 -96l-475 -1116q-8 -23 -35 -23h-82q-27 0 -35 23l-475 1116l-33 96v-1206q0 -29 -26 -29h-72z" glyph-name="Mu" horiz-adv-x="1785" unicode="Μ"/><glyph d="M1044 0q-25 0 -36 20l-699 1240v-1231q0 -29 -26 -29h-72q-29 0 -29 29v1376q0 29 29 29h104q25 0 37 -21l699 -1239v1231q0 29 28 29h72q27 0 27 -29v-1376q0 -29 -27 -29h-107z" glyph-name="Nu" horiz-adv-x="1359" unicode="Ν"/><glyph d="M193 1319q-29 0 -29 27v59q0 29 29 29h759q29 0 29 -29v-59q0 -27 -29 -27h-759zM162 29v59q0 29 28 29h764q29 0 29 -29v-59q0 -29 -29 -29h-764q-28 0 -28 29zM193 713v59q0 29 28 29h703q29 0 28 -29v-59q0 -29 -28 -29h-703q-28 0 -28 29z" glyph-name="Xi" horiz-adv-x="1144" unicode="Ξ"/><glyph d="M872.5 -27q-309.5 0 -520.5 213t-211 524.5t211 525.5t520.5 214t521.5 -214t212 -525.5t-212 -524.5t-521.5 -213zM270 711q0 -262 173 -437.5t429 -175.5q258 0 431.5 175.5t173.5 437.5q0 264 -173.5 439t-431.5 175t-430 -175t-172 -439z" glyph-name="Omicron" horiz-adv-x="1746" unicode="Ο"/><glyph d="M211 0q-29 0 -29 29v1376q0 29 29 29h897q29 0 29 -29v-1376q0 -29 -29 -29h-72q-27 0 -26 29v1284h-701v-1284q0 -29 -26 -29h-72z" glyph-name="Pi" horiz-adv-x="1318" unicode="Π"/><glyph d="M211 0q-29 0 -29 29v1376q0 29 29 29h383q223 0 345 -122t122 -320.5t-122 -319.5t-345 -121h-285v-522q0 -29 -26 -29h-72zM309 666h273q160 0 256 78.5t96 246.5q0 170 -96.5 249t-255.5 79h-273v-653z" glyph-name="Rho" horiz-adv-x="1179" unicode="Ρ"/><glyph d="M211 0q-29 0 -29 29v67q0 18 11 39l317 582l-317 583q-10 16 -11 39v66q0 29 29 29h682q29 0 29 -29v-59q0 -27 -29 -27h-576l320 -582q10 -20 0 -41l-318 -579h578q27 0 27 -29v-59q0 -29 -27 -29h-686z" glyph-name="Sigma" horiz-adv-x="1085" unicode="Σ"/><glyph d="M508 0q-27 0 -27 29v1290h-311q-29 0 -29 27v59q0 29 29 29h750q29 0 28 -29v-59q0 -27 -28 -27h-312v-1290q0 -29 -28 -29h-72z" glyph-name="Tau" horiz-adv-x="1089" unicode="Τ"/><glyph d="M569 0q-29 0 -28 29v663l-424 705q-10 16 -5 26.5t23 10.5h82q20 0 33 -21l356 -598l355 598q12 20 34 21h82q39 0 17 -37l-424 -705v-663q0 -29 -29 -29h-72z" glyph-name="Upsilon" horiz-adv-x="1210" unicode="Υ"/><glyph d="M737 123q-158 0 -280.5 49t-196.5 133t-111.5 188.5t-37.5 223.5t37.5 223t111.5 188t197 133.5t280 49.5h4v94q0 29 27 29h72q29 0 28 -29v-94h2q309 0 469 -171t160 -423t-159.5 -423t-469.5 -171h-2v-94q0 -29 -28 -29h-72q-27 0 -27 29v94h-4zM240 717 q0 -211 124.5 -342t376.5 -131v946q-252 0 -376.5 -131t-124.5 -342zM868 244q252 0 376 131t124 342t-124 342t-376 131v-946z" glyph-name="Phi" horiz-adv-x="1628" unicode="Φ"/><glyph d="M152 0q-37 0 -15 37l432 698l-411 662q-23 37 14 37h84q18 0 35 -21l350 -565l350 565q12 20 33 21h84q37 0 14 -37l-411 -662l432 -698q23 -37 -15 -37h-79q-23 0 -35 20l-373 603l-375 -603q-12 -20 -35 -20h-79z" glyph-name="Chi" horiz-adv-x="1280" unicode="Χ"/><glyph d="M729 289q-270 0 -413.5 139t-143.5 377v600q0 29 29 29h71q27 0 27 -29v-590q0 -199 110.5 -305.5t321.5 -106.5h4v1002q0 29 29 29h72q29 0 28 -29v-1002h2q211 0 321.5 106.5t110.5 305.5v590q0 29 29 29h72q29 0 28 -29v-600q0 -238 -143 -377t-414 -139h-6v-260 q0 -29 -28 -29h-72q-29 0 -29 29v260h-6z" glyph-name="Psi" horiz-adv-x="1597" unicode="Ψ"/><glyph d="M211 0q-31 0 -31 31v49q0 31 31 31h246v30q-315 221 -316 596q0 307 205 510t510 203q303 0 508 -204t205 -509q0 -375 -316 -596v-30h246q31 0 31 -31v-49q0 -31 -31 -31h-336q-31 0 -30 31v166q147 88 230 226t83 314q0 264 -169 427t-421 163q-254 0 -423 -163 t-169 -427q0 -176 83 -314t231 -226v-166q0 -31 -31 -31h-336z" glyph-name="Omega" horiz-adv-x="1710" unicode="Ω"/><glyph d="M211 0q-29 0 -29 29v1376q0 29 29 29h72q27 0 26 -29v-1376q0 -29 -26 -29h-72zM-12 1798q0 31 22.5 53.5t55 22.5t55 -22.5t22.5 -53.5t-22.5 -53.5t-55 -22.5t-55 22.5t-22.5 53.5zM344 1798q0 31 23.5 53.5t54.5 22.5q33 0 55.5 -22.5t22.5 -53.5t-22.5 -53.5 t-55.5 -22.5q-31 0 -54.5 22.5t-23.5 53.5z" glyph-name="Iotadieresis" horiz-adv-x="491" unicode="Ϊ"/><glyph d="M569 0q-29 0 -28 29v663l-424 705q-10 16 -5 26.5t23 10.5h82q20 0 33 -21l356 -598l355 598q12 20 34 21h82q39 0 17 -37l-424 -705v-663q0 -29 -29 -29h-72zM348 1798q0 31 22.5 53.5t55.5 22.5t55.5 -22.5t22.5 -53.5t-22.5 -53.5t-55.5 -22.5t-55.5 22.5t-22.5 53.5z M705 1798q0 31 23.5 53.5t53.5 22.5q33 0 55.5 -22.5t22.5 -53.5t-22.5 -53.5t-55.5 -22.5q-31 0 -54 22.5t-23 53.5z" glyph-name="Upsilondieresis" horiz-adv-x="1210" unicode="Ϋ"/><glyph d="M608 -25q-219 0 -358 149.5t-139 377t139 377t358 149.5q135 0 236.5 -61.5t159.5 -169.5l4 178q0 29 26 29h66q27 0 26 -29v-776q0 -115 68 -115q16 0 49 4q33 8 33 -25v-47q0 -41 -96 -41q-90 0 -128 55.5t-38 170.5h-10q-117 -226 -396 -226zM229 501.5 q0 -182.5 110 -296t284 -113.5q170 0 276.5 111.5t106.5 294.5q0 184 -106.5 298.5t-276.5 114.5q-172 0 -283 -113.5t-111 -296zM561 1174l96 235q10 25 33 25h60q33 0 18 -33l-96 -236q-10 -25 -35 -24h-57q-33 0 -19 33z" glyph-name="alphatonos" horiz-adv-x="1343" unicode="ά"/><glyph d="M514 -25q-164 0 -268.5 80t-104.5 209q0 88 53.5 156.5t147.5 99.5q-78 29 -123 89.5t-45 144.5q0 123 99.5 198.5t263.5 75.5q137 0 213 -45q37 -20 36 -49v-43q0 -16 -12 -22.5t-24 -2.5q-96 53 -205 54q-127 0 -187.5 -47.5t-60.5 -127t57.5 -129t167.5 -49.5h158 q31 0 31 -30v-48q0 -31 -31 -30h-160q-129 0 -192.5 -49.5t-63.5 -130.5q0 -94 74 -143.5t197 -49.5q33 0 64.5 4t52 9t46 16.5t35.5 16.5t32.5 18.5t27.5 15.5q14 8 24 3t10 -22v-45q0 -29 -32 -51q-113 -76 -281 -76zM438 1174l97 235q10 25 32 25h60q33 0 18 -33 l-96 -236q-10 -25 -35 -24h-57q-33 0 -19 33z" glyph-name="epsilontonos" horiz-adv-x="937" unicode="έ"/><glyph d="M981 -389q-25 0 -25 29v974q0 139 -71.5 219t-200.5 80q-135 0 -222 -81.5t-87 -217.5v-585q0 -29 -25 -29h-71q-27 0 -27 29v780q0 111 -70 111q-16 0 -49 -5q-33 -2 -33 27v45q0 41 101 41q86 0 126 -44t44 -138h2q106 182 340 182q168 0 267 -105.5t99 -301.5v-981 q0 -29 -26 -29h-72zM629 1174l96 235q10 25 33 25h59q33 0 19 -33l-97 -236q-10 -25 -34 -24h-58q-32 0 -18 33z" glyph-name="etatonos" horiz-adv-x="1241" unicode="ή"/><glyph d="M358 -25q-197 0 -196 205v795q0 29 24 29h72q27 0 27 -29v-780q0 -59 21.5 -85t70.5 -26q31 0 63 4q39 8 39 -25v-47q0 -41 -121 -41zM170 1174l96 235q10 25 33 25h59q33 0 19 -33l-96 -236q-10 -25 -35 -24h-58q-32 0 -18 33z" glyph-name="iotatonos" horiz-adv-x="548" unicode="ί"/><glyph d="M571 -25q-193 0 -301 109t-108 319v572q0 29 24 29h72q27 0 27 -29v-559q0 -160 76.5 -242t216.5 -82q147 0 227 103.5t80 341.5q0 225 -72 438q-10 29 18 29h72q20 0 31 -29q70 -201 70 -434q0 -303 -113 -434.5t-320 -131.5zM295 1366q0 31 24.5 54.5t57.5 23.5 t56.5 -23.5t23.5 -54.5q0 -33 -23.5 -57.5t-56.5 -24.5t-57.5 24.5t-24.5 57.5zM438 1174l90 235q10 25 35 25h58q33 0 18 -33l-92 -236q-10 -25 -35 -24h-55q-33 0 -19 33zM668 1366q0 31 24.5 54.5t57 23.5t56 -23.5t23.5 -54.5q0 -33 -23.5 -57.5t-56 -24.5t-57 24.5 t-24.5 57.5z" glyph-name="upsilondieresistonos" horiz-adv-x="1144" unicode="ΰ"/><glyph d="M608 -25q-219 0 -358 149.5t-139 377t139 377t358 149.5q135 0 236.5 -61.5t159.5 -169.5l4 178q0 29 26 29h66q27 0 26 -29v-776q0 -115 68 -115q16 0 49 4q33 8 33 -25v-47q0 -41 -96 -41q-90 0 -128 55.5t-38 170.5h-10q-117 -226 -396 -226zM229 501.5 q0 -182.5 110 -296t284 -113.5q170 0 276.5 111.5t106.5 294.5q0 184 -106.5 298.5t-276.5 114.5q-172 0 -283 -113.5t-111 -296z" glyph-name="alpha" horiz-adv-x="1343" unicode="α"/><glyph d="M207 -389q-25 0 -25 29v1450q0 160 107.5 260t298 100t297 -99.5t106.5 -252.5q0 -109 -54 -196t-171 -126q152 -25 230.5 -126t78.5 -247q0 -190 -125 -296.5t-317 -106.5q-227 0 -328 141v-501q0 -29 -26 -29h-72zM305 393q0 -143 91 -216t229 -73q141 0 237 77t96 229 q0 139 -94 219t-282 80h-131q-27 0 -27 28v47q0 29 27 29h120q141 0 221 72.5t80 197.5q0 123 -76.5 188.5t-207.5 65.5q-133 0 -208 -65.5t-75 -188.5v-690z" glyph-name="beta" horiz-adv-x="1175" unicode="β"/><glyph d="M104 969q-12 35 23 35h70q25 0 32 -25l326 -850q143 131 233.5 368.5t90.5 473.5q0 33 30 33h64q31 0 31 -35q0 -276 -116 -535.5t-290 -427.5v-364q0 -29 -27 -29h-69q-27 0 -27 29v368z" glyph-name="gamma" horiz-adv-x="1103" unicode="γ"/><glyph d="M623 -25q-219 0 -365.5 152t-146.5 375q0 182 99 318t265 184q-170 72 -170 215q0 104 91 167.5t251 63.5q203 0 379 -119q20 -16 8 -39l-24 -51q-16 -29 -41 -10q-145 104 -322 104q-217 0 -217 -131q0 -76 71.5 -114.5t219.5 -71.5q182 -37 297 -178.5t115 -337.5 q0 -225 -146.5 -376t-363.5 -151zM231 502q0 -178 111 -294t281 -116q168 0 279.5 116t111.5 294t-111.5 294.5t-279.5 116.5q-170 0 -281 -115.5t-111 -295.5z" glyph-name="delta" horiz-adv-x="1243" unicode="δ"/><glyph d="M514 -25q-164 0 -268.5 80t-104.5 209q0 88 53.5 156.5t147.5 99.5q-78 29 -123 89.5t-45 144.5q0 123 99.5 198.5t263.5 75.5q137 0 213 -45q37 -20 36 -49v-43q0 -16 -12 -22.5t-24 -2.5q-96 53 -205 54q-127 0 -187.5 -47.5t-60.5 -127t57.5 -129t167.5 -49.5h158 q31 0 31 -30v-48q0 -31 -31 -30h-160q-129 0 -192.5 -49.5t-63.5 -130.5q0 -94 74 -143.5t197 -49.5q33 0 64.5 4t52 9t46 16.5t35.5 16.5t32.5 18.5t27.5 15.5q14 8 24 3t10 -22v-45q0 -29 -32 -51q-113 -76 -281 -76z" glyph-name="epsilon" horiz-adv-x="937" unicode="ε"/><glyph d="M815 -201q-33 0 -33 33q0 6 12.5 37t12.5 57q0 74 -88 74h-156q-197 0 -324.5 116.5t-127.5 311.5q0 129 53 230.5t153 209.5l418 457h-516q-29 0 -29 29v51q0 29 29 29h631q29 0 29 -29v-57q0 -25 -15 -39l-448 -496q-66 -72 -95.5 -107.5t-60.5 -109.5t-31 -156 q0 -166 99.5 -251t251.5 -85h174q166 0 166 -165q0 -72 -26 -106t-50 -34h-29z" glyph-name="zeta" horiz-adv-x="1030" unicode="ζ"/><glyph d="M981 -389q-25 0 -25 29v974q0 139 -71.5 219t-200.5 80q-135 0 -222 -81.5t-87 -217.5v-585q0 -29 -25 -29h-71q-27 0 -27 29v780q0 111 -70 111q-16 0 -49 -5q-33 -2 -33 27v45q0 41 101 41q86 0 126 -44t44 -138h2q106 182 340 182q168 0 267 -105.5t99 -301.5v-981 q0 -29 -26 -29h-72z" glyph-name="eta" horiz-adv-x="1241" unicode="η"/><glyph d="M632.5 -27q-235.5 0 -363.5 194.5t-128 543t128 544t363.5 195.5t363.5 -195.5t128 -543.5q0 -346 -128 -542t-363.5 -196zM262 657q8 -281 103.5 -424t267.5 -143t266 144.5t102 422.5h-739zM262 764h739q-8 281 -102 426t-266 145t-267.5 -144t-103.5 -427z" glyph-name="theta" horiz-adv-x="1265" unicode="θ"/><glyph d="M358 -25q-197 0 -196 205v795q0 29 24 29h72q27 0 27 -29v-780q0 -59 21.5 -85t70.5 -26q31 0 63 4q39 8 39 -25v-47q0 -41 -121 -41z" glyph-name="iota" horiz-adv-x="548" unicode="ι"/><glyph d="M872 0q-23 0 -36 16l-406 449l-145 -150v-286q0 -29 -27 -29h-72q-25 0 -24 29v946q0 29 24 29h72q27 0 27 -29v-508l493 520q16 16 39 17h82q20 0 24.5 -10.5t-10.5 -26.5l-403 -420l461 -510q12 -14 8 -25.5t-25 -11.5h-82z" glyph-name="kappa" horiz-adv-x="1067" unicode="κ"/><glyph d="M1016 -25q-53 0 -90 28t-52.5 57.5t-39.5 95.5l-271 712l-319 -843q-10 -25 -31 -25h-76q-35 0 -22 35l385 973l-158 397q-10 29 20 29h70q27 0 35 -25l485 -1239q37 -86 78 -86q10 0 47 4q29 4 29 -25v-47q0 -41 -90 -41z" glyph-name="lambda" horiz-adv-x="1222" unicode="λ"/><glyph d="M190 -389q-29 0 -28 29v1335q0 29 24 29h72q27 0 27 -29v-586q0 -139 71.5 -218t200.5 -79q133 0 221 81t88 216v586q0 29 25 29h72q27 0 26 -29v-946q0 -29 -26 -29h-64q-27 0 -29 31l-4 131q-104 -186 -311 -187q-186 0 -270 127v-462q0 -29 -29 -29h-66z" glyph-name="mu" unicode="μ"/><glyph d="M506 0q-27 0 -37 25l-365 944q-12 35 23 35h70q25 0 32 -25l326 -850q143 131 233.5 368.5t90.5 473.5q0 33 30 33h64q31 0 31 -35q0 -276 -115 -535.5t-275 -408.5q-29 -25 -47 -25h-61z" glyph-name="nu" horiz-adv-x="1114" unicode="ν"/><glyph d="M846 -201q-33 0 -33 33q0 6 12.5 37t12.5 57q0 74 -88 74h-164q-197 0 -321 105.5t-124 295.5q0 147 77 243.5t206 121.5q-90 20 -149.5 100t-59.5 193q0 170 133 266h-186q-29 0 -29 29v51q0 29 29 29h745q29 0 29 -29v-51q0 -29 -29 -29h-284q-135 0 -212 -68.5 t-77 -193.5q0 -121 76.5 -188.5t218.5 -67.5h217q27 0 26 -29v-47q0 -29 -26 -29h-250q-168 0 -253 -75.5t-85 -214.5q0 -156 96.5 -232t245.5 -76h184q166 0 166 -165q0 -72 -25.5 -106t-50.5 -34h-28z" glyph-name="xi" horiz-adv-x="1060" unicode="ξ"/><glyph d="M623 -25q-219 0 -365.5 152t-146.5 375t146 374.5t366 151.5q217 0 363.5 -150.5t146.5 -376t-146.5 -376t-363.5 -150.5zM231 502q0 -178 111 -294t281 -116q168 0 279.5 116t111.5 294t-111.5 294.5t-279.5 116.5q-170 0 -281 -115.5t-111 -295.5z" glyph-name="omicron" horiz-adv-x="1243" unicode="ο"/><glyph d="M1053 -25q-197 0 -197 205v715h-412v-866q0 -29 -28 -29h-68q-27 0 -26 29v866h-193q-29 0 -29 29v51q0 29 29 29h1034q29 0 29 -29v-51q0 -29 -29 -29h-184v-700q0 -59 22.5 -85t71.5 -26q27 0 64 4q39 8 39 -25v-47q0 -41 -123 -41z" glyph-name="pi" horiz-adv-x="1286" unicode="π"/><glyph d="M145 -389q-25 0 -24 29v858q0 248 148.5 389t363.5 141q223 0 363.5 -149.5t140.5 -377t-140.5 -377t-359.5 -149.5q-133 0 -235.5 57.5t-157.5 155.5v-548q0 -29 -27 -29h-72zM242 497.5q0 -182.5 106.5 -294t276.5 -111.5q172 0 281.5 113.5t109.5 296t-109.5 296 t-279.5 113.5q-172 0 -278.5 -115.5t-106.5 -298z" glyph-name="rho" horiz-adv-x="1245" unicode="ρ"/><glyph d="M924 -201q-33 0 -33 33q0 6 11 37t11 57q0 74 -88 74h-186q-229 0 -378.5 142.5t-149.5 363.5q0 223 149.5 372.5t372.5 149.5q236 0 373 -164q18 -27 4 -41l-39 -37q-23 -25 -45 2q-117 125 -291 125q-176 0 -290 -114.5t-114 -294.5q0 -178 119 -286.5t309 -108.5h203 q164 0 164 -170q0 -72 -25.5 -106t-50.5 -34h-26z" glyph-name="sigma1" horiz-adv-x="1136" unicode="ς"/><glyph d="M614 -25q-215 0 -359 148.5t-144 366t144 366t359 148.5h543q31 0 31 -31v-47q0 -31 -31 -31h-227q188 -152 188 -406q0 -217 -144.5 -365.5t-359.5 -148.5zM231 489.5q0 -172.5 109 -285t274.5 -112.5t275 112.5t109.5 285t-108.5 286t-276.5 113.5 q-166 0 -274.5 -113.5t-108.5 -286z" glyph-name="sigma" horiz-adv-x="1228" unicode="σ"/><glyph d="M643 -25q-197 0 -197 205v715h-317q-29 0 -29 29v51q0 29 29 29h772q29 0 29 -29v-51q0 -29 -29 -29h-332v-700q0 -59 22.5 -85t72.5 -26q27 0 63 4q39 8 39 -25v-47q0 -41 -123 -41z" glyph-name="tau" horiz-adv-x="1030" unicode="τ"/><glyph d="M571 -25q-193 0 -301 109t-108 319v572q0 29 24 29h72q27 0 27 -29v-559q0 -160 76.5 -242t216.5 -82q147 0 227 103.5t80 341.5q0 225 -72 438q-10 29 18 29h72q20 0 31 -29q70 -201 70 -434q0 -303 -113 -434.5t-320 -131.5z" glyph-name="upsilon" horiz-adv-x="1144" unicode="υ"/><glyph d="M653 -389q-27 0 -26 29v337q-240 18 -378 164t-138 361t138 360.5t378 163.5v334q0 29 26 29h68q29 0 29 -29v-334q238 -18 375 -163.5t137 -360.5t-137.5 -360.5t-374.5 -164.5v-337q0 -29 -29 -29h-68zM229 502q0 -172 103.5 -282.5t294.5 -127.5v819 q-190 -16 -294 -126.5t-104 -282.5zM750 92q186 18 289.5 129t103.5 281t-103.5 280.5t-289.5 128.5v-819z" glyph-name="phi" horiz-adv-x="1372" unicode="φ"/><glyph d="M121 -389q-33 0 -15 35l398 680l-377 643q-18 35 12 35h80q20 0 33 -21l319 -553l318 553q12 20 35 21h75q31 0 15 -35l-375 -643l397 -680q18 -35 -16 -35h-74q-23 0 -35 20l-340 592l-340 -592q-14 -20 -34 -20h-76z" glyph-name="chi" horiz-adv-x="1142" unicode="χ"/><glyph d="M649 -389q-29 0 -28 29v337q-215 14 -337 128t-122 327v543q0 29 24 29h72q27 0 27 -29v-533q0 -162 88 -249t248 -101v1268q0 29 28 29h66q29 0 28 -29v-1268q174 12 266.5 119.5t92.5 337.5q0 213 -72 426q-10 29 21 29h69q20 0 31 -29q70 -201 70 -424 q0 -291 -124 -425t-354 -149v-337q0 -29 -28 -29h-66z" glyph-name="psi" horiz-adv-x="1382" unicode="ψ"/><glyph d="M504 -25q-156 0 -249 130.5t-93 424.5q0 244 69 445q10 29 31 29h72q29 0 18 -29q-72 -213 -71 -443q0 -440 239 -440q98 0 156.5 79t58.5 222v561q0 29 27 29h65q25 0 25 -29v-561q0 -143 58.5 -222t158.5 -79q238 0 238 440q0 229 -72 443q-10 29 18 29h72q20 0 31 -29 q70 -201 69 -445q0 -295 -93 -425t-249 -130q-201 0 -288 207q-88 -207 -291 -207z" glyph-name="omega" horiz-adv-x="1587" unicode="ω"/><glyph d="M358 -25q-197 0 -196 205v795q0 29 24 29h72q27 0 27 -29v-780q0 -59 21.5 -85t70.5 -26q31 0 63 4q39 8 39 -25v-47q0 -41 -121 -41zM-35 1368q0 31 22.5 53.5t55.5 22.5t55.5 -22.5t22.5 -53.5t-22.5 -53.5t-55.5 -22.5t-55.5 22.5t-22.5 53.5zM322 1368 q0 31 23.5 53.5t53.5 22.5q33 0 55.5 -22.5t22.5 -53.5t-22.5 -53.5t-55.5 -22.5q-31 0 -54 22.5t-23 53.5z" glyph-name="iotadieresis" horiz-adv-x="548" unicode="ϊ"/><glyph d="M571 -25q-193 0 -301 109t-108 319v572q0 29 24 29h72q27 0 27 -29v-559q0 -160 76.5 -242t216.5 -82q147 0 227 103.5t80 341.5q0 225 -72 438q-10 29 18 29h72q20 0 31 -29q70 -201 70 -434q0 -303 -113 -434.5t-320 -131.5zM233 1368q0 31 23 53.5t55.5 22.5t55 -22.5 t22.5 -53.5t-22.5 -53.5t-55 -22.5t-55.5 22.5t-23 53.5zM590 1368q0 31 23.5 53.5t54.5 22.5q33 0 55 -22.5t22 -53.5t-22.5 -53.5t-54.5 -22.5q-31 0 -54.5 22.5t-23.5 53.5z" glyph-name="upsilondieresis" horiz-adv-x="1144" unicode="ϋ"/><glyph d="M623 -25q-219 0 -365.5 152t-146.5 375t146 374.5t366 151.5q217 0 363.5 -150.5t146.5 -376t-146.5 -376t-363.5 -150.5zM231 502q0 -178 111 -294t281 -116q168 0 279.5 116t111.5 294t-111.5 294.5t-279.5 116.5q-170 0 -281 -115.5t-111 -295.5zM567 1174l97 235 q10 25 32 25h60q33 0 18 -33l-96 -236q-10 -25 -35 -24h-57q-33 0 -19 33z" glyph-name="omicrontonos" horiz-adv-x="1243" unicode="ό"/><glyph d="M571 -25q-193 0 -301 109t-108 319v572q0 29 24 29h72q27 0 27 -29v-559q0 -160 76.5 -242t216.5 -82q147 0 227 103.5t80 341.5q0 225 -72 438q-10 29 18 29h72q20 0 31 -29q70 -201 70 -434q0 -303 -113 -434.5t-320 -131.5zM436 1174l96 235q10 25 33 25h60 q33 0 18 -33l-96 -236q-10 -25 -35 -24h-57q-33 0 -19 33z" glyph-name="upsilontonos" horiz-adv-x="1144" unicode="ύ"/><glyph d="M504 -25q-156 0 -249 130.5t-93 424.5q0 244 69 445q10 29 31 29h72q29 0 18 -29q-72 -213 -71 -443q0 -440 239 -440q98 0 156.5 79t58.5 222v561q0 29 27 29h65q25 0 25 -29v-561q0 -143 58.5 -222t158.5 -79q238 0 238 440q0 229 -72 443q-10 29 18 29h72q20 0 31 -29 q70 -201 69 -445q0 -295 -93 -425t-249 -130q-201 0 -288 207q-88 -207 -291 -207zM741 1174l97 235q10 25 32 25h60q33 0 18 -33l-96 -236q-10 -25 -35 -24h-57q-33 0 -19 33z" glyph-name="omegatonos" horiz-adv-x="1587" unicode="ώ"/><glyph d="M537 -410q-31 0 -31 31v43q0 33 31 33q131 0 245.5 97t114.5 280q0 193 -132 295t-312 108l-168 -172v-276q0 -29 -27 -29h-72q-25 0 -24 29v1007q0 29 24 29h72q27 0 27 -29v-581l549 594q16 16 38 16h84q20 0 24.5 -11.5t-9.5 -25.5l-432 -461q88 -10 168.5 -44 t151.5 -92t114 -149.5t43 -203.5q0 -219 -144.5 -353.5t-334.5 -134.5z" glyph-name="uni03CF" horiz-adv-x="1126" unicode="Ϗ"/><glyph d="M504 -410q-31 0 -31 31v43q0 33 31 33q131 0 245.5 96t114.5 275q0 190 -133 289.5t-311 105.5l-135 -139v-295q0 -29 -27 -29h-72q-25 0 -24 29v946q0 29 24 29h72q27 0 27 -29v-494l491 506q16 16 39 17h86q20 0 24.5 -11.5t-10.5 -25.5l-409 -414q88 -10 169 -44 t151.5 -90.5t113.5 -145.5t43 -199q0 -215 -145.5 -349.5t-333.5 -134.5z" glyph-name="uni03D7" horiz-adv-x="1093" unicode="ϗ"/><glyph d="M838 -389q-29 0 -29 29v335q-287 25 -477.5 234t-190.5 502q0 311 211 525t520.5 214t521.5 -214t212 -525q0 -293 -190.5 -502t-477.5 -234v-335q0 -29 -29 -29h-71zM270 711q0 -262 173 -437.5t429 -175.5q258 0 431.5 175.5t173.5 437.5q0 264 -173.5 439t-431.5 175 t-430 -175t-172 -439z" glyph-name="uni03D8" horiz-adv-x="1746" unicode="Ϙ"/><glyph d="M211 0q-29 0 -29 29v1376q0 29 29 29h657q29 0 29 -29v-59q0 -27 -29 -27h-559v-506h533q29 0 28 -29v-59q0 -27 -28 -27h-533v-669q0 -29 -26 -29h-72z" glyph-name="uni03DC" horiz-adv-x="1046" unicode="Ϝ"/><glyph d="M571 0q-39 0 -20 35l369 624h-760q-29 0 -29 29v70q0 16 12 35l361 622q12 18 35 19h77q37 0 21 -35l-369 -625h762q27 0 27 -26v-70q0 -18 -13 -37l-360 -621q-12 -20 -35 -20h-78z" glyph-name="uni03DE" horiz-adv-x="1198" unicode="Ϟ"/><glyph d="M211 0q-29 0 -29 29v1376q0 29 29 29h108q23 0 31 -21l543 -1276l543 1276q8 20 32 21h109q27 0 27 -29v-1376q0 -29 -27 -29h-72q-29 0 -28 29v1206l-33 -96l-475 -1116q-8 -23 -35 -23h-82q-27 0 -35 23l-475 1116l-33 96v-1206q0 -29 -26 -29h-72z" glyph-name="uni03FA" horiz-adv-x="1785" unicode="Ϻ"/><glyph d="M211 0q-29 0 -29 29v1376q0 29 29 29h678q29 0 29 -29v-59q0 -27 -29 -27h-580v-518h551q27 0 27 -29v-59q0 -29 -27 -29h-551v-567h582q29 0 29 -29v-59q0 -29 -29 -29h-680zM358 1831q-18 33 19 33h59q23 0 33 -25l119 -235q18 -33 -19 -33h-57q-18 0 -33 24z" glyph-name="uni0400" horiz-adv-x="1081" unicode="Ѐ"/><glyph d="M211 0q-29 0 -29 29v1376q0 29 29 29h678q29 0 29 -29v-59q0 -27 -29 -27h-580v-518h551q27 0 27 -29v-59q0 -29 -27 -29h-551v-567h582q29 0 29 -29v-59q0 -29 -29 -29h-680zM287 1798q0 31 22.5 53.5t55 22.5t55 -22.5t22.5 -53.5t-22.5 -53.5t-55 -22.5t-55 22.5 t-22.5 53.5zM643 1798q0 31 23.5 53.5t54.5 22.5q33 0 55.5 -22.5t22.5 -53.5t-22.5 -53.5t-55.5 -22.5q-31 0 -54.5 22.5t-23.5 53.5z" glyph-name="afii10023" horiz-adv-x="1081" unicode="Ё"/><glyph d="M846 0q-31 0 -31 31v55q0 31 31 31h35q172 0 284.5 108.5t112.5 280.5t-108.5 279.5t-280.5 107.5q-178 0 -281 -111v-753q0 -29 -28 -29h-72q-27 0 -27 29v1290h-311q-29 0 -29 27v59q0 29 29 29h750q29 0 28 -29v-59q0 -27 -28 -27h-312v-410q115 98 293 99 q215 0 356.5 -144.5t141.5 -361.5q0 -215 -145.5 -358.5t-364.5 -143.5h-43z" glyph-name="afii10051" horiz-adv-x="1507" unicode="Ђ"/><glyph d="M211 0q-29 0 -29 29v1376q0 29 29 29h659q31 0 31 -31v-60q0 -31 -31 -30h-561v-1284q0 -29 -26 -29h-72zM449 1604l112 235q10 25 35 25h66q35 0 16 -33l-115 -236q-14 -25 -35 -24h-61q-36 0 -18 33z" glyph-name="afii10052" horiz-adv-x="1011" unicode="Ѓ"/><glyph d="M864 -27q-315 0 -519 212t-204 525.5t205 526.5t518 213q274 0 482 -180q27 -27 8 -49l-41 -47q-20 -18 -47 0q-174 152 -396 151q-242 0 -407.5 -153.5t-188.5 -393.5h543q27 0 27 -28v-66q0 -27 -27 -27h-545q18 -244 186.5 -401.5t411.5 -157.5q221 0 396 152 q25 20 43 2l45 -49q20 -18 -8 -47q-206 -183 -482 -183z" glyph-name="afii10053" horiz-adv-x="1495" unicode="Є"/><glyph d="M545 -25q-276 0 -418 211q-14 23 4 45l35 39q23 25 47 -4q123 -172 334 -172q145 0 227 73t82 193q0 113 -68.5 178.5t-207.5 133.5l-174 86q-246 117 -246 342q0 158 111.5 254t277.5 96q231 0 375 -180q20 -25 0 -49l-31 -35q-25 -27 -51 2q-121 143 -289 143 q-117 0 -192.5 -59.5t-75.5 -167.5q0 -82 46 -140.5t146 -107.5l172 -84q158 -78 245 -168t87 -242q0 -176 -119.5 -281.5t-316.5 -105.5z" glyph-name="afii10054" horiz-adv-x="1099" unicode="Ѕ"/><glyph d="M211 0q-29 0 -29 29v1376q0 29 29 29h72q27 0 26 -29v-1376q0 -29 -26 -29h-72z" glyph-name="afii10055" horiz-adv-x="491" unicode="І"/><glyph d="M211 0q-29 0 -29 29v1376q0 29 29 29h72q27 0 26 -29v-1376q0 -29 -26 -29h-72zM-10 1798q0 31 22.5 53.5t55 22.5t55 -22.5t22.5 -53.5t-22.5 -53.5t-55 -22.5t-55 22.5t-22.5 53.5zM346 1798q0 31 23.5 53.5t54.5 22.5q33 0 55.5 -22.5t22.5 -53.5t-22.5 -53.5 t-55.5 -22.5q-31 0 -54.5 22.5t-23.5 53.5z" glyph-name="afii10056" horiz-adv-x="491" unicode="Ї"/><glyph d="M434 -27q-182 0 -309 136q-16 23 2 41l39 51q16 20 35 2q39 -35 64.5 -53.5t70.5 -35t98 -16.5q268 0 268 355v952q0 29 27 29h72q29 0 28 -29v-959q0 -229 -106.5 -351t-288.5 -122z" glyph-name="afii10057" horiz-adv-x="1011" unicode="Ј"/><glyph d="M84 -10q-33 0 -33 24v74q0 20 21 21q111 0 151.5 65.5t40.5 218.5v1010q0 31 31 31h901q29 0 29 -29v-520h200q223 0 345 -122t122 -320.5t-121.5 -320.5t-345.5 -122h-301q-29 0 -28 29v1284h-705v-975q0 -348 -307 -348zM1225 117h188q160 0 256 78.5t96 246.5t-96 247 t-256 79h-188v-651z" glyph-name="afii10058" horiz-adv-x="2013" unicode="Љ"/><glyph d="M1042 0q-29 0 -28 29v626h-705v-626q0 -29 -26 -29h-72q-29 0 -29 29v1376q0 29 29 29h72q27 0 26 -29v-635h705v635q0 29 28 29h72q29 0 29 -29v-520h194q221 0 343 -122t122 -320.5t-121.5 -320.5t-343.5 -122h-295zM1143 117h180q160 0 257 78.5t97 246.5t-97 247 t-257 79h-180v-651z" glyph-name="afii10059" horiz-adv-x="1923" unicode="Њ"/><glyph d="M1210 0q-25 0 -24 29v565q0 139 -72 219t-201 80q-125 0 -208.5 -70.5t-96.5 -189.5v-604q0 -29 -28 -29h-72q-27 0 -27 29v1290h-311q-29 0 -29 27v59q0 29 29 29h750q29 0 28 -29v-59q0 -27 -28 -27h-312v-494q104 182 336 183q166 0 265.5 -106.5t99.5 -301.5v-571 q0 -29 -27 -29h-72z" glyph-name="afii10060" horiz-adv-x="1470" unicode="Ћ"/><glyph d="M211 0q-29 0 -29 29v1376q0 29 29 29h72q27 0 26 -29v-807l619 819q14 16 37 17h90q20 0 24 -10.5t-8 -26.5l-496 -635l553 -725q10 -16 5 -26.5t-23 -10.5h-84q-25 0 -37 18l-489 646l-191 -242v-393q0 -29 -26 -29h-72zM551 1604l113 235q10 25 34 25h66q35 0 16 -33 l-114 -236q-14 -25 -35 -24h-62q-36 0 -18 33z" glyph-name="afii10061" horiz-adv-x="1234" unicode="Ќ"/><glyph d="M1008 1413q12 20 36 21h105q29 0 29 -29v-1376q0 -29 -29 -29h-72q-29 0 -28 29v1226l-697 -1235q-12 -20 -37 -20h-104q-29 0 -29 29v1376q0 29 29 29h72q27 0 26 -29v-1231zM514 1831q-18 33 18 33h60q23 0 33 -25l118 -235q18 -33 -18 -33h-57q-18 0 -33 24z" glyph-name="uni040D" horiz-adv-x="1359" unicode="Ѝ"/><glyph d="M260 0q-39 0 -18 37l348 579l-473 781q-10 16 -5 26.5t23 10.5h76q23 0 35 -21l413 -684l410 684q12 20 35 21h76q18 0 23 -10.5t-5 -26.5l-827 -1377q-12 -20 -35 -20h-76zM387 1833q-2 31 29 31h39q29 0 32 -29q8 -66 53.5 -104.5t117 -38.5t116.5 38.5t55 104.5 q4 29 33 29h39q33 0 29 -31q-6 -102 -80 -168t-193 -66q-117 0 -190.5 66t-79.5 168z" glyph-name="afii10062" horiz-adv-x="1312" unicode="Ў"/><glyph d="M211 0q-29 0 -29 29v1376q0 29 29 29h72q27 0 26 -29v-1284h701v1284q0 29 26 29h72q29 0 29 -29v-1376q0 -29 -29 -29h-385v-113q0 -29 -27 -28h-71q-29 0 -29 28v113h-385z" glyph-name="afii10145" horiz-adv-x="1318" unicode="Џ"/><glyph d="M137 0q-37 0 -22 35l499 1374q8 25 37 25h88q27 0 37 -25l500 -1374q14 -35 -23 -35h-77q-23 0 -31 25l-113 313h-676l-110 -313q-8 -25 -35 -25h-74zM397 453h594l-297 831z" glyph-name="afii10017" horiz-adv-x="1390" unicode="А"/><glyph d="M211 0q-29 0 -29 29v1376q0 29 29 29h661q31 0 31 -31v-60q0 -31 -31 -30h-563v-428h285q223 0 345 -122t122 -320.5t-122 -320.5t-345 -122h-383zM309 117h273q160 0 256 78.5t96 246.5t-96.5 247t-255.5 79h-273v-651z" glyph-name="afii10018" horiz-adv-x="1169" unicode="Б"/><glyph d="M211 0q-29 0 -29 29v1376q0 29 29 29h401q203 0 295 -99.5t92 -242.5q0 -106 -52 -191.5t-159 -120.5q141 -33 219 -137t78 -246q0 -180 -122.5 -288.5t-354.5 -108.5h-397zM309 117h291q354 0 354 297q0 143 -90 223t-264 80h-291v-600zM309 823h297q125 0 198 69 t73 189q0 236 -271 236h-297v-494z" glyph-name="afii10019" horiz-adv-x="1193" unicode="В"/><glyph d="M211 0q-29 0 -29 29v1376q0 29 29 29h659q31 0 31 -31v-60q0 -31 -31 -30h-561v-1284q0 -29 -26 -29h-72z" glyph-name="afii10020" horiz-adv-x="1011" unicode="Г"/><glyph d="M102 -141q-31 0 -30 30v201q0 31 30 31h31q111 0 152 64.5t41 215.5v1002q0 31 30 31h850q27 0 27 -29v-1284h98q31 0 31 -31v-201q0 -31 -31 -30h-65q-31 0 -31 30v111h-1034v-111q0 -31 -31 -30h-68zM377 121h729v1194h-653v-953q0 -96 -16.5 -151t-59.5 -90z" glyph-name="afii10021" horiz-adv-x="1429" unicode="Д"/><glyph d="M211 0q-29 0 -29 29v1376q0 29 29 29h678q29 0 29 -29v-59q0 -27 -29 -27h-580v-518h551q27 0 27 -29v-59q0 -29 -27 -29h-551v-567h582q29 0 29 -29v-59q0 -29 -29 -29h-680z" glyph-name="afii10022" horiz-adv-x="1081" unicode="Е"/><glyph d="M125 0q-18 0 -23.5 10t4.5 27l549 727l-491 633q-12 16 -8 26.5t24 10.5h92q23 0 37 -17l617 -819v807q0 29 28 29h72q27 0 27 -29v-807l618 819q14 16 37 17h90q20 0 24.5 -10.5t-7.5 -26.5l-496 -635l553 -725q10 -16 5 -26.5t-24 -10.5h-84q-25 0 -36 18l-490 646 l-190 -242v-393q0 -29 -27 -29h-72q-29 0 -28 29v391l-189 242l-489 -644q-12 -18 -37 -18h-86z" glyph-name="afii10024" horiz-adv-x="1976" unicode="Ж"/><glyph d="M563 -27q-221 0 -350 125t-129 330q0 39 33 39h69q29 0 29 -39q0 -158 97.5 -246t258.5 -88q158 0 258.5 80t100.5 234q0 143 -89 213.5t-251 70.5h-101q-35 0 -34 35v47q0 35 34 35h95q137 0 216 68.5t79 189.5q0 133 -90.5 196.5t-231.5 63.5q-150 0 -235.5 -71.5 t-85.5 -219.5q0 -35 -29 -35h-68q-33 0 -33 35q0 188 118 301t341 113q205 0 320.5 -98.5t115.5 -274.5q0 -213 -206 -313q123 -33 191.5 -130t68.5 -231q0 -193 -138.5 -311.5t-353.5 -118.5z" glyph-name="afii10025" horiz-adv-x="1165" unicode="З"/><glyph d="M1008 1413q12 20 36 21h105q29 0 29 -29v-1376q0 -29 -29 -29h-72q-29 0 -28 29v1226l-697 -1235q-12 -20 -37 -20h-104q-29 0 -29 29v1376q0 29 29 29h72q27 0 26 -29v-1231z" glyph-name="afii10026" horiz-adv-x="1359" unicode="И"/><glyph d="M315 0h-106q-27 0 -27 29v1376q0 29 27 29h72q29 0 28 -29v-1231l699 1239q12 20 36 21h105q29 0 29 -29v-1376q0 -29 -29 -29h-72q-27 0 -26 29v1231l-699 -1240q-12 -20 -37 -20zM424 1831q-2 31 29 31h39q29 0 32 -29q8 -66 53.5 -104.5t117 -38.5t116.5 38.5 t55 104.5q4 29 33 29h39q33 0 29 -31q-6 -102 -80 -168t-193 -66q-117 0 -190.5 66t-79.5 168z" glyph-name="afii10027" horiz-adv-x="1359" unicode="Й"/><glyph d="M211 0q-29 0 -29 29v1376q0 29 29 29h72q27 0 26 -29v-807l619 819q14 16 37 17h90q20 0 24 -10.5t-8 -26.5l-496 -635l553 -725q10 -16 5 -26.5t-23 -10.5h-84q-25 0 -37 18l-489 646l-191 -242v-393q0 -29 -26 -29h-72z" glyph-name="afii10028" horiz-adv-x="1234" unicode="К"/><glyph d="M84 -10q-33 0 -33 24v74q0 20 21 21q111 0 151.5 65.5t40.5 218.5v1010q0 31 31 31h901q29 0 29 -29v-1376q0 -29 -29 -29h-72q-29 0 -28 29v1284h-705v-975q0 -348 -307 -348z" glyph-name="afii10029" horiz-adv-x="1404" unicode="Л"/><glyph d="M211 0q-29 0 -29 29v1376q0 29 29 29h108q23 0 31 -21l543 -1276l543 1276q8 20 32 21h109q27 0 27 -29v-1376q0 -29 -27 -29h-72q-29 0 -28 29v1206l-33 -96l-475 -1116q-8 -23 -35 -23h-82q-27 0 -35 23l-475 1116l-33 96v-1206q0 -29 -26 -29h-72z" glyph-name="afii10030" horiz-adv-x="1785" unicode="М"/><glyph d="M211 0q-29 0 -29 29v1376q0 29 29 29h72q27 0 26 -29v-635h705v635q0 29 28 29h72q29 0 29 -29v-1376q0 -29 -29 -29h-72q-29 0 -28 29v626h-705v-626q0 -29 -26 -29h-72z" glyph-name="afii10031" horiz-adv-x="1323" unicode="Н"/><glyph d="M872.5 -27q-309.5 0 -520.5 213t-211 524.5t211 525.5t520.5 214t521.5 -214t212 -525.5t-212 -524.5t-521.5 -213zM270 711q0 -262 173 -437.5t429 -175.5q258 0 431.5 175.5t173.5 437.5q0 264 -173.5 439t-431.5 175t-430 -175t-172 -439z" glyph-name="afii10032" horiz-adv-x="1746" unicode="О"/><glyph d="M211 0q-29 0 -29 29v1376q0 29 29 29h897q29 0 29 -29v-1376q0 -29 -29 -29h-72q-27 0 -26 29v1284h-701v-1284q0 -29 -26 -29h-72z" glyph-name="afii10033" horiz-adv-x="1318" unicode="П"/><glyph d="M211 0q-29 0 -29 29v1376q0 29 29 29h383q223 0 345 -122t122 -320.5t-122 -319.5t-345 -121h-285v-522q0 -29 -26 -29h-72zM309 666h273q160 0 256 78.5t96 246.5q0 170 -96.5 249t-255.5 79h-273v-653z" glyph-name="afii10034" horiz-adv-x="1179" unicode="Р"/><glyph d="M866 -27q-315 0 -520 212t-205 525.5t205 526.5t520 213q274 0 482 -180q27 -27 6 -49l-41 -47q-20 -20 -45 0q-178 152 -398 151q-258 0 -429 -174t-171 -440q0 -264 171 -438.5t429 -174.5q219 0 398 152q25 20 43 2l43 -49q23 -18 -6 -47q-206 -183 -482 -183z" glyph-name="afii10035" horiz-adv-x="1495" unicode="С"/><glyph d="M508 0q-27 0 -27 29v1290h-311q-29 0 -29 27v59q0 29 29 29h750q29 0 28 -29v-59q0 -27 -28 -27h-312v-1290q0 -29 -28 -29h-72z" glyph-name="afii10036" horiz-adv-x="1089" unicode="Т"/><glyph d="M260 0q-39 0 -18 37l348 579l-473 781q-10 16 -5 26.5t23 10.5h76q23 0 35 -21l413 -684l410 684q12 20 35 21h76q18 0 23 -10.5t-5 -26.5l-827 -1377q-12 -20 -35 -20h-76z" glyph-name="afii10037" horiz-adv-x="1312" unicode="У"/><glyph d="M737 123q-158 0 -280.5 49t-196.5 133t-111.5 188.5t-37.5 223.5t37.5 223t111.5 188t197 133.5t280 49.5h4v94q0 29 27 29h72q29 0 28 -29v-94h2q309 0 469 -171t160 -423t-159.5 -423t-469.5 -171h-2v-94q0 -29 -28 -29h-72q-27 0 -27 29v94h-4zM240 717 q0 -211 124.5 -342t376.5 -131v946q-252 0 -376.5 -131t-124.5 -342zM868 244q252 0 376 131t124 342t-124 342t-376 131v-946z" glyph-name="afii10038" horiz-adv-x="1628" unicode="Ф"/><glyph d="M152 0q-37 0 -15 37l432 698l-411 662q-23 37 14 37h84q18 0 35 -21l350 -565l350 565q12 20 33 21h84q37 0 14 -37l-411 -662l432 -698q23 -37 -15 -37h-79q-23 0 -35 20l-373 603l-375 -603q-12 -20 -35 -20h-79z" glyph-name="afii10039" horiz-adv-x="1280" unicode="Х"/><glyph d="M211 0q-29 0 -29 29v1376q0 29 29 29h72q27 0 26 -29v-1284h701v1284q0 29 26 29h72q29 0 29 -29v-1284h71q29 0 29 -29v-205q0 -29 -29 -28h-71q-29 0 -29 28v113h-897z" glyph-name="afii10040" horiz-adv-x="1302" unicode="Ц"/><glyph d="M1006 0q-31 0 -31 31v616q-55 -84 -158.5 -136t-245.5 -50q-195 2 -312.5 108.5t-117.5 307.5v526q0 31 31 31h66q31 0 30 -31v-514q0 -150 95.5 -227.5t246.5 -77.5q154 0 259.5 78.5t105.5 226.5v514q0 31 31 31h67q31 0 31 -31v-1372q0 -31 -31 -31h-67z" glyph-name="afii10041" horiz-adv-x="1286" unicode="Ч"/><glyph d="M211 0q-29 0 -29 29v1376q0 29 29 29h72q27 0 26 -29v-1284h621v1284q0 29 28 29h72q27 0 27 -29v-1284h620v1284q0 29 29 29h72q27 0 26 -29v-1376q0 -29 -26 -29h-1567z" glyph-name="afii10042" horiz-adv-x="1986" unicode="Ш"/><glyph d="M1806 -141q-27 0 -26 28v113h-1569q-29 0 -29 29v1376q0 29 29 29h72q27 0 26 -29v-1284h621v1284q0 29 28 29h72q27 0 27 -29v-1284h620v1284q0 29 29 29h72q27 0 26 -29v-1284h74q29 0 29 -29v-205q0 -29 -29 -28h-72z" glyph-name="afii10043" horiz-adv-x="1974" unicode="Щ"/><glyph d="M84 1319q-27 0 -27 27v59q0 29 27 29h317q27 0 27 -29v-520h285q223 0 345 -122t122 -320.5t-122 -320.5t-345 -122h-383q-29 0 -29 29v1290h-217zM428 117h272q160 0 256.5 78.5t96.5 246.5t-96.5 247t-256.5 79h-272v-651z" glyph-name="afii10044" horiz-adv-x="1288" unicode="Ъ"/><glyph d="M211 0q-29 0 -29 29v1376q0 29 29 29h72q27 0 26 -29v-520h285q223 0 345 -122t122 -320.5t-122 -320.5t-345 -122h-383zM309 117h273q160 0 256 78.5t96 246.5t-96.5 247t-255.5 79h-273v-651zM1217 29v1376q0 29 28 29h72q27 0 26 -29v-1376q0 -29 -26 -29h-72 q-28 0 -28 29z" glyph-name="afii10045" horiz-adv-x="1525" unicode="Ы"/><glyph d="M211 0q-29 0 -29 29v1376q0 29 29 29h72q27 0 26 -29v-520h285q223 0 345 -122t122 -320.5t-122 -320.5t-345 -122h-383zM309 117h273q160 0 256 78.5t96 246.5t-96.5 247t-255.5 79h-273v-651z" glyph-name="afii10046" horiz-adv-x="1179" unicode="Ь"/><glyph d="M641 -27q-276 0 -481 183q-29 29 -8 47l45 49q18 18 43 -2q174 -152 395 -152q244 0 411.5 158t186.5 401h-545q-27 0 -26 27v66q0 29 26 28h543q-23 240 -188.5 393.5t-407.5 153.5q-221 0 -395 -151q-27 -18 -47 0l-41 47q-18 23 8 49q207 180 481 180q313 0 518 -213 t205 -526.5t-204 -525.5t-519 -212z" glyph-name="afii10047" horiz-adv-x="1495" unicode="Э"/><glyph d="M211 0q-29 0 -29 29v1376q0 29 29 29h72q27 0 26 -29v-627h201q25 289 231.5 480.5t497.5 191.5q309 0 521 -214t212 -525.5t-212 -524.5t-521 -213q-293 0 -501 197t-228 487h-201v-628q0 -29 -26 -29h-72zM637 711q0 -262 173 -437.5t429 -175.5q258 0 431 175.5 t173 437.5q0 264 -173 439t-431 175t-430 -175t-172 -439z" glyph-name="afii10048" horiz-adv-x="2111" unicode="Ю"/><glyph d="M918 0q-29 0 -29 29v522h-252l-356 -531q-12 -20 -37 -20h-76q-43 0 -21 37l355 522q-174 27 -268.5 143.5t-94.5 288.5q0 199 121 321t344 122h385q27 0 27 -29v-1376q0 -29 -27 -29h-71zM264 991q0 -168 96.5 -246.5t255.5 -78.5h273v653h-273q-160 0 -256 -79 t-96 -249z" glyph-name="afii10049" horiz-adv-x="1198" unicode="Я"/><glyph d="M608 -25q-219 0 -358 149.5t-139 377t139 377t358 149.5q135 0 236.5 -61.5t159.5 -169.5l4 178q0 29 26 29h66q27 0 26 -29v-946q0 -29 -26 -29h-66q-27 0 -26 29l-4 174q-120 -228 -396 -228zM229 501.5q0 -182.5 110 -296t284 -113.5q170 0 276.5 111.5t106.5 294.5 q0 184 -106.5 298.5t-276.5 114.5q-172 0 -283 -113.5t-111 -296z" glyph-name="afii10065" horiz-adv-x="1286" unicode="а"/><glyph d="M657 -25q-70 0 -135 14.5t-132.5 52.5t-117 95.5t-80 152.5t-30.5 216v479q0 207 113.5 328t328.5 121h252q51 0 64 18q23 23 43 23h45q31 0 30 -33q0 -117 -143 -117h-291q-154 0 -237.5 -91t-83.5 -247v-194q57 113 160.5 174t240.5 61q217 0 355.5 -149.5 t138.5 -374.5q0 -231 -146 -380t-375 -149zM283 498q0 -182 106.5 -294t276.5 -112q172 0 281.5 113.5t109.5 296t-107.5 296t-279.5 113.5t-279.5 -114.5t-107.5 -298.5z" glyph-name="afii10066" horiz-adv-x="1286" unicode="б"/><glyph d="M186 0q-25 0 -24 29v946q0 29 24 29h398q137 0 210.5 -68t73.5 -174q0 -78 -37.5 -136.5t-97.5 -76.5q96 -23 152.5 -91.5t56.5 -168.5q0 -123 -89 -206t-280 -83h-387zM285 109h270q272 0 272 186q0 201 -297 201h-245v-387zM285 590h293q90 0 134 44t44 116 q0 147 -178 147h-293v-307z" glyph-name="afii10067" horiz-adv-x="1052" unicode="в"/><glyph d="M193 0q-31 0 -31 31v942q0 31 31 31h542q31 0 31 -31v-45q0 -31 -31 -31h-450v-866q0 -31 -31 -31h-61z" glyph-name="afii10068" horiz-adv-x="849" unicode="г"/><glyph d="M100 -147q-29 0 -28 28v199q0 31 32 31q98 0 135 64.5t37 186.5v611q0 31 31 31h776q25 0 25 -29v-866h88q29 0 29 -29v-199q0 -29 -29 -28h-68q-27 0 -26 28v119h-907v-119q0 -29 -29 -28h-66zM315 109h672v788h-588v-586q0 -165 -84 -202z" glyph-name="afii10069" horiz-adv-x="1290" unicode="д"/><glyph d="M639 -25q-240 0 -384 153t-144 378q0 223 140 372.5t361 149.5q213 0 340 -140t127 -333q0 -55 -13 -75.5t-54 -20.5h-783q14 -166 124 -271.5t296 -105.5q164 0 299 102q16 16 29 0l29 -37q14 -20 -9 -43q-135 -129 -358 -129zM231 559h740q-4 160 -102.5 259.5 t-258 99.5t-262.5 -97.5t-117 -261.5z" glyph-name="afii10070" horiz-adv-x="1189" unicode="е"/><glyph d="M115 0q-20 0 -24.5 11.5t7.5 25.5l459 510l-401 420q-14 16 -10 26.5t24 10.5h82q20 0 39 -17l493 -520v508q0 29 25 29h72q27 0 26 -29v-508l494 520q16 16 39 17h82q20 0 24 -10.5t-10 -26.5l-403 -420l460 -510q12 -14 8 -25.5t-24 -11.5h-82q-23 0 -37 16l-405 449 l-146 -150v-286q0 -29 -26 -29h-72q-25 0 -25 29v286l-147 150l-404 -449q-14 -16 -36 -16h-82z" glyph-name="afii10072" horiz-adv-x="1689" unicode="ж"/><glyph d="M485 -25q-168 0 -271 88.5t-103 227.5q0 27 26 26h64q27 0 26 -26q0 -96 78 -153.5t191 -57.5q115 0 191.5 55t76.5 152q0 90 -68.5 142t-183.5 52h-76q-29 0 -28 27v45q0 27 28 27h72q100 0 157.5 46t57.5 130t-67.5 126t-172.5 42q-233 0 -233 -183q0 -29 -29 -28h-63 q-27 0 -27 28q0 129 91 208t263 79q166 0 261.5 -70.5t95.5 -193.5q0 -156 -164 -227q94 -27 147.5 -94.5t53.5 -159.5q0 -135 -111 -221.5t-283 -86.5z" glyph-name="afii10073" horiz-adv-x="978" unicode="з"/><glyph d="M848 983q14 20 39 21h102q25 0 25 -29v-946q0 -29 -27 -29h-69q-27 0 -27 29v825l-551 -834q-14 -20 -39 -20h-115q-25 0 -24 29v946q0 29 24 29h72q27 0 27 -29v-844z" glyph-name="afii10074" horiz-adv-x="1175" unicode="и"/><glyph d="M848 983q14 20 39 21h102q25 0 25 -29v-946q0 -29 -27 -29h-69q-27 0 -27 29v825l-551 -834q-14 -20 -39 -20h-115q-25 0 -24 29v946q0 29 24 29h72q27 0 27 -29v-844zM317 1403q-2 31 29 31h39q29 0 33 -29q8 -66 53 -104.5t116.5 -38.5t117 38.5t55.5 104.5q4 29 33 29 h38q33 0 29 -31q-6 -102 -79.5 -168t-192.5 -66q-117 0 -191 66t-80 168z" glyph-name="afii10075" horiz-adv-x="1175" unicode="й"/><glyph d="M872 0q-23 0 -36 16l-406 449l-145 -150v-286q0 -29 -27 -29h-72q-25 0 -24 29v946q0 29 24 29h72q27 0 27 -29v-508l493 520q16 16 39 17h82q20 0 24.5 -10.5t-10.5 -26.5l-403 -420l461 -510q12 -14 8 -25.5t-25 -11.5h-82z" glyph-name="afii10076" horiz-adv-x="1067" unicode="к"/><glyph d="M14 -10q-25 0 -24 16v78q0 18 20 18q102 0 143.5 67t41.5 189v615q0 31 30 31h774q25 0 25 -29v-946q0 -29 -25 -29h-71q-27 0 -27 29v868h-584v-555q0 -352 -303 -352z" glyph-name="afii10077" horiz-adv-x="1185" unicode="л"/><glyph d="M700 0q-25 0 -34 23l-381 780v-774q0 -29 -25 -29h-72q-27 0 -26 29v946q0 29 24 29h103q25 0 35 -23l417 -856l418 856q12 23 35 23h102q25 0 25 -29v-946q0 -29 -25 -29h-71q-27 0 -27 29v774l-381 -780q-10 -23 -35 -23h-82z" glyph-name="afii10078" horiz-adv-x="1482" unicode="м"/><glyph d="M186 0q-25 0 -24 29v946q0 29 24 29h72q27 0 27 -29v-438h622v438q0 29 25 29h72q27 0 26 -29v-946q0 -29 -26 -29h-72q-25 0 -25 29v397h-622v-397q0 -29 -27 -29h-72z" glyph-name="afii10079" horiz-adv-x="1189" unicode="н"/><glyph d="M623 -25q-219 0 -365.5 152t-146.5 375t146 374.5t366 151.5q217 0 363.5 -150.5t146.5 -376t-146.5 -376t-363.5 -150.5zM231 502q0 -178 111 -294t281 -116q168 0 279.5 116t111.5 294t-111.5 294.5t-279.5 116.5q-170 0 -281 -115.5t-111 -295.5z" glyph-name="afii10080" horiz-adv-x="1243" unicode="о"/><glyph d="M186 0q-25 0 -24 29v946q0 29 24 29h840q27 0 27 -29v-946q0 -29 -27 -29h-70q-27 0 -26 29v866h-645v-866q0 -29 -27 -29h-72z" glyph-name="afii10081" horiz-adv-x="1214" unicode="п"/><glyph d="M186 -389q-25 0 -24 29v1335q0 29 24 29h68q25 0 25 -29l4 -178q59 109 160.5 170t236.5 61q219 0 358.5 -149.5t139.5 -377t-139.5 -377t-358.5 -149.5q-274 0 -395 224v-559q0 -29 -27 -29h-72zM283 498q0 -182 106.5 -294t276.5 -112q172 0 281.5 113.5t109.5 296 t-109.5 296t-281.5 113.5q-170 0 -276.5 -114.5t-106.5 -298.5z" glyph-name="afii10082" horiz-adv-x="1286" unicode="р"/><glyph d="M631 -25q-221 0 -370.5 150.5t-149.5 376t149.5 376t372.5 150.5q236 0 373 -164q18 -27 4 -41l-39 -37q-23 -25 -45 2q-117 125 -289 125q-174 0 -290 -114.5t-116 -296.5q0 -180 116 -295t292 -115q174 0 285 121q27 29 49 6l39 -39q14 -14 -4 -39q-137 -166 -377 -166 z" glyph-name="afii10083" horiz-adv-x="1128" unicode="с"/><glyph d="M428 0q-31 0 -31 31v864h-272q-31 0 -31 31v47q0 31 31 31h668q31 0 30 -31v-47q0 -31 -30 -31h-273v-864q0 -31 -31 -31h-61z" glyph-name="afii10084" horiz-adv-x="919" unicode="т"/><glyph d="M369 -389q-31 0 -21 29l141 356l-385 973q-12 35 23 35h70q25 0 32 -25l324 -844l324 844q8 25 30 25h72q35 0 22 -35l-528 -1334q-10 -25 -35 -24h-69z" glyph-name="afii10085" horiz-adv-x="1105" unicode="у"/><glyph d="M973 -389q-29 0 -29 29v542q-123 -207 -364 -207q-205 0 -337 150.5t-132 374t132 373t337 149.5q242 0 364 -207v545q0 29 29 29h67q27 0 27 -29v-545q125 207 367 207q205 0 337 -149.5t132 -373t-132.5 -374t-336.5 -150.5q-242 0 -367 207v-542q0 -29 -27 -29h-67z M227 498q0 -176 101.5 -294t255.5 -118q156 0 258 120t102 292t-102.5 292.5t-257.5 120.5q-154 0 -255.5 -118.5t-101.5 -294.5zM1067 498q0 -172 102.5 -292t257.5 -120q154 0 255.5 116.5t101.5 295t-101.5 296t-255 117.5t-257 -120.5t-103.5 -292.5z" glyph-name="afii10086" horiz-adv-x="2013" unicode="ф"/><glyph d="M121 0q-16 0 -20.5 10t5.5 25l316 477l-301 457q-20 35 16 35h78q23 0 35 -21l246 -385l245 385q12 20 35 21h80q35 0 14 -35l-301 -457l316 -477q25 -35 -15 -35h-79q-23 0 -35 20l-260 408l-260 -408q-12 -20 -35 -20h-80z" glyph-name="afii10087" horiz-adv-x="991" unicode="х"/><glyph d="M186 0q-25 0 -24 29v946q0 29 24 29h72q27 0 27 -29v-866h645v866q0 29 26 29h70q27 0 27 -29v-866h53q29 0 29 -29v-199q0 -29 -29 -28h-59q-29 0 -29 28v119h-832z" glyph-name="afii10088" horiz-adv-x="1200" unicode="ц"/><glyph d="M500 244q-68 0 -131.5 18.5t-124 59t-97 118.5t-36.5 185v350q0 29 24 29h72q27 0 26 -29v-336q0 -139 79 -208t208 -69q133 0 224.5 70t91.5 207v336q0 29 24 29h72q27 0 26 -29v-946q0 -29 -26 -29h-72q-25 0 -24 29v372q-49 -72 -138 -114.5t-198 -42.5z" glyph-name="afii10089" horiz-adv-x="1118" unicode="ч"/><glyph d="M188 0q-27 0 -26 29v946q0 29 26 29h72q25 0 25 -29v-866h368v866q0 29 27 29h72q25 0 24 -29v-866h371v866q0 29 27 29h71q25 0 25 -29v-946q0 -29 -25 -29h-1057z" glyph-name="afii10090" horiz-adv-x="1431" unicode="ш"/><glyph d="M1243 -147q-29 0 -29 28v119h-1026q-27 0 -26 29v946q0 29 26 29h72q25 0 25 -29v-866h368v866q0 29 27 29h72q25 0 24 -29v-866h371v866q0 29 27 29h71q25 0 25 -29v-866h41q29 0 28 -29v-199q0 -29 -28 -28h-68z" glyph-name="afii10091" horiz-adv-x="1406" unicode="щ"/><glyph d="M88 897q-29 0 -29 27v51q0 29 29 29h199q27 0 26 -29v-326h383q178 0 267.5 -85t89.5 -240q0 -154 -89.5 -239t-267.5 -85h-481q-25 0 -25 29v868h-102zM313 106h381q238 0 238 217.5t-238 217.5h-381v-435z" glyph-name="afii10092" horiz-adv-x="1163" unicode="ъ"/><glyph d="M186 0q-25 0 -24 29v946q0 29 24 29h72q27 0 27 -29v-326h383q178 0 267 -85t89 -240q0 -154 -89 -239t-267 -85h-482zM285 106h381q238 0 237.5 217.5t-237.5 217.5h-381v-435zM1178 29v946q0 29 26 29h72q25 0 24 -29v-946q0 -29 -24 -29h-72q-26 0 -26 29z" glyph-name="afii10093" horiz-adv-x="1462" unicode="ы"/><glyph d="M186 0q-25 0 -24 29v946q0 29 24 29h72q27 0 27 -29v-326h383q178 0 267 -85t89 -240q0 -154 -89 -239t-267 -85h-482zM285 106h381q238 0 237.5 217.5t-237.5 217.5h-381v-435z" glyph-name="afii10094" horiz-adv-x="1134" unicode="ь"/><glyph d="M500 -25q-242 0 -379 166q-18 23 -2 39l39 39q20 20 47 -6q113 -121 287 -121q162 0 275.5 99.5t129.5 259.5h-405q-25 0 -25 28v41q0 29 25 29h405q-14 162 -128 263t-275 101q-172 0 -289 -125q-25 -25 -45 -2l-39 37q-14 14 2 41q137 164 375 164q221 0 371.5 -150.5 t150.5 -376t-149.5 -376t-370.5 -150.5z" glyph-name="afii10095" horiz-adv-x="1128" unicode="э"/><glyph d="M967 -25q-203 0 -347.5 134.5t-162.5 339.5h-172v-422q0 -29 -25 -29h-72q-27 0 -26 29v946q0 29 26 28h72q25 0 25 -28v-420h172q18 205 161.5 340t348.5 135q217 0 363.5 -150.5t146.5 -376t-146.5 -376t-363.5 -150.5zM575 502q0 -178 111 -294t281 -116 q168 0 279.5 116t111.5 294t-111.5 294.5t-279.5 116.5q-170 0 -281 -115.5t-111 -295.5z" glyph-name="afii10096" horiz-adv-x="1587" unicode="ю"/><glyph d="M819 0q-25 0 -24 29v327h-222l-301 -340q-14 -16 -34 -16h-80q-20 0 -24.5 10t9.5 27l291 319q-160 8 -242.5 98.5t-82.5 225.5q0 143 90 233.5t266 90.5h426q27 0 27 -29v-946q0 -29 -27 -29h-72zM229 680q0 -100 59.5 -158.5t178.5 -58.5h328v434h-328 q-119 0 -178.5 -58.5t-59.5 -158.5z" glyph-name="afii10097" horiz-adv-x="1077" unicode="я"/><glyph d="M639 -25q-240 0 -384 153t-144 378q0 223 140 372.5t361 149.5q213 0 340 -140t127 -333q0 -55 -13 -75.5t-54 -20.5h-783q14 -166 124 -271.5t296 -105.5q164 0 299 102q16 16 29 0l29 -37q14 -20 -9 -43q-135 -129 -358 -129zM231 559h740q-4 160 -102.5 259.5 t-258 99.5t-262.5 -97.5t-117 -261.5zM412 1401q-18 33 18 33h59q23 0 33 -25l119 -235q18 -33 -18 -33h-58q-18 0 -33 24z" glyph-name="uni0450" horiz-adv-x="1189" unicode="ѐ"/><glyph d="M639 -25q-240 0 -384 153t-144 378q0 223 140 372.5t361 149.5q213 0 340 -140t127 -333q0 -55 -13 -75.5t-54 -20.5h-783q14 -166 124 -271.5t296 -105.5q164 0 299 102q16 16 29 0l29 -37q14 -20 -9 -43q-135 -129 -358 -129zM231 559h740q-4 160 -102.5 259.5 t-258 99.5t-262.5 -97.5t-117 -261.5zM340 1368q0 31 22.5 53.5t55.5 22.5t55.5 -22.5t22.5 -53.5t-22.5 -53.5t-55.5 -22.5t-55.5 22.5t-22.5 53.5zM696 1368q0 31 23.5 53.5t54.5 22.5q33 0 55.5 -22.5t22.5 -53.5t-22.5 -53.5t-55.5 -22.5q-31 0 -54.5 22.5t-23.5 53.5z " glyph-name="afii10071" horiz-adv-x="1189" unicode="ё"/><glyph d="M676 -406q-20 0 -21 19l-18 72q-8 23 18 22q111 0 161 78t50 238v591q0 139 -72.5 219t-201.5 80q-133 0 -220 -81.5t-87 -217.5v-585q0 -29 -27 -29h-72q-25 0 -24 29v1165h-86q-29 0 -29 29v47q0 29 29 28h86v138q0 29 24 28h72q27 0 27 -28v-138h338q29 0 28 -28v-47 q0 -29 -28 -29h-338v-352q104 186 338 186q168 0 267 -105.5t99 -301.5v-629q0 -199 -80.5 -298.5t-232.5 -99.5z" glyph-name="afii10099" unicode="ђ"/><glyph d="M193 0q-31 0 -31 31v942q0 31 31 31h542q31 0 31 -31v-45q0 -31 -31 -31h-450v-866q0 -31 -31 -31h-61zM414 1174l112 235q10 25 35 25h66q35 0 16 -33l-115 -236q-14 -25 -34 -24h-62q-36 0 -18 33z" glyph-name="afii10100" horiz-adv-x="849" unicode="ѓ"/><glyph d="M631 -25q-221 0 -370.5 150.5t-149.5 376t149.5 376t372.5 150.5q236 0 373 -164q18 -27 4 -41l-39 -37q-23 -25 -45 2q-117 125 -289 125q-164 0 -276.5 -101t-127.5 -263h404q27 0 27 -29v-41q0 -29 -27 -28h-404q16 -160 129 -259.5t277 -99.5q174 0 285 121 q27 29 49 6l39 -39q14 -14 -4 -39q-137 -166 -377 -166z" glyph-name="afii10101" horiz-adv-x="1128" unicode="є"/><glyph d="M449 -25q-199 0 -318 148q-18 25 -4 51l25 31q18 27 45 -2q106 -117 249 -117q98 0 158 44t60 128q0 72 -42 114t-126 77l-117 49q-106 45 -166.5 106.5t-60.5 161.5q0 119 87 190.5t212 71.5q180 0 286 -135q18 -20 -2 -45l-22 -27q-23 -27 -49 0q-92 100 -209 101 q-78 0 -131.5 -39t-53.5 -113q0 -72 43 -109.5t142 -76.5l92 -39q113 -45 175 -110.5t62 -174.5q0 -133 -97 -209t-238 -76z" glyph-name="afii10102" horiz-adv-x="905" unicode="ѕ"/><glyph d="M223 1278q-35 0 -58.5 24.5t-23.5 57.5t23.5 57.5t58.5 24.5q33 0 56.5 -23.5t23.5 -58.5t-23.5 -58.5t-56.5 -23.5zM162 29v946q0 29 24 29h72q25 0 25 -29v-946q0 -29 -25 -29h-72q-24 0 -24 29z" glyph-name="afii10103" horiz-adv-x="444" unicode="і"/><glyph d="M152 0q-27 0 -27 29v946q0 29 27 29h71q25 0 25 -29v-946q0 -29 -25 -29h-71zM-68 1368q0 31 22.5 53.5t55.5 22.5t55.5 -22.5t22.5 -53.5t-22.5 -53.5t-55.5 -22.5t-55.5 22.5t-22.5 53.5zM289 1368q0 31 23.5 53.5t54.5 22.5q33 0 55 -22.5t22 -53.5t-22.5 -53.5 t-54.5 -22.5q-31 0 -54.5 22.5t-23.5 53.5z" glyph-name="afii10104" horiz-adv-x="372" unicode="ї"/><glyph d="M246 1278q-33 0 -57.5 24.5t-24.5 57.5t24.5 57.5t57.5 24.5t55.5 -23.5t22.5 -58.5t-22.5 -58.5t-55.5 -23.5zM-49 -371v68q0 18 24 14q37 -6 66 -6q82 0 111.5 44t29.5 126v1100q0 29 27 29h70q27 0 26 -29v-1131q0 -254 -248 -254q-55 0 -88 13q-18 8 -18 26z" glyph-name="afii10105" horiz-adv-x="464" unicode="ј"/><glyph d="M928 0q-27 0 -27 29v868h-584v-555q0 -352 -303 -352q-25 0 -24 16v78q0 18 20 18q102 0 143.5 67t41.5 189v615q0 31 30 31h774q25 0 25 -29v-326h236q178 0 267 -85t89 -240q0 -154 -89 -239t-267 -85h-332zM1024 106h233q238 0 238 217.5t-238 217.5h-233v-435z" glyph-name="afii10106" horiz-adv-x="1726" unicode="љ"/><glyph d="M932 0q-25 0 -25 29v397h-622v-397q0 -29 -27 -29h-72q-25 0 -24 29v946q0 29 24 29h72q27 0 27 -29v-438h622v438q0 29 25 29h72q27 0 26 -29v-326h230q178 0 267 -85t89 -240q0 -154 -89 -239t-267 -85h-328zM1030 106h227q238 0 238 217.5t-238 217.5h-227v-435z" glyph-name="afii10107" horiz-adv-x="1726" unicode="њ"/><glyph d="M186 0q-25 0 -24 29v1165h-86q-29 0 -29 29v47q0 29 29 28h86v138q0 29 24 28h72q27 0 27 -28v-138h338q29 0 28 -28v-47q0 -29 -28 -29h-338v-352q104 186 338 186q168 0 267 -105.5t99 -301.5v-592q0 -29 -26 -29h-72q-25 0 -25 29v585q0 139 -72.5 219t-201.5 80 q-133 0 -220 -81.5t-87 -217.5v-585q0 -29 -27 -29h-72z" glyph-name="afii10108" unicode="ћ"/><glyph d="M872 0q-23 0 -36 16l-406 449l-145 -150v-286q0 -29 -27 -29h-72q-25 0 -24 29v946q0 29 24 29h72q27 0 27 -29v-508l493 520q16 16 39 17h82q20 0 24.5 -10.5t-10.5 -26.5l-403 -420l461 -510q12 -14 8 -25.5t-25 -11.5h-82zM514 1174l113 235q10 25 35 25h65 q35 0 16 -33l-114 -236q-14 -25 -35 -24h-62q-36 0 -18 33z" glyph-name="afii10109" horiz-adv-x="1067" unicode="ќ"/><glyph d="M369 -389q-31 0 -21 29l141 356l-385 973q-12 35 23 35h70q25 0 32 -25l324 -844l324 844q8 25 30 25h72q35 0 22 -35l-528 -1334q-10 -25 -35 -24h-69zM262 1403q-4 31 29 31h39q29 0 32 -29q8 -66 53.5 -104.5t117 -38.5t116.5 38.5t56 104.5q4 29 32 29h39 q31 0 29 -31q-6 -102 -80 -168t-193 -66q-117 0 -190.5 66t-79.5 168z" glyph-name="afii10110" horiz-adv-x="1105" unicode="ў"/><glyph d="M186 0q-25 0 -24 29v946q0 29 24 29h72q27 0 27 -29v-866h645v866q0 29 26 29h70q27 0 27 -29v-946q0 -29 -27 -29h-358v-119q0 -29 -29 -28h-61q-27 0 -27 28v119h-365z" glyph-name="afii10193" horiz-adv-x="1214" unicode="џ"/><glyph d="M782 1507q0 31 31 31h59q31 0 31 -31v-164h-2q0 -31 -31 -30h-561v-1284q0 -29 -26 -29h-72q-29 0 -29 29v1376q0 29 29 29h571v73z" glyph-name="afii10050" horiz-adv-x="1011" unicode="Ґ"/><glyph d="M643 1100q0 31 31 30h61q31 0 31 -30v-172q0 -31 -31 -31h-450v-866q0 -31 -31 -31h-61q-31 0 -31 31v942q0 31 31 31h450v96z" glyph-name="afii10098" horiz-adv-x="849" unicode="ґ"/><glyph d="M211 0q-29 0 -29 29v1376q0 29 29 29h72q27 0 26 -29v-1376q0 -29 -26 -29h-72z" glyph-name="uni04C0" horiz-adv-x="491" unicode="Ӏ"/><glyph d="M186 0q-25 0 -24 29v1407q0 29 24 28h72q27 0 27 -28v-1407q0 -29 -27 -29h-72z" glyph-name="uni04CF" horiz-adv-x="444" unicode="ӏ"/><glyph d="M803 -27q-299 0 -480.5 191.5t-181.5 484.5v51q0 31 31 31h1235q-6 254 -178 424t-424 170q-221 0 -406 -158q-16 -16 -30 0l-52 60q-16 16 5 33q203 190 483 190q315 0 523 -214t208 -525.5t-208 -524.5t-525 -213zM272 614q0 -227 148.5 -371.5t384.5 -144.5 q233 0 398 144.5t198 371.5h-1129z" glyph-name="uni04D8" horiz-adv-x="1677" unicode="Ә"/><glyph d="M580 -25q-215 0 -342 140.5t-127 335.5q0 53 13 73.5t54 20.5h783q-14 168 -123 272.5t-295 104.5q-166 0 -301 -103q-14 -14 -29 2l-29 35q-12 18 9 43q139 129 358 129q240 0 384 -152.5t144 -377.5q0 -223 -140 -373t-359 -150zM221 444q4 -160 101.5 -258t257 -98 t262 97.5t119.5 258.5h-740z" glyph-name="afii10846" horiz-adv-x="1189" unicode="ә"/><glyph d="M1008 1413q12 20 36 21h105q29 0 29 -29v-1376q0 -29 -29 -29h-72q-29 0 -28 29v1226l-697 -1235q-12 -20 -37 -20h-104q-29 0 -29 29v1376q0 29 29 29h72q27 0 26 -29v-1231zM395 1788v47q0 29 29 29h547q29 0 28 -29v-47q0 -29 -28 -29h-547q-29 0 -29 29z" glyph-name="uni04E2" horiz-adv-x="1359" unicode="Ӣ"/><glyph d="M848 983q14 20 39 21h102q25 0 25 -29v-946q0 -29 -27 -29h-69q-27 0 -27 29v825l-551 -834q-14 -20 -39 -20h-115q-25 0 -24 29v946q0 29 24 29h72q27 0 27 -29v-844zM287 1358v47q0 29 28 29h547q29 0 29 -29v-47q0 -29 -29 -29h-547q-28 0 -28 29z" glyph-name="uni04E3" horiz-adv-x="1175" unicode="ӣ"/><glyph d="M874 -27q-317 0 -525 213t-208 524.5t208 525.5t523 214q281 0 484 -190q20 -16 4 -33l-51 -60q-14 -16 -31 0q-184 158 -406 158q-258 0 -430 -175t-172 -439q0 -262 173 -437.5t431 -175.5q238 0 388.5 145.5t146.5 370.5h-512q-29 0 -29 27v64q0 27 29 26h608 q31 0 31 -31v-51q0 -293 -181.5 -484.5t-480.5 -191.5zM565 1788v47q0 29 29 29h547q29 0 28 -29v-47q0 -29 -28 -29h-547q-29 0 -29 29z" glyph-name="uni1E20" horiz-adv-x="1656" unicode="Ḡ"/><glyph d="M604 -420q-209 0 -342 92q-25 16 -16 39l26 47q12 18 35 9q121 -80 293 -80q170 0 281.5 86t111.5 272v180q-123 -215 -391 -215q-217 0 -354 142.5t-137 367.5q0 223 137 365.5t350 142.5q274 0 397 -221l2 168q0 29 25 29h68q25 0 24 -29v-940q0 -225 -147.5 -340 t-362.5 -115zM229 520q0 -180 110 -287.5t277.5 -107.5t272 105.5t104.5 283.5q0 180 -104.5 289.5t-272 109.5t-277.5 -108.5t-110 -284.5zM336 1358v47q0 29 29 29h546q29 0 29 -29v-47q0 -29 -29 -29h-546q-29 0 -29 29z" glyph-name="uni1E21" horiz-adv-x="1275" unicode="ḡ"/><glyph d="M573 0q-25 0 -32 25l-428 1374q-10 35 24 35h70q27 0 35 -25l379 -1239l411 1239q8 25 33 25h86q23 0 31 -25l411 -1239l379 1239q10 25 35 25h70q35 0 24 -35l-426 -1374q-10 -25 -35 -25h-88q-27 0 -34 25l-410 1251l-412 -1251q-8 -25 -32 -25h-91zM926 1831 q-18 33 18 33h60q23 0 32 -25l119 -235q18 -33 -18 -33h-58q-18 0 -32 24z" glyph-name="Wgrave" horiz-adv-x="2213" unicode="Ẁ"/><glyph d="M473 0q-27 0 -37 25l-332 944q-12 35 23 35h70q25 0 32 -25l287 -846l295 846q8 25 37 25h82q29 0 37 -25l295 -846l286 846q8 25 31 25h72q35 0 22 -35l-332 -944q-10 -25 -36 -25h-82q-27 0 -37 25l-297 845l-297 -845q-10 -25 -37 -25h-82zM705 1401q-18 33 18 33h59 q23 0 33 -25l119 -235q18 -33 -19 -33h-57q-18 0 -33 24z" glyph-name="wgrave" horiz-adv-x="1777" unicode="ẁ"/><glyph d="M573 0q-25 0 -32 25l-428 1374q-10 35 24 35h70q27 0 35 -25l379 -1239l411 1239q8 25 33 25h86q23 0 31 -25l411 -1239l379 1239q10 25 35 25h70q35 0 24 -35l-426 -1374q-10 -25 -35 -25h-88q-27 0 -34 25l-410 1251l-412 -1251q-8 -25 -32 -25h-91zM1065 1604l113 235 q10 25 34 25h66q35 0 16 -33l-114 -236q-14 -25 -35 -24h-62q-36 0 -18 33z" glyph-name="Wacute" horiz-adv-x="2213" unicode="Ẃ"/><glyph d="M473 0q-27 0 -37 25l-332 944q-12 35 23 35h70q25 0 32 -25l287 -846l295 846q8 25 37 25h82q29 0 37 -25l295 -846l286 846q8 25 31 25h72q35 0 22 -35l-332 -944q-10 -25 -36 -25h-82q-27 0 -37 25l-297 845l-297 -845q-10 -25 -37 -25h-82zM846 1174l112 235 q10 25 35 25h66q35 0 16 -33l-114 -236q-14 -25 -35 -24h-62q-36 0 -18 33z" glyph-name="wacute" horiz-adv-x="1777" unicode="ẃ"/><glyph d="M573 0q-25 0 -32 25l-428 1374q-10 35 24 35h70q27 0 35 -25l379 -1239l411 1239q8 25 33 25h86q23 0 31 -25l411 -1239l379 1239q10 25 35 25h70q35 0 24 -35l-426 -1374q-10 -25 -35 -25h-88q-27 0 -34 25l-410 1251l-412 -1251q-8 -25 -32 -25h-91zM854 1798 q0 31 22.5 53.5t55.5 22.5t55.5 -22.5t22.5 -53.5t-22.5 -53.5t-55.5 -22.5t-55.5 22.5t-22.5 53.5zM1210 1798q0 31 23.5 53.5t54.5 22.5q33 0 55.5 -22.5t22.5 -53.5t-22.5 -53.5t-55.5 -22.5q-31 0 -54.5 22.5t-23.5 53.5z" glyph-name="Wdieresis" horiz-adv-x="2213" unicode="Ẅ"/><glyph d="M473 0q-27 0 -37 25l-332 944q-12 35 23 35h70q25 0 32 -25l287 -846l295 846q8 25 37 25h82q29 0 37 -25l295 -846l286 846q8 25 31 25h72q35 0 22 -35l-332 -944q-10 -25 -36 -25h-82q-27 0 -37 25l-297 845l-297 -845q-10 -25 -37 -25h-82zM633 1368q0 31 22.5 53.5 t55 22.5t55 -22.5t22.5 -53.5t-22.5 -53.5t-55 -22.5t-55 22.5t-22.5 53.5zM989 1368q0 31 23.5 53.5t54.5 22.5q33 0 55.5 -22.5t22.5 -53.5t-22.5 -53.5t-55.5 -22.5q-31 0 -54.5 22.5t-23.5 53.5z" glyph-name="wdieresis" horiz-adv-x="1777" unicode="ẅ"/><glyph d="M782 -25q-199 0 -321 154q-23 23 -4 45l30 37q20 27 45 -2q109 -115 248 -115q106 0 173 58.5t67 156.5q0 147 -178 246l-117 63q-111 61 -168 126t-57 174q0 139 98 214.5t250 73.5q-72 111 -248 111q-291 0 -291 -285v-1003q0 -29 -24 -29h-78q-25 0 -25 29v1032 q0 178 114 275.5t298 97.5q270 0 356 -189v-151h-112q-90 0 -151.5 -41t-61.5 -133q0 -72 43 -116t139 -97l92 -52q117 -66 182.5 -144.5t65.5 -199.5q0 -152 -105.5 -244t-259.5 -92z" glyph-name="uni1E9E" horiz-adv-x="1257" unicode="ẞ"/><glyph d="M137 0q-37 0 -22 35l499 1374q8 25 37 25h88q27 0 37 -25l500 -1374q14 -35 -23 -35h-77q-23 0 -31 25l-113 313h-676l-110 -313q-8 -25 -35 -25h-74zM397 453h594l-297 831zM612 -326q0 33 25 57.5t59.5 24.5t59 -24.5t24.5 -57.5q0 -37 -24.5 -60.5t-59 -23.5 t-59.5 23.5t-25 60.5z" glyph-name="uni1EA0" horiz-adv-x="1390" unicode="Ạ"/><glyph d="M608 -25q-219 0 -358 149.5t-139 377t139 377t358 149.5q135 0 236.5 -61.5t159.5 -169.5l4 178q0 29 26 29h66q27 0 26 -29v-946q0 -29 -26 -29h-66q-27 0 -26 29l-4 174q-120 -228 -396 -228zM229 501.5q0 -182.5 110 -296t284 -113.5q170 0 276.5 111.5t106.5 294.5 q0 184 -106.5 298.5t-276.5 114.5q-172 0 -283 -113.5t-111 -296zM555 -326q0 33 24.5 57.5t59.5 24.5t59.5 -24.5t24.5 -57.5q0 -37 -24.5 -60.5t-59.5 -23.5t-59.5 23.5t-24.5 60.5z" glyph-name="uni1EA1" horiz-adv-x="1286" unicode="ạ"/><glyph d="M137 0q-37 0 -22 35l499 1374q8 25 37 25h88q27 0 37 -25l500 -1374q14 -35 -23 -35h-77q-23 0 -31 25l-113 313h-676l-110 -313q-8 -25 -35 -25h-74zM397 453h594l-297 831zM535 1960q59 66 147 65q90 0 148.5 -56t58.5 -142q0 -96 -68.5 -149.5t-138.5 -53.5 q-27 0 -27 29v24q0 27 29 31q49 6 81 37t32 82q0 49 -32 78.5t-83 29.5q-47 0 -80 -28q-25 -20 -43 -4l-20 14q-22 23 -4 43z" glyph-name="uni1EA2" horiz-adv-x="1390" unicode="Ả"/><glyph d="M608 -25q-219 0 -358 149.5t-139 377t139 377t358 149.5q135 0 236.5 -61.5t159.5 -169.5l4 178q0 29 26 29h66q27 0 26 -29v-946q0 -29 -26 -29h-66q-27 0 -26 29l-4 174q-120 -228 -396 -228zM229 501.5q0 -182.5 110 -296t284 -113.5q170 0 276.5 111.5t106.5 294.5 q0 184 -106.5 298.5t-276.5 114.5q-172 0 -283 -113.5t-111 -296zM477 1530q59 66 148 65q90 0 148 -56t58 -142q0 -96 -68.5 -149.5t-137.5 -53.5q-27 0 -27 29v24q0 27 29 31q49 6 80.5 37t31.5 82q0 49 -31.5 78.5t-82.5 29.5q-47 0 -80 -28q-25 -20 -43 -4l-21 14 q-22 23 -4 43z" glyph-name="uni1EA3" horiz-adv-x="1286" unicode="ả"/><glyph d="M137 0q-37 0 -22 35l499 1374q8 25 37 25h88q27 0 37 -25l500 -1374q14 -35 -23 -35h-77q-23 0 -31 25l-113 313h-676l-110 -313q-8 -25 -35 -25h-74zM397 453h594l-297 831zM446 1636l172 211q14 16 33 17h90q16 0 31 -17l174 -211q8 -8 3 -17t-17 -9h-68q-18 0 -33 16 l-135 168l-135 -168q-14 -16 -33 -16h-67q-14 0 -18.5 9t3.5 17zM918 1815l124 229q14 25 37 24h56q35 0 16 -32l-125 -230q-14 -25 -37 -24h-55q-34 0 -16 33z" glyph-name="uni1EA4" horiz-adv-x="1390" unicode="Ấ"/><glyph d="M608 -25q-219 0 -358 149.5t-139 377t139 377t358 149.5q135 0 236.5 -61.5t159.5 -169.5l4 178q0 29 26 29h66q27 0 26 -29v-946q0 -29 -26 -29h-66q-27 0 -26 29l-4 174q-120 -228 -396 -228zM229 501.5q0 -182.5 110 -296t284 -113.5q170 0 276.5 111.5t106.5 294.5 q0 184 -106.5 298.5t-276.5 114.5q-172 0 -283 -113.5t-111 -296zM389 1206l172 211q14 16 33 17h90q16 0 31 -17l174 -211q8 -8 3 -17t-18 -9h-67q-18 0 -33 16l-135 168l-135 -168q-14 -16 -33 -16h-68q-14 0 -18 9t4 17zM860 1384l125 230q14 25 37 24h55q35 0 17 -32 l-125 -230q-14 -25 -37 -24h-55q-35 -1 -17 32z" glyph-name="uni1EA5" horiz-adv-x="1286" unicode="ấ"/><glyph d="M137 0q-37 0 -22 35l499 1374q8 25 37 25h88q27 0 37 -25l500 -1374q14 -35 -23 -35h-77q-23 0 -31 25l-113 313h-676l-110 -313q-8 -25 -35 -25h-74zM397 453h594l-297 831zM446 1636l172 211q14 16 33 17h90q16 0 31 -17l174 -211q8 -8 3 -17t-17 -9h-68q-18 0 -33 16 l-135 168l-135 -168q-14 -16 -33 -16h-67q-14 0 -18.5 9t3.5 17zM768 2036q-10 12 -5 22t21 10h60q20 0 37 -24l172 -229q10 -12 4 -22.5t-23 -10.5h-55q-20 0 -37 24z" glyph-name="uni1EA6" horiz-adv-x="1390" unicode="Ầ"/><glyph d="M608 -25q-219 0 -358 149.5t-139 377t139 377t358 149.5q135 0 236.5 -61.5t159.5 -169.5l4 178q0 29 26 29h66q27 0 26 -29v-946q0 -29 -26 -29h-66q-27 0 -26 29l-4 174q-120 -228 -396 -228zM229 501.5q0 -182.5 110 -296t284 -113.5q170 0 276.5 111.5t106.5 294.5 q0 184 -106.5 298.5t-276.5 114.5q-172 0 -283 -113.5t-111 -296zM389 1206l172 211q14 16 33 17h90q16 0 31 -17l174 -211q8 -8 3 -17t-18 -9h-67q-18 0 -33 16l-135 168l-135 -168q-14 -16 -33 -16h-68q-14 0 -18 9t4 17zM711 1606q-10 12 -5 22t21 10h59q20 0 37 -24 l172 -230q10 -12 4 -22t-22 -10h-55q-20 0 -37 24z" glyph-name="uni1EA7" horiz-adv-x="1286" unicode="ầ"/><glyph d="M137 0q-37 0 -22 35l499 1374q8 25 37 25h88q27 0 37 -25l500 -1374q14 -35 -23 -35h-77q-23 0 -31 25l-113 313h-676l-110 -313q-8 -25 -35 -25h-74zM397 453h594l-297 831zM446 1636l172 211q14 16 33 17h90q16 0 31 -17l174 -211q8 -8 3 -17t-17 -9h-68q-18 0 -33 16 l-135 168l-135 -168q-14 -16 -33 -16h-67q-14 0 -18.5 9t3.5 17zM821 2056q59 66 148 66q90 0 148.5 -56.5t58.5 -142.5q0 -96 -69 -149.5t-138 -53.5q-27 0 -27 29v25q0 27 29 30q49 6 80.5 37t31.5 82q0 49 -31.5 79t-82.5 30q-47 0 -80 -29q-25 -20 -43 -4l-21 14 q-22 23 -4 43z" glyph-name="uni1EA8" horiz-adv-x="1390" unicode="Ẩ"/><glyph d="M608 -25q-219 0 -358 149.5t-139 377t139 377t358 149.5q135 0 236.5 -61.5t159.5 -169.5l4 178q0 29 26 29h66q27 0 26 -29v-946q0 -29 -26 -29h-66q-27 0 -26 29l-4 174q-120 -228 -396 -228zM229 501.5q0 -182.5 110 -296t284 -113.5q170 0 276.5 111.5t106.5 294.5 q0 184 -106.5 298.5t-276.5 114.5q-172 0 -283 -113.5t-111 -296zM389 1206l172 211q14 16 33 17h90q16 0 31 -17l174 -211q8 -8 3 -17t-18 -9h-67q-18 0 -33 16l-135 168l-135 -168q-14 -16 -33 -16h-68q-14 0 -18 9t4 17zM764 1626q59 66 147 66q90 0 148.5 -56.5 t58.5 -142.5q0 -96 -68.5 -149.5t-138.5 -53.5q-27 0 -26 29v24q0 27 28 31q49 6 81 37t32 82q0 49 -31.5 79t-83.5 30q-47 0 -80 -29q-25 -20 -43 -4l-20 14q-22 23 -4 43z" glyph-name="uni1EA9" horiz-adv-x="1286" unicode="ẩ"/><glyph d="M137 0q-37 0 -22 35l499 1374q8 25 37 25h88q27 0 37 -25l500 -1374q14 -35 -23 -35h-77q-23 0 -31 25l-113 313h-676l-110 -313q-8 -25 -35 -25h-74zM397 453h594l-297 831zM401 2003q2 66 48.5 104.5t111.5 38.5q72 0 141.5 -63.5t114.5 -63.5q31 0 50.5 16.5 t23.5 41.5q2 18 22 18h52q20 0 20 -20q-2 -70 -48 -109t-112 -39q-72 0 -141.5 63.5t-114.5 63.5q-31 0 -50 -16.5t-23 -40.5q-4 -18 -23 -19h-53q-19 0 -19 25zM444 1636l172 211q14 16 33 17h90q16 0 31 -17l174 -211q8 -8 3 -17t-17 -9h-68q-18 0 -33 16l-135 168 l-135 -168q-14 -16 -33 -16h-67q-14 0 -18.5 9t3.5 17z" glyph-name="uni1EAA" horiz-adv-x="1390" unicode="Ẫ"/><glyph d="M608 -25q-219 0 -358 149.5t-139 377t139 377t358 149.5q135 0 236.5 -61.5t159.5 -169.5l4 178q0 29 26 29h66q27 0 26 -29v-946q0 -29 -26 -29h-66q-27 0 -26 29l-4 174q-120 -228 -396 -228zM229 501.5q0 -182.5 110 -296t284 -113.5q170 0 276.5 111.5t106.5 294.5 q0 184 -106.5 298.5t-276.5 114.5q-172 0 -283 -113.5t-111 -296zM344 1573q2 66 48 104.5t112 38.5q72 0 141.5 -63.5t114.5 -63.5q31 0 50 16.5t24 41.5q2 18 22 18h51q20 0 21 -20q-2 -70 -48 -109t-112 -39q-72 0 -141.5 63.5t-114.5 63.5q-31 0 -50.5 -16.5 t-23.5 -40.5q-4 -18 -22 -19h-54q-18 0 -18 25zM387 1206l172 211q14 16 33 17h90q16 0 31 -17l174 -211q8 -8 3 -17t-18 -9h-67q-18 0 -33 16l-135 168l-135 -168q-14 -16 -33 -16h-68q-14 0 -18 9t4 17z" glyph-name="uni1EAB" horiz-adv-x="1286" unicode="ẫ"/></font>
</defs>
</svg>
